STARTFONT 2.1
COMMENT
COMMENT Converted from OpenType font "Comfortaa-Regular.otf" by "otf2bdf 3.0".
COMMENT
FONT -FreeType-Comfortaa-Medium-R-Normal--83-600-100-100-P-452-ISO10646-1
SIZE 60 100 100
FONTBOUNDINGBOX 124 129 -18 -24
STARTPROPERTIES 19
FOUNDRY "FreeType"
FAMILY_NAME "Comfortaa"
WEIGHT_NAME "Medium"
SLANT "R"
SETWIDTH_NAME "Normal"
ADD_STYLE_NAME ""
PIXEL_SIZE 83
POINT_SIZE 600
RESOLUTION_X 100
RESOLUTION_Y 100
SPACING "P"
AVERAGE_WIDTH 452
CHARSET_REGISTRY "ISO10646"
CHARSET_ENCODING "1"
FONT_ASCENT 73
FONT_DESCENT 19
COPYRIGHT "Copyright 2011 The Comfortaa Project Authors (https://github.com/alexeiva/comfortaa), with Reserved Font Name "Comfortaa"."
_OTF_FONTFILE "Comfortaa-Regular.otf"
_OTF_PSNAME "Comfortaa-Regular"
ENDPROPERTIES
CHARS 850
STARTCHAR 0000
ENCODING 0
SWIDTH 0 0
DWIDTH 0 0
BBX 0 0 0 0
BITMAP
ENDCHAR
STARTCHAR 000D
ENCODING 13
SWIDTH 288 0
DWIDTH 24 0
BBX 0 0 0 0
BITMAP
ENDCHAR
STARTCHAR 0020
ENCODING 32
SWIDTH 288 0
DWIDTH 24 0
BBX 0 0 0 0
BITMAP
ENDCHAR
STARTCHAR 0021
ENCODING 33
SWIDTH 264 0
DWIDTH 22 0
BBX 10 65 4 0
BITMAP
1E00
3F00
3F00
3F00
3F00
3F00
3F00
3F00
3F00
3F00
3F00
3F00
3F00
3F00
3F00
3F00
3F00
3F00
3F00
3F00
3F00
3F00
3F00
3F00
3F00
3F00
3F00
3F00
3F00
3F00
3F00
3F00
3F00
3F00
3F00
3F00
3F00
3F00
3F00
3F00
3F00
3F00
3F00
3F00
3F00
3F00
3F00
3F00
3F00
1E00
0000
0000
0000
0000
0000
0C00
3F00
7F80
FFC0
FFC0
FFC0
FFC0
7F80
7F80
1E00
ENDCHAR
STARTCHAR 0022
ENCODING 34
SWIDTH 276 0
DWIDTH 23 0
BBX 17 18 3 47
BITMAP
380F00
7C1F00
FE3F80
FE3F80
FE3F80
7E1F80
7E1F80
7E1F80
7C1F80
7C1F00
7C1F00
7C1F00
7C1F00
7C1F00
7C1F00
7C1F00
7C0F00
180600
ENDCHAR
STARTCHAR 0023
ENCODING 35
SWIDTH 720 0
DWIDTH 60 0
BBX 53 66 4 0
BITMAP
00000400001000
00001E00007C00
00003F0000FC00
00003F0000FC00
00003F0000FC00
00007E0000FC00
00007E0000FC00
00007E0001F800
00007E0001F800
00007E0001F800
0000FE0001F800
0000FC0001F800
0000FC0001F800
0000FC0003F000
0000FC0003F000
0000FC0003F000
0001FC0003F000
0001F80003F000
0001F80007F000
0001F80007E000
0001F80007E000
0FFFFFFFFFFFF0
0FFFFFFFFFFFF8
0FFFFFFFFFFFF8
0FFFFFFFFFFFF0
07FFFFFFFFFFE0
0007F0000FC000
0007E0000FC000
0007E0001FC000
0007E0001FC000
0007E0001F8000
0007E0001F8000
000FE0001F8000
000FC0001F8000
000FC0003F8000
000FC0003F0000
000FC0003F0000
000FC0003F0000
001FC0003F0000
001F80003F0000
3FFFFFFFFFFF00
7FFFFFFFFFFF80
FFFFFFFFFFFF80
FFFFFFFFFFFF80
7FFFFFFFFFFF00
3FFFFFFFFFF800
003F0000FC0000
003F0000FC0000
007F0000FC0000
007E0000FC0000
007E0001FC0000
007E0001F80000
007E0001F80000
007E0001F80000
00FE0001F80000
00FC0001F80000
00FC0003F80000
00FC0003F00000
00FC0003F00000
01FC0003F00000
01F80003F00000
01F80003F00000
01F80007F00000
01F80007E00000
01F00007E00000
00E00003C00000
ENDCHAR
STARTCHAR 0024
ENCODING 36
SWIDTH 600 0
DWIDTH 50 0
BBX 42 79 4 -8
BITMAP
000006000000
00000F000000
00000F000000
00000F000000
00000F000000
00000F000000
00000F000000
0003FFF80000
001FFFFF0000
003FFFFF8000
00FFFFFFE000
01FFFFFFF000
03FFEFFFF800
07FE0F07FC00
0FF80F01FE00
0FE00F00FF00
1FC00F007F00
1FC00F003F80
1F800F001F80
3F800F001F80
3F800F000F00
3F000F000000
3F000F000000
3F000F000000
3F000F000000
3F800F000000
1F800F000000
1F800F000000
1FC00F000000
0FE00F000000
0FE00F000000
07F00F000000
07FC0F000000
03FF0F000000
01FFEF000000
00FFFF800000
003FFFF80000
000FFFFE0000
0003FFFF8000
00007FFFE000
00000FFFF000
00000F3FF800
00000F07FC00
00000F03FE00
00000F00FF00
00000F007F00
00000F007F80
00000F003F80
00000F001F80
00000F001FC0
00000F001FC0
00000F000FC0
00000F000FC0
00000F000FC0
00000F000FC0
00000F000FC0
78000F001FC0
F8000F001FC0
FC000F001FC0
FE000F003F80
FE000F003F80
7F000F007F80
7F800F00FF00
3FE00F01FE00
1FF80F07FE00
0FFF8F7FFC00
07FFFFFFF800
03FFFFFFF000
00FFFFFFC000
003FFFFF0000
000FFFFC0000
00007FC00000
00000F000000
00000F000000
00000F000000
00000F000000
00000F000000
00000F000000
00000E000000
ENDCHAR
STARTCHAR 0025
ENCODING 37
SWIDTH 864 0
DWIDTH 72 0
BBX 66 65 3 0
BITMAP
000FF800000003C000
007FFE00000007E000
01FFFF80000007E000
03FFFFC000000FE000
07FFFFF000001FE000
0FFFFFF800003FE000
1FFC1FF800007FC000
3FE007FC00007F8000
3FC003FE0000FF0000
7F8000FE0001FE0000
7F0000FF0003FE0000
7F00007F0007FC0000
FE00007F0007F80000
FE00003F000FF00000
FC00003F001FE00000
FC00003F803FE00000
FC00003F803FC00000
FC00003F807F800000
FE00003F00FF000000
FE00003F01FF000000
7E00007F03FE000000
7F00007F03FC000000
7F8000FE07F8000000
3FC001FE0FF0000000
3FE003FC1FF0000000
1FF80FFC1FE0000000
0FFFFFF83FC0000000
07FFFFF07F80000000
03FFFFE0FF00000000
01FFFFC1FF00000000
007FFF01FE00000000
001FFC03FC00000000
00000007F800000000
0000000FF80FFF0000
0000001FF03FFFC000
0000001FE07FFFE000
0000003FC1FFFFF800
0000007F83FFFFFC00
000000FF87FFFFFE00
000000FF07FE07FE00
000001FE0FF800FF00
000003FC0FE0007F80
000007FC1FC0003F80
00000FF81FC0003F80
00000FF03F80001FC0
00001FE03F80001FC0
00003FC03F00000FC0
00007FC03F00000FC0
0000FF803F00000FC0
0000FF003F00000FC0
0001FE003F00000FC0
0003FC003F80000FC0
0007FC003F80001FC0
0007F8001F80001FC0
000FF0001FC0003F80
001FE0001FE0007F80
003FE0000FF000FF00
007FC0000FF801FF00
007F800007FF0FFE00
00FF000003FFFFFC00
01FE000001FFFFF800
01FE000000FFFFF000
01FC0000007FFFE000
00F80000001FFF8000
007000000003FC0000
ENDCHAR
STARTCHAR 0026
ENCODING 38
SWIDTH 720 0
DWIDTH 60 0
BBX 53 67 4 -1
BITMAP
0001FC00000000
000FFF80000000
003FFFE0000000
007FFFF0000000
00FFFFF8000000
01FFFFFC000000
03FC01FE000000
07F800FF000000
07F0007F000000
0FE0003F000000
0FC0001F800000
0FC0001F800000
0FC0001F800000
0FC0001F800000
0FC0001F800000
0FC0001F800000
0FC0001F800000
0FC0001F800000
07E0003F000000
07E0003F000000
03F0007F000000
03F8007E000000
01FC00FE000000
01FE01FC000000
00FF03F8000000
007F87F0000000
003FDFE0000000
001FFFC0000000
000FFF80000000
0007FF00000000
0003FC00000000
0007FE00000000
000FFF00000000
001FFF80000000
007FBFC0000000
00FF1FE0000000
01FE0FF0000000
03FC07F8000000
07F803FC000380
0FF001FE0007C0
0FE000FF000FC0
1FC0007F801FC0
3F80003FC03FC0
3F00001FE07F80
7F00000FF0FF00
7E000007F9FE00
FE000003FFFC00
FC000001FFF800
FC000000FFF000
FC0000007FE000
FC0000003FC000
FC0000003FE000
FC0000007FF000
FC000000FFF800
FC000001FFFC00
FE000003F9FE00
7E000007F8FF00
7F00001FF07F80
7F80003FE03FC0
3FE000FFC01FE0
1FF807FF000FF0
0FFFFFFE0007F8
07FFFFFC0003F8
03FFFFF00001F0
00FFFFC00000E0
003FFF00000000
0000F000000000
ENDCHAR
STARTCHAR 0027
ENCODING 39
SWIDTH 156 0
DWIDTH 13 0
BBX 7 18 3 47
BITMAP
3C
7C
FE
FE
FE
7E
7E
7E
7E
7C
7C
7C
7C
7C
7C
7C
7C
18
ENDCHAR
STARTCHAR 0028
ENCODING 40
SWIDTH 252 0
DWIDTH 21 0
BBX 16 85 4 -20
BITMAP
001E
003F
003F
007F
007F
00FF
00FE
00FE
01FC
01FC
03F8
03F8
03F0
07F0
07F0
07E0
0FE0
0FE0
0FC0
1FC0
1FC0
1F80
1F80
3F80
3F80
3F80
3F00
3F00
7F00
7F00
7F00
7E00
7E00
7E00
7E00
7E00
7E00
7E00
FE00
FE00
FE00
FE00
FE00
FE00
FE00
FE00
FE00
7E00
7E00
7E00
7E00
7E00
7E00
7F00
7F00
7F00
3F00
3F00
3F80
3F80
3F80
1F80
1F80
1FC0
1FC0
0FC0
0FE0
0FE0
07E0
07F0
07F0
03F0
03F8
03F8
01FC
01FC
01FC
00FE
00FE
007F
007F
003F
003F
001F
0004
ENDCHAR
STARTCHAR 0029
ENCODING 41
SWIDTH 252 0
DWIDTH 21 0
BBX 16 85 1 -20
BITMAP
7800
FC00
FC00
FE00
FE00
7F00
7F00
3F80
3F80
1FC0
1FC0
1FC0
0FE0
0FE0
07E0
07F0
07F0
03F0
03F8
03F8
01F8
01F8
01FC
01FC
00FC
00FC
00FE
00FE
00FE
007E
007E
007E
007E
007F
007F
007F
007F
007F
003F
003F
003F
003F
003F
003F
003F
003F
003F
007F
007F
007F
007F
007E
007E
007E
007E
00FE
00FE
00FE
00FC
00FC
01FC
01FC
01F8
01F8
03F8
03F8
03F0
07F0
07F0
07E0
0FE0
0FE0
1FC0
1FC0
1FC0
3F80
3F80
7F00
7F00
FF00
FE00
FE00
FC00
7800
1000
ENDCHAR
STARTCHAR 002A
ENCODING 42
SWIDTH 384 0
DWIDTH 32 0
BBX 25 24 4 41
BITMAP
003C0000
007E0000
007E0000
007E0000
007E0000
007E0000
103E0400
7C3C1F00
FE3C7F00
FFBCFF80
FFDFFF80
FFFFFF00
3FFFFE00
003E0000
007F0000
01FF8000
03F7C000
07E7F000
0FE3F800
1FC3F800
1FC1F800
1F81F800
1F80F800
07007000
ENDCHAR
STARTCHAR 002B
ENCODING 43
SWIDTH 552 0
DWIDTH 46 0
BBX 39 39 3 10
BITMAP
0000380000
00007C0000
00007E0000
0000FE0000
0000FE0000
0000FE0000
0000FE0000
0000FE0000
0000FE0000
0000FE0000
0000FE0000
0000FE0000
0000FE0000
0000FE0000
0000FE0000
0000FE0000
0000FE0000
7FFFFFFFFC
FFFFFFFFFE
FFFFFFFFFE
FFFFFFFFFE
7FFFFFFFFE
3FFFFFFFFC
0000FE0000
0000FE0000
0000FE0000
0000FE0000
0000FE0000
0000FE0000
0000FE0000
0000FE0000
0000FE0000
0000FE0000
0000FE0000
0000FE0000
0000FE0000
0000FE0000
00007E0000
00007C0000
ENDCHAR
STARTCHAR 002C
ENCODING 44
SWIDTH 228 0
DWIDTH 19 0
BBX 11 21 4 -14
BITMAP
3F00
7F80
FFC0
FFC0
FFC0
FFE0
7FE0
7FE0
3FE0
1FC0
0FC0
0FC0
0FC0
0F80
0F80
1F80
1F00
3F00
7E00
7C00
7800
ENDCHAR
STARTCHAR 002D
ENCODING 45
SWIDTH 396 0
DWIDTH 33 0
BBX 26 6 3 20
BITMAP
3FFFFF80
7FFFFFC0
FFFFFFC0
FFFFFFC0
FFFFFFC0
7FFFFF80
ENDCHAR
STARTCHAR 002E
ENCODING 46
SWIDTH 216 0
DWIDTH 18 0
BBX 10 9 4 -1
BITMAP
3F00
7F80
7F80
FFC0
FFC0
FFC0
7F80
7F80
3F00
ENDCHAR
STARTCHAR 002F
ENCODING 47
SWIDTH 468 0
DWIDTH 39 0
BBX 33 72 3 -7
BITMAP
0000000F00
0000001F00
0000003F80
0000003F80
0000003F80
0000007F00
0000007F00
000000FE00
000000FE00
000000FE00
000001FC00
000001FC00
000003F800
000003F800
000003F800
000007F000
000007F000
00000FE000
00000FE000
00001FC000
00001FC000
00001FC000
00003F8000
00003F8000
00007F0000
00007F0000
00007F0000
0000FE0000
0000FE0000
0001FE0000
0001FC0000
0001FC0000
0003F80000
0003F80000
0007F80000
0007F00000
0007F00000
000FE00000
000FE00000
001FC00000
001FC00000
001FC00000
003F800000
003F800000
007F000000
007F000000
007F000000
00FE000000
00FE000000
01FC000000
01FC000000
01FC000000
03F8000000
03F8000000
07F0000000
07F0000000
07F0000000
0FE0000000
0FE0000000
1FC0000000
1FC0000000
1FC0000000
3F80000000
3F80000000
7F00000000
7F00000000
7F00000000
FE00000000
FE00000000
FC00000000
7C00000000
1000000000
ENDCHAR
STARTCHAR 0030
ENCODING 48
SWIDTH 576 0
DWIDTH 48 0
BBX 39 65 4 0
BITMAP
0001FF8000
000FFFE000
001FFFF800
007FFFFC00
00FFFFFE00
01FFFFFF00
01FFC3FF80
03FE00FFC0
07FC003FC0
07F8001FE0
0FF0000FE0
0FE0000FF0
1FC00007F0
1FC00003F8
1FC00003F8
3F800003F8
3F800001FC
3F000001FC
7F000001FC
7F000000FC
7F000000FC
7F000000FE
7E000000FE
7E000000FE
7E000000FE
FE0000007E
FE0000007E
FE0000007E
FE0000007E
FE0000007E
FE0000007E
FE0000007E
FE0000007E
FE0000007E
FE0000007E
FE0000007E
FE0000007E
FE0000007E
FE0000007E
FE0000007E
7E000000FE
7E000000FE
7E000000FE
7F000000FE
7F000000FC
7F000000FC
3F000001FC
3F800001FC
3F800001F8
3F800003F8
1FC00003F8
1FC00007F8
1FE00007F0
0FE0000FF0
0FF0000FE0
07F8001FE0
07FC003FC0
03FE00FFC0
01FFFFFF80
00FFFFFF00
007FFFFE00
003FFFFC00
001FFFF800
0007FFE000
0001FF0000
ENDCHAR
STARTCHAR 0031
ENCODING 49
SWIDTH 384 0
DWIDTH 32 0
BBX 20 65 3 0
BITMAP
0001E0
000FF0
007FF0
03FFF0
1FFFF0
7FFFF0
7FFFF0
FFFFF0
FFE3F0
7F03F0
3803F0
0003F0
0003F0
0003F0
0003F0
0003F0
0003F0
0003F0
0003F0
0003F0
0003F0
0003F0
0003F0
0003F0
0003F0
0003F0
0003F0
0003F0
0003F0
0003F0
0003F0
0003F0
0003F0
0003F0
0003F0
0003F0
0003F0
0003F0
0003F0
0003F0
0003F0
0003F0
0003F0
0003F0
0003F0
0003F0
0003F0
0003F0
0003F0
0003F0
0003F0
0003F0
0003F0
0003F0
0003F0
0003F0
0003F0
0003F0
0003F0
0003F0
0003F0
0003F0
0003F0
0003F0
0001E0
ENDCHAR
STARTCHAR 0032
ENCODING 50
SWIDTH 576 0
DWIDTH 48 0
BBX 39 65 5 0
BITMAP
0003FF8000
001FFFE000
007FFFF800
00FFFFFE00
01FFFFFF00
03FFFFFF80
07FF01FFC0
0FFC007FE0
1FF0001FE0
1FE0000FF0
3FC00007F0
3F800007F8
3F800003F8
7F000003F8
7F000001F8
7E000001FC
7E000001FC
FE000000FC
FE000000FC
FE000000FC
7E000000FC
7C000001FC
18000001FC
00000001F8
00000003F8
00000003F8
00000007F0
00000007F0
0000000FE0
0000001FE0
0000003FC0
0000003F80
0000007F80
000000FF00
000001FE00
000003FC00
000007F800
00000FF000
00000FE000
00001FE000
00003FC000
00007F8000
0000FF0000
0001FE0000
0001FC0000
0003F80000
0007F80000
000FF00000
001FE00000
003FC00000
007F800000
007F000000
00FE000000
01FC000000
03FC000000
07F8000000
0FF0000000
0FE0000000
1FC0000000
3FFFFFFFFE
7FFFFFFFFE
7FFFFFFFFE
7FFFFFFFFE
7FFFFFFFFE
3FFFFFFFFC
ENDCHAR
STARTCHAR 0033
ENCODING 51
SWIDTH 588 0
DWIDTH 49 0
BBX 40 65 5 0
BITMAP
0003FFC000
001FFFF800
007FFFFC00
00FFFFFF00
01FFFFFF80
03FFE7FFC0
07FE007FC0
0FF8001FE0
0FE0000FF0
1FC00007F0
1FC00003F0
3F800003F8
3F800001F8
3F000001F8
3F000001F8
3F000001F8
3F000001F8
3F000001F8
1E000001F8
00000003F8
00000003F0
00000007F0
00000007E0
0000000FE0
0000003FC0
0000007F80
00000FFF00
00003FFE00
00007FF800
00007FF000
00007FFC00
00003FFF00
00001FFFC0
0000007FE0
0000001FF0
00000007F8
00000003F8
00000001FC
00000001FC
00000000FE
00000000FE
000000007E
000000007F
F80000007F
F80000007F
FC0000003F
FC0000003F
FC0000003F
FC0000007F
FC0000007F
FE0000007F
FE0000007E
7E000000FE
7F000000FE
7F800001FC
3FC00003FC
1FE00007F8
1FF0000FF0
0FFE007FF0
07FFFFFFE0
03FFFFFFC0
01FFFFFF00
007FFFFE00
001FFFF800
0003FFC000
ENDCHAR
STARTCHAR 0034
ENCODING 52
SWIDTH 648 0
DWIDTH 54 0
BBX 49 65 1 0
BITMAP
000000003C0000
000000003E0000
000000007F0000
00000000FF0000
00000001FF0000
00000001FF0000
00000003FF0000
00000007FF0000
0000000FFF0000
0000001FFF0000
0000001FFF0000
0000003FFF0000
0000007FFF0000
000000FF7F0000
000000FE7F0000
000001FC7F0000
000003FC7F0000
000007F87F0000
000007F07F0000
00000FE07F0000
00001FE07F0000
00003FC07F0000
00003F807F0000
00007F007F0000
0000FE007F0000
0001FE007F0000
0003FC007F0000
0003F8007F0000
0007F0007F0000
000FF0007F0000
001FE0007F0000
001FC0007F0000
003F80007F0000
007F80007F0000
00FF00007F0000
00FE00007F0000
01FC00007F0000
03F800007F0000
07F800007F0000
07F000007F0000
0FE000007F0000
1FC000007F0000
3FC000007F0000
7F8000007F0000
7FFFFFFFFFFF80
FFFFFFFFFFFF80
FFFFFFFFFFFF80
FFFFFFFFFFFF80
7FFFFFFFFFFF00
000000007F0000
000000007F0000
000000007F0000
000000007F0000
000000007F0000
000000007F0000
000000007F0000
000000007F0000
000000007F0000
000000007F0000
000000007F0000
000000007F0000
000000007F0000
000000007E0000
000000003E0000
000000001C0000
ENDCHAR
STARTCHAR 0035
ENCODING 53
SWIDTH 624 0
DWIDTH 52 0
BBX 43 65 5 0
BITMAP
07FFFFFFFC00
0FFFFFFFFE00
0FFFFFFFFE00
0FFFFFFFFE00
0FFFFFFFFE00
0FFFFFFFFC00
0FC000000000
0FC000000000
0FC000000000
0FC000000000
0FC000000000
0FC000000000
0FC000000000
0FC000000000
0FC000000000
0FC000000000
0FC000000000
0FC000000000
0FC000000000
0FC000000000
0FC000000000
0FC000000000
0FC000000000
0FFFFFF00000
0FFFFFFC0000
0FFFFFFF0000
0FFFFFFFC000
0FFFFFFFE000
07FFFFFFF000
0000007FF800
0000000FFC00
00000003FE00
00000001FF00
00000000FF00
000000007F80
000000003F80
000000003F80
000000001FC0
000000001FC0
000000000FC0
000000000FC0
7C0000000FE0
7E0000000FE0
FE0000000FE0
FE0000000FE0
FE0000000FE0
7E0000000FC0
7E0000000FC0
7F0000001FC0
7F0000001FC0
7F0000001FC0
3F8000003F80
3FC000007F80
1FC000007F00
1FE00000FF00
0FF00001FE00
0FFC0007FE00
07FF001FFC00
03FFFBFFF800
01FFFFFFF000
00FFFFFFE000
003FFFFFC000
001FFFFF0000
0007FFFC0000
00007FC00000
ENDCHAR
STARTCHAR 0036
ENCODING 54
SWIDTH 576 0
DWIDTH 48 0
BBX 39 65 5 0
BITMAP
000000F000
000000F800
000001FC00
000003FC00
000003F800
000007F800
00000FF000
00000FF000
00001FE000
00001FC000
00003FC000
00007F8000
00007F0000
0000FF0000
0000FE0000
0001FE0000
0003FC0000
0003F80000
0007F80000
0007F00000
000FF00000
001FE00000
001FC00000
003FC00000
003F800000
007F000000
00FFFF8000
00FFFFF000
01FFFFFC00
03FFFFFF00
03FFFFFF80
07FFFFFFC0
07FE00FFE0
0FF8001FF0
1FF0000FF0
1FE00007F8
3FC00003F8
3F800001FC
3F000000FC
7F000000FE
7E000000FE
7E0000007E
7E0000007E
FE0000007E
FE0000007E
FE0000007E
FE0000007E
FE0000007E
7E0000007E
7E0000007E
7E000000FE
7F000000FE
3F000001FC
3F800001FC
3FC00003F8
1FE00007F8
0FF0000FF0
0FF8003FF0
07FF00FFE0
03FFFFFFC0
01FFFFFF80
00FFFFFF00
003FFFFC00
000FFFF000
0001FF8000
ENDCHAR
STARTCHAR 0037
ENCODING 55
SWIDTH 564 0
DWIDTH 47 0
BBX 40 65 4 0
BITMAP
7FFFFFFFFE
FFFFFFFFFF
FFFFFFFFFF
FFFFFFFFFF
FFFFFFFFFF
7FFFFFFFFE
00000000FE
00000001FE
00000001FC
00000003FC
00000003F8
00000007F8
00000007F0
0000000FF0
0000000FE0
0000000FE0
0000001FC0
0000001FC0
0000003F80
0000003F80
0000007F00
0000007F00
000000FE00
000000FE00
000001FE00
000001FC00
000003FC00
000003F800
000007F800
000007F000
000007F000
00000FE000
00000FE000
00001FC000
00001FC000
00003F8000
00003F8000
00007F0000
00007F0000
0000FF0000
0000FE0000
0001FE0000
0001FC0000
0001FC0000
0003F80000
0003F80000
0007F00000
0007F00000
000FE00000
000FE00000
001FC00000
001FC00000
003F800000
003F800000
007F800000
007F000000
00FF000000
00FE000000
00FE000000
01FC000000
01FC000000
03F8000000
03F8000000
01F0000000
00E0000000
ENDCHAR
STARTCHAR 0038
ENCODING 56
SWIDTH 588 0
DWIDTH 49 0
BBX 39 65 5 0
BITMAP
0001FF8000
000FFFE000
003FFFF800
007FFFFC00
00FFFFFF00
01FFFFFF00
03FF00FF80
03FC003FC0
07F8001FC0
07F0000FE0
0FE0000FE0
0FE00007E0
0FC00007E0
0FC00007F0
0FC00003F0
0FC00003F0
0FC00007F0
0FC00007F0
0FC00007E0
0FE00007E0
0FE0000FE0
07F0000FE0
07F0001FC0
03F8003FC0
03FE007F80
01FF83FF00
00FFFFFE00
007FFFFC00
003FFFF800
00FFFFFE00
01FFFFFF00
03FFFFFF80
07FF01FFC0
0FFC003FE0
1FF0001FF0
1FE00007F8
3FC00003F8
3F800003FC
7F000001FC
7F000001FC
7F000000FE
7E000000FE
FE000000FE
FE0000007E
FE0000007E
FE0000007E
FE0000007E
FE000000FE
FE000000FE
7E000000FE
7E000000FE
7F000001FC
7F000001FC
3F800003FC
3FC00003F8
1FC00007F8
1FE0000FF0
0FF8003FE0
07FE007FE0
03FFFFFFC0
01FFFFFF80
00FFFFFE00
007FFFFC00
001FFFF000
0003FFC000
ENDCHAR
STARTCHAR 0039
ENCODING 57
SWIDTH 576 0
DWIDTH 48 0
BBX 39 65 4 0
BITMAP
0003FF0000
001FFFE000
007FFFF800
01FFFFFE00
03FFFFFF00
07FFFFFF80
0FFE01FFC0
1FF8003FE0
1FE0001FF0
3FC00007F0
3F800003F8
7F000003F8
7F000001FC
7E000001FC
FE000000FC
FC000000FC
FC000000FE
FC0000007E
FC0000007E
FC0000007E
FC0000007E
FC000000FE
FC000000FE
FC000000FC
FE000000FC
7E000001FC
7F000001FC
7F000003F8
3F800007F8
3FC0000FF0
1FE0001FF0
0FF8003FE0
0FFE01FFC0
07FFFFFFC0
03FFFFFF80
00FFFFFF80
007FFFFF00
001FFFFE00
0003FFFE00
000001FC00
000003FC00
000007F800
000007F000
00000FF000
00001FE000
00001FE000
00003FC000
00003F8000
00007F8000
0000FF0000
0000FE0000
0001FE0000
0001FC0000
0003FC0000
0007F80000
0007F00000
000FF00000
000FE00000
001FE00000
003FC00000
003F800000
003F800000
003F000000
003F000000
001E000000
ENDCHAR
STARTCHAR 003A
ENCODING 58
SWIDTH 192 0
DWIDTH 16 0
BBX 9 46 3 -1
BITMAP
3E00
7F00
FF80
FF80
FF80
FF80
FF80
FF00
7F00
0800
0000
0000
0000
0000
0000
0000
0000
0000
0000
0000
0000
0000
0000
0000
0000
0000
0000
0000
0000
0000
0000
0000
0000
0000
0000
0000
0000
3E00
7F00
FF80
FF80
FF80
FF80
FF80
7F00
3E00
ENDCHAR
STARTCHAR 003B
ENCODING 59
SWIDTH 204 0
DWIDTH 17 0
BBX 12 58 3 -14
BITMAP
3E00
7F00
FF80
FF80
FF80
FF80
FF80
7F80
7F00
0C00
0000
0000
0000
0000
0000
0000
0000
0000
0000
0000
0000
0000
0000
0000
0000
0000
0000
0000
0000
0000
0000
0000
0000
0000
0000
0000
0000
1F80
3FC0
7FE0
7FE0
7FE0
7FF0
3FF0
3FF0
1FF0
0FE0
07E0
07E0
07E0
07C0
07C0
0FC0
0F80
1F80
3F00
3E00
3C00
ENDCHAR
STARTCHAR 003C
ENCODING 60
SWIDTH 552 0
DWIDTH 46 0
BBX 39 46 3 7
BITMAP
000000003C
00000000FE
00000001FE
00000007FE
0000001FFE
0000003FFC
000000FFF0
000003FFE0
000007FF80
00001FFE00
00007FFC00
0000FFF000
0003FFC000
000FFF8000
001FFE0000
007FF80000
01FFF00000
03FFC00000
0FFF000000
3FFE000000
7FF8000000
FFE0000000
FFC0000000
FFE0000000
7FF8000000
3FFC000000
1FFF000000
07FFC00000
01FFE00000
00FFF80000
003FFE0000
000FFF0000
0007FFC000
0001FFF000
00007FF800
00003FFE00
00000FFF80
000003FFC0
000001FFF0
0000007FFC
0000001FFE
0000000FFE
00000003FE
00000000FE
000000007C
0000000008
ENDCHAR
STARTCHAR 003D
ENCODING 61
SWIDTH 504 0
DWIDTH 42 0
BBX 36 26 3 16
BITMAP
7FFFFFFFE0
7FFFFFFFF0
FFFFFFFFF0
FFFFFFFFF0
7FFFFFFFF0
7FFFFFFFE0
0000000000
0000000000
0000000000
0000000000
0000000000
0000000000
0000000000
0000000000
0000000000
0000000000
0000000000
0000000000
0000000000
3FFFFFFFC0
7FFFFFFFE0
FFFFFFFFF0
FFFFFFFFF0
FFFFFFFFF0
7FFFFFFFE0
3FFFFFFFC0
ENDCHAR
STARTCHAR 003E
ENCODING 62
SWIDTH 552 0
DWIDTH 46 0
BBX 39 46 3 7
BITMAP
7800000000
7E00000000
FF80000000
FFC0000000
7FF0000000
7FFC000000
1FFE000000
07FF800000
03FFE00000
00FFF00000
003FFC0000
001FFF0000
0007FF8000
0001FFE000
0000FFF800
00003FFC00
00000FFF00
000003FFC0
000001FFE0
0000007FF8
0000001FFC
0000000FFE
00000003FE
00000007FE
0000001FFE
0000007FFC
000001FFF0
000003FFC0
00000FFF80
00003FFE00
00007FF800
0001FFF000
0007FFC000
000FFF0000
003FFE0000
00FFF80000
01FFE00000
07FFC00000
1FFF000000
3FFC000000
7FF8000000
FFE0000000
FF80000000
FF00000000
7C00000000
1000000000
ENDCHAR
STARTCHAR 003F
ENCODING 63
SWIDTH 552 0
DWIDTH 46 0
BBX 39 66 3 0
BITMAP
0003FFC000
001FFFF800
007FFFFE00
01FFFFFF00
03FFFFFF80
07FFFFFFE0
0FFE007FE0
0FF8001FF0
1FE0000FF8
3FC00003F8
3F800003FC
3F800001FC
7F000000FC
7F000000FE
7E000000FE
FE0000007E
FE0000007E
FE0000007E
FE0000007E
FE0000007E
7C0000007E
7C000000FE
00000000FE
00000000FC
00000001FC
00000001FC
00000003F8
00000007F8
0000000FF0
0000000FE0
0000001FC0
0000007FC0
000000FF80
000001FF00
000003FE00
000007F800
000007F000
00000FE000
00001FC000
00001F8000
00003F8000
00003F0000
00007F0000
00007F0000
00007E0000
00007E0000
00007E0000
0000FE0000
00007E0000
00007E0000
00003C0000
0000000000
0000000000
0000000000
0000000000
0000000000
0000180000
0000FE0000
0000FF0000
0001FF0000
0001FF8000
0001FF8000
0001FF0000
0001FF0000
0000FE0000
00003C0000
ENDCHAR
STARTCHAR 0040
ENCODING 64
SWIDTH 1092 0
DWIDTH 91 0
BBX 85 84 3 -19
BITMAP
000000001FFFC000000000
00000003FFFFFE00000000
0000001FFFFFFFC0000000
000000FFFFFFFFF8000000
000003FFFFFFFFFE000000
00000FFFFFFFFFFF800000
00001FFFFF87FFFFC00000
00007FFF80000FFFF00000
0000FFFC000000FFF80000
0001FFE00000003FFE0000
0003FF800000000FFF0000
000FFE0000000003FF8000
000FFC0000000000FFC000
001FF000000000007FE000
003FE000000000003FF000
007FC000000000001FF000
00FF8000000000000FF800
01FF00000000000007FC00
01FE00000000000003FC00
03FC00000070000001FE00
03F800001FFFC00000FF00
07F80000FFFFF80000FF00
07F00003FFFFFE00007F80
0FF00007FFFFFF00003F80
0FE0000FFFFFFFC0003FC0
1FE0001FFFFFFFE0001FC0
1FC0003FFC01FFF0001FC0
1FC0007FE0003FF8000FE0
3F8000FF80000FF8000FE0
3F8001FF000007FC000FE0
3F8001FE000003FE0007E0
3F0003FC000001FE0007F0
7F0003F8000000FF0007F0
7F0007F80000007F0007F0
7F0007F00000007F0003F0
7E0007F00000003F8003F0
7E000FE00000003F8003F8
7E000FE00000003F8003F8
7E000FE00000001F8003F8
FE000FE00000001F8003F8
FE000FC00000001F8003F8
FE000FC00000001F8003F8
FE000FC00000001F8003F8
FE000FC00000001F8003F8
FE000FE00000001F8003F8
FE000FE00000001F8003F8
7E000FE00000003F8003F8
7E000FE00000003F8003F8
7E0007E00000003F8003F0
7F0007F00000007F8003F0
7F0007F00000007F8003F0
7F0003F8000000FF8007F0
7F0003FC000000FF8007F0
3F0003FE000001FF8007E0
3F8001FF000003FF800FE0
3F8000FF80000FFF800FE0
1FC000FFC0001FFF800FE0
1FC0007FF800FFDF801FC0
1FC0003FFFFFFF9FC03FC0
0FE0001FFFFFFF1FC03F80
0FE0000FFFFFFE1FC07F80
0FF00003FFFFF81FF3FF00
07F80000FFFFF00FFFFE00
07F800003FFFC00FFFFC00
03FC000007FC0007FFFC00
01FE000000000007FFF000
01FF000000000001FFE000
00FF0000000000007F8000
007F800000000000000000
007FE00000000000000000
003FF00000000000000000
001FF80000000000000000
000FFE0000000000000000
0007FF0000000000000000
0003FFC000000038000000
0000FFF8000000FC000000
00007FFF000007FC000000
00003FFFF800FFFC000000
00000FFFFFFFFFFC000000
000003FFFFFFFFF8000000
000000FFFFFFFFF0000000
0000003FFFFFFFE0000000
00000007FFFFFF00000000
000000007FFFF000000000
ENDCHAR
STARTCHAR 0041
ENCODING 65
SWIDTH 708 0
DWIDTH 59 0
BBX 55 65 2 0
BITMAP
00000038000000
0000007C000000
000000FE000000
000000FE000000
000001FF000000
000001FF000000
000003FF000000
000003FF800000
000003FF800000
000007FFC00000
000007FFC00000
00000FEFE00000
00000FEFE00000
00000FC7E00000
00001FC7F00000
00001F83F00000
00003F83F80000
00003F83F80000
00007F01F80000
00007F01FC0000
00007E00FC0000
0000FE00FE0000
0000FE00FE0000
0001FC007F0000
0001FC007F0000
0003F8003F0000
0003F8003F8000
0003F0001F8000
0007F0001FC000
0007F0001FC000
000FE0000FE000
000FE0000FE000
000FC00007E000
001FC00007F000
001FC00007F000
003F800003F800
003F800003F800
007F000001F800
007F000001FC00
007E000001FC00
00FE000000FE00
00FE000000FE00
01FC0000007F00
01FC0000007F00
03FFFFFFFFFF00
03FFFFFFFFFF80
03FFFFFFFFFF80
07FFFFFFFFFFC0
07FFFFFFFFFFC0
0FFFFFFFFFFFE0
0FE00000000FE0
0FE00000000FE0
1FC000000007F0
1FC000000007F0
3F8000000003F8
3F8000000003F8
7F0000000003FC
7F0000000001FC
7F0000000001FC
FE0000000000FE
FE0000000000FE
FC00000000007E
FC00000000007E
FC00000000007E
7800000000003C
ENDCHAR
STARTCHAR 0042
ENCODING 66
SWIDTH 696 0
DWIDTH 58 0
BBX 45 65 8 0
BITMAP
3FFFFFF80000
7FFFFFFF0000
FFFFFFFFC000
FFFFFFFFE000
FFFFFFFFF000
FFFFFFFFF800
FE00001FFC00
FE000003FE00
FE000000FF00
FE0000007F00
FE0000003F80
FE0000003F80
FE0000001F80
FE0000001F80
FE0000001FC0
FE0000001FC0
FE0000001FC0
FE0000001FC0
FE0000001F80
FE0000001F80
FE0000001F80
FE0000003F80
FE0000003F00
FE0000007F00
FE000000FE00
FE000003FC00
FE00000FF800
FFFFFFFFF000
FFFFFFFFE000
FFFFFFFF8000
FFFFFFFFE000
FFFFFFFFF800
FFFFFFFFFE00
FE00001FFF00
FE000001FF80
FE0000007FC0
FE0000001FE0
FE0000000FE0
FE00000007F0
FE00000007F0
FE00000003F8
FE00000003F8
FE00000003F8
FE00000001F8
FE00000001F8
FE00000001F8
FE00000001F8
FE00000001F8
FE00000001F8
FE00000003F8
FE00000003F8
FE00000003F8
FE00000007F0
FE00000007F0
FE0000000FE0
FE0000001FE0
FE0000007FC0
FE000000FFC0
FE00000FFF80
FFFFFFFFFF00
FFFFFFFFFE00
FFFFFFFFF800
FFFFFFFFF000
7FFFFFFFC000
3FFFFFFC0000
ENDCHAR
STARTCHAR 0043
ENCODING 67
SWIDTH 768 0
DWIDTH 64 0
BBX 54 67 5 -1
BITMAP
0000001FFC0000
000001FFFFC000
00000FFFFFF800
00003FFFFFFE00
0000FFFFFFFF80
0001FFFFFFFFC0
0007FFF80FFFF0
000FFF80007FF8
001FFC00000FFC
003FF0000007FC
007FE0000001FC
00FF80000000F8
01FF0000000030
01FE0000000000
03FC0000000000
07F80000000000
07F00000000000
0FF00000000000
0FE00000000000
1FC00000000000
1FC00000000000
3F800000000000
3F800000000000
3F000000000000
7F000000000000
7F000000000000
7E000000000000
7E000000000000
FE000000000000
FE000000000000
FE000000000000
FE000000000000
FC000000000000
FC000000000000
FE000000000000
FE000000000000
FE000000000000
FE000000000000
7E000000000000
7E000000000000
7E000000000000
7F000000000000
7F000000000000
3F000000000000
3F800000000000
3F800000000000
1FC00000000000
1FC00000000000
0FE00000000000
0FE00000000000
07F00000000000
07F80000000000
03FC0000000000
01FE0000000000
01FF0000000030
00FF80000000F8
007FE0000001FC
003FF0000007FC
001FFC00001FFC
000FFF8000FFF8
0007FFFC1FFFF0
0001FFFFFFFFE0
0000FFFFFFFF80
00003FFFFFFF00
000007FFFFF800
000000FFFFE000
0000000FF80000
ENDCHAR
STARTCHAR 0044
ENCODING 68
SWIDTH 768 0
DWIDTH 64 0
BBX 51 65 8 0
BITMAP
3FFFFF80000000
7FFFFFF8000000
FFFFFFFF000000
FFFFFFFFC00000
FFFFFFFFF00000
FFFFFFFFFC0000
FE00007FFE0000
FE00000FFF0000
FE000001FF8000
FE0000007FC000
FE0000003FE000
FE0000001FF000
FE00000007F800
FE00000003FC00
FE00000003FC00
FE00000001FE00
FE00000000FE00
FE000000007F00
FE000000007F00
FE000000003F80
FE000000003F80
FE000000001F80
FE000000001FC0
FE000000001FC0
FE000000000FC0
FE000000000FC0
FE000000000FE0
FE000000000FE0
FE000000000FE0
FE000000000FE0
FE0000000007E0
FE0000000007E0
FE0000000007E0
FE0000000007E0
FE0000000007E0
FE000000000FE0
FE000000000FE0
FE000000000FE0
FE000000000FE0
FE000000000FC0
FE000000000FC0
FE000000001FC0
FE000000001FC0
FE000000001F80
FE000000003F80
FE000000003F80
FE000000007F00
FE000000007F00
FE00000000FE00
FE00000001FE00
FE00000003FC00
FE00000007FC00
FE0000000FF800
FE0000001FF000
FE0000003FE000
FE000000FFC000
FE000001FF8000
FE00000FFF0000
FE00007FFE0000
FFFFFFFFFC0000
FFFFFFFFF00000
FFFFFFFFC00000
FFFFFFFF000000
7FFFFFF8000000
3FFFFF80000000
ENDCHAR
STARTCHAR 0045
ENCODING 69
SWIDTH 696 0
DWIDTH 58 0
BBX 46 65 8 0
BITMAP
3FFFFFFFFFF8
7FFFFFFFFFF8
FFFFFFFFFFFC
FFFFFFFFFFFC
FFFFFFFFFFFC
FFFFFFFFFFF8
FE0000000000
FE0000000000
FE0000000000
FE0000000000
FE0000000000
FE0000000000
FE0000000000
FE0000000000
FE0000000000
FE0000000000
FE0000000000
FE0000000000
FE0000000000
FE0000000000
FE0000000000
FE0000000000
FE0000000000
FE0000000000
FE0000000000
FE0000000000
FE0000000000
FE0000000000
FE0000000000
FFFFFFFFC000
FFFFFFFFF000
FFFFFFFFF000
FFFFFFFFF000
FFFFFFFFF000
FFFFFFFFE000
FFFFFFFF8000
FE0000000000
FE0000000000
FE0000000000
FE0000000000
FE0000000000
FE0000000000
FE0000000000
FE0000000000
FE0000000000
FE0000000000
FE0000000000
FE0000000000
FE0000000000
FE0000000000
FE0000000000
FE0000000000
FE0000000000
FE0000000000
FE0000000000
FE0000000000
FE0000000000
FE0000000000
FE0000000000
FFFFFFFFFFF8
FFFFFFFFFFFC
FFFFFFFFFFFC
FFFFFFFFFFFC
7FFFFFFFFFF8
3FFFFFFFFFF0
ENDCHAR
STARTCHAR 0046
ENCODING 70
SWIDTH 624 0
DWIDTH 52 0
BBX 46 65 3 0
BITMAP
7FFFFFFFFFF0
7FFFFFFFFFF8
FFFFFFFFFFFC
FFFFFFFFFFFC
FFFFFFFFFFF8
FFFFFFFFFFF8
FE0000000000
FE0000000000
FE0000000000
FE0000000000
FE0000000000
FE0000000000
FE0000000000
FE0000000000
FE0000000000
FE0000000000
FE0000000000
FE0000000000
FE0000000000
FE0000000000
FE0000000000
FE0000000000
FE0000000000
FE0000000000
FE0000000000
FE0000000000
FE0000000000
FE0000000000
FE0000000000
FFFFFFFFC000
FFFFFFFFE000
FFFFFFFFF000
FFFFFFFFF000
FFFFFFFFF000
FFFFFFFFE000
FFFFFFFF8000
FE0000000000
FE0000000000
FE0000000000
FE0000000000
FE0000000000
FE0000000000
FE0000000000
FE0000000000
FE0000000000
FE0000000000
FE0000000000
FE0000000000
FE0000000000
FE0000000000
FE0000000000
FE0000000000
FE0000000000
FE0000000000
FE0000000000
FE0000000000
FE0000000000
FE0000000000
FE0000000000
FE0000000000
FE0000000000
FE0000000000
FE0000000000
7C0000000000
380000000000
ENDCHAR
STARTCHAR 0047
ENCODING 71
SWIDTH 768 0
DWIDTH 64 0
BBX 54 67 5 -1
BITMAP
0000001FFC0000
000001FFFFC000
00000FFFFFF800
00003FFFFFFE00
0000FFFFFFFF80
0001FFFFFFFFC0
0007FFF80FFFF0
000FFF80007FF8
001FFC00000FFC
003FF0000007FC
007FE0000001FC
00FF80000000F8
01FF0000000020
01FE0000000000
03FC0000000000
07F80000000000
07F00000000000
0FF00000000000
0FE00000000000
1FC00000000000
1FC00000000000
3F800000000000
3F800000000000
3F000000000000
7F000000000000
7F000000000000
7E000000000000
7E000000000000
FE000000000000
FE000000000000
FE000000000000
FE000000000000
FC000000000000
FC000000000000
FE000000FFFFF8
FE000001FFFFFC
FE000001FFFFFC
FE000000FFFFFC
7E000000FFFFFC
7E0000000000FC
7E0000000000FC
7F0000000000FC
7F0000000000FC
3F0000000000FC
3F8000000000FC
3F8000000000FC
1FC000000000FC
1FC000000000FC
0FE000000000FC
0FE000000000FC
07F000000000FC
07F800000000FC
03FC00000000FC
01FE00000000FC
01FF00000000FC
00FF80000000FC
007FE0000001FC
003FF0000007FC
001FFC00001FFC
000FFF8000FFF8
0007FFFC1FFFF0
0001FFFFFFFFE0
0000FFFFFFFF80
00003FFFFFFF00
000007FFFFFC00
000000FFFFE000
0000000FFC0000
ENDCHAR
STARTCHAR 0048
ENCODING 72
SWIDTH 840 0
DWIDTH 70 0
BBX 54 65 8 0
BITMAP
38000000000078
7C0000000000FC
FE0000000000FC
FE0000000001FC
FE0000000001FC
FE0000000001FC
FE0000000001FC
FE0000000001FC
FE0000000001FC
FE0000000001FC
FE0000000001FC
FE0000000001FC
FE0000000001FC
FE0000000001FC
FE0000000001FC
FE0000000001FC
FE0000000001FC
FE0000000001FC
FE0000000001FC
FE0000000001FC
FE0000000001FC
FE0000000001FC
FE0000000001FC
FE0000000001FC
FE0000000001FC
FE0000000001FC
FE0000000001FC
FE0000000001FC
FE0000000001FC
FFFFFFFFFFFFFC
FFFFFFFFFFFFFC
FFFFFFFFFFFFFC
FFFFFFFFFFFFFC
FFFFFFFFFFFFFC
FFFFFFFFFFFFFC
FE0000000001FC
FE0000000001FC
FE0000000001FC
FE0000000001FC
FE0000000001FC
FE0000000001FC
FE0000000001FC
FE0000000001FC
FE0000000001FC
FE0000000001FC
FE0000000001FC
FE0000000001FC
FE0000000001FC
FE0000000001FC
FE0000000001FC
FE0000000001FC
FE0000000001FC
FE0000000001FC
FE0000000001FC
FE0000000001FC
FE0000000001FC
FE0000000001FC
FE0000000001FC
FE0000000001FC
FE0000000001FC
FE0000000001FC
FE0000000001FC
FE0000000000FC
7C0000000000F8
38000000000078
ENDCHAR
STARTCHAR 0049
ENCODING 73
SWIDTH 276 0
DWIDTH 23 0
BBX 7 65 8 0
BITMAP
38
7C
FE
FE
FE
FE
FE
FE
FE
FE
FE
FE
FE
FE
FE
FE
FE
FE
FE
FE
FE
FE
FE
FE
FE
FE
FE
FE
FE
FE
FE
FE
FE
FE
FE
FE
FE
FE
FE
FE
FE
FE
FE
FE
FE
FE
FE
FE
FE
FE
FE
FE
FE
FE
FE
FE
FE
FE
FE
FE
FE
FE
FE
7C
38
ENDCHAR
STARTCHAR 004A
ENCODING 74
SWIDTH 612 0
DWIDTH 51 0
BBX 39 66 4 -1
BITMAP
0000000038
000000007C
00000000FE
00000000FE
00000000FE
00000000FE
00000000FE
00000000FE
00000000FE
00000000FE
00000000FE
00000000FE
00000000FE
00000000FE
00000000FE
00000000FE
00000000FE
00000000FE
00000000FE
00000000FE
00000000FE
00000000FE
00000000FE
00000000FE
00000000FE
00000000FE
00000000FE
00000000FE
00000000FE
00000000FE
00000000FE
00000000FE
00000000FE
00000000FE
00000000FE
00000000FE
00000000FE
00000000FE
00000000FE
00000000FE
00000000FE
00000000FE
00000000FE
78000000FE
FC000000FE
FC000000FE
FC000000FE
FC000000FE
FC000000FE
FE000000FE
FE000000FC
FE000001FC
7F000001FC
7F000003FC
7F800003F8
3FC00007F8
3FE0000FF0
1FF0003FE0
0FFC007FE0
07FF87FFC0
03FFFFFF80
01FFFFFF00
00FFFFFC00
003FFFF800
000FFFE000
0000FE0000
ENDCHAR
STARTCHAR 004B
ENCODING 75
SWIDTH 660 0
DWIDTH 55 0
BBX 43 65 8 0
BITMAP
3800000003C0
7C00000007E0
FE0000000FE0
FE0000001FE0
FE0000003FC0
FE0000007FC0
FE000000FF80
FE000001FF00
FE000003FE00
FE000007FC00
FE00000FF800
FE00001FF000
FE00003FE000
FE00007FC000
FE0000FF8000
FE0001FF0000
FE0003FE0000
FE0007FC0000
FE000FF80000
FE001FF00000
FE003FE00000
FE007FC00000
FE00FF800000
FE01FF000000
FE03FE000000
FE07FC000000
FE0FF8000000
FE1FF0000000
FE3FE0000000
FE7FF0000000
FEFFF8000000
FFFFF8000000
FFFFFC000000
FFFDFE000000
FFF9FE000000
FFF0FF000000
FFE07F800000
FFC03FC00000
FF803FC00000
FF001FE00000
FE000FF00000
FE0007F80000
FE0007F80000
FE0003FC0000
FE0001FE0000
FE0000FE0000
FE0000FF0000
FE00007F8000
FE00003FC000
FE00003FC000
FE00001FE000
FE00000FF000
FE000007F800
FE000007F800
FE000003FC00
FE000001FE00
FE000000FF00
FE000000FF00
FE0000007F80
FE0000003FC0
FE0000001FC0
FE0000001FE0
FE0000000FE0
7C00000007C0
380000000380
ENDCHAR
STARTCHAR 004C
ENCODING 76
SWIDTH 636 0
DWIDTH 53 0
BBX 43 65 8 0
BITMAP
380000000000
7C0000000000
FE0000000000
FE0000000000
FE0000000000
FE0000000000
FE0000000000
FE0000000000
FE0000000000
FE0000000000
FE0000000000
FE0000000000
FE0000000000
FE0000000000
FE0000000000
FE0000000000
FE0000000000
FE0000000000
FE0000000000
FE0000000000
FE0000000000
FE0000000000
FE0000000000
FE0000000000
FE0000000000
FE0000000000
FE0000000000
FE0000000000
FE0000000000
FE0000000000
FE0000000000
FE0000000000
FE0000000000
FE0000000000
FE0000000000
FE0000000000
FE0000000000
FE0000000000
FE0000000000
FE0000000000
FE0000000000
FE0000000000
FE0000000000
FE0000000000
FE0000000000
FE0000000000
FE0000000000
FE0000000000
FE0000000000
FE0000000000
FE0000000000
FE0000000000
FE0000000000
FE0000000000
FE0000000000
FE0000000000
FE0000000000
FE0000000000
FE0000000000
FFFFFFFFFF80
FFFFFFFFFFC0
FFFFFFFFFFE0
FFFFFFFFFFE0
7FFFFFFFFFC0
3FFFFFFFFF80
ENDCHAR
STARTCHAR 004D
ENCODING 77
SWIDTH 984 0
DWIDTH 82 0
BBX 65 65 8 0
BITMAP
380000000000000F00
7C0000000000001F80
FE0000000000001F80
FE0000000000003F80
FF0000000000003F80
FF0000000000007F80
FF8000000000007F80
FF800000000000FF80
FFC00000000000FF80
FFC00000000001FF80
FFE00000000001FF80
FFE00000000003FF80
FFF00000000003FF80
FFF00000000007FF80
FFF80000000007FF80
FFF8000000000FDF80
FFFC000000000FDF80
FEFE000000001F9F80
FEFE000000001F9F80
FE7F000000003F9F80
FE7F000000003F1F80
FE3F800000007F1F80
FE3F800000007E1F80
FE1FC00000007E1F80
FE1FC0000000FC1F80
FE0FE0000000FC1F80
FE0FE0000001F81F80
FE07F0000001F81F80
FE07F0000003F01F80
FE03F8000003F01F80
FE03F8000007E01F80
FE01FC000007E01F80
FE01FC00000FC01F80
FE00FE00000FC01F80
FE00FE00001F801F80
FE007F00001F801F80
FE007F00003F001F80
FE003F80003F001F80
FE003F80007E001F80
FE001FC0007E001F80
FE001FC000FC001F80
FE000FE000FC001F80
FE000FE001F8001F80
FE0007F001F8001F80
FE0007F003F0001F80
FE0003F803F0001F80
FE0003F807E0001F80
FE0001FC07E0001F80
FE0001FC0FC0001F80
FE0000FE0FC0001F80
FE0000FE1F80001F80
FE00007F1F80001F80
FE00007F3F00001F80
FE00003FBF00001F80
FE00003FFE00001F80
FE00001FFE00001F80
FE00001FFC00001F80
FE00000FFC00001F80
FE00000FF800001F80
FE000007F800001F80
FE000007F000001F80
FE000003F000001F80
FE000003E000001F80
7C0000008000001F80
380000000000000F00
ENDCHAR
STARTCHAR 004E
ENCODING 78
SWIDTH 828 0
DWIDTH 69 0
BBX 52 65 8 0
BITMAP
380000000001E0
7C0000000003F0
FE0000000003F0
FF0000000003F0
FF8000000003F0
FF8000000003F0
FFC000000003F0
FFE000000003F0
FFF000000003F0
FFF000000003F0
FFF800000003F0
FFFC00000003F0
FEFE00000003F0
FEFF00000003F0
FE7F00000003F0
FE3F80000003F0
FE1FC0000003F0
FE1FE0000003F0
FE0FE0000003F0
FE07F0000003F0
FE03F8000003F0
FE03FC000003F0
FE01FC000003F0
FE00FE000003F0
FE007F000003F0
FE007F800003F0
FE003F800003F0
FE001FC00003F0
FE000FE00003F0
FE000FF00003F0
FE0007F00003F0
FE0003F80003F0
FE0001FC0003F0
FE0000FE0003F0
FE0000FF0003F0
FE00007F0003F0
FE00003F8003F0
FE00001FC003F0
FE00001FE003F0
FE00000FE003F0
FE000007F003F0
FE000003F803F0
FE000003FC03F0
FE000001FC03F0
FE000000FE03F0
FE0000007F03F0
FE0000007F83F0
FE0000003F83F0
FE0000001FC3F0
FE0000000FE3F0
FE0000000FF3F0
FE00000007F3F0
FE00000003FBF0
FE00000001FFF0
FE00000000FFF0
FE00000000FFF0
FE000000007FF0
FE000000003FF0
FE000000001FF0
FE000000001FF0
FE000000000FF0
FE0000000007F0
FE0000000003F0
7C0000000003F0
380000000001E0
ENDCHAR
STARTCHAR 004F
ENCODING 79
SWIDTH 924 0
DWIDTH 77 0
BBX 67 67 5 -1
BITMAP
0000000FFE00000000
000001FFFFE0000000
00000FFFFFFC000000
00003FFFFFFF800000
0000FFFFFFFFC00000
0001FFFFFFFFF00000
0007FFFC07FFFC0000
000FFF80003FFE0000
001FFC000007FF0000
003FF0000003FF8000
007FE0000000FFC000
00FF800000003FE000
01FF000000001FF000
03FE000000000FF000
03FC0000000007F800
07F80000000003FC00
0FF00000000001FC00
0FE00000000001FE00
1FE00000000000FE00
1FC000000000007F00
3F8000000000007F00
3F8000000000003F80
3F8000000000003F80
7F0000000000003F80
7F0000000000001FC0
7F0000000000001FC0
7E0000000000001FC0
7E0000000000000FC0
FE0000000000000FC0
FE0000000000000FC0
FE0000000000000FE0
FE0000000000000FE0
FC0000000000000FE0
FC0000000000000FE0
FC0000000000000FE0
FE0000000000000FE0
FE0000000000000FE0
FE0000000000000FC0
FE0000000000000FC0
7E0000000000000FC0
7E0000000000001FC0
7F0000000000001FC0
7F0000000000001FC0
3F0000000000003F80
3F8000000000003F80
3F8000000000003F80
1FC000000000007F00
1FC000000000007F00
1FE00000000000FE00
0FE00000000001FE00
0FF00000000001FC00
07F80000000003FC00
03FC0000000007F800
03FE000000000FF000
01FF000000001FF000
00FF800000003FE000
007FE0000000FFC000
003FF0000003FF8000
001FFC00000FFF0000
000FFF80007FFE0000
0007FFFC0FFFFC0000
0001FFFFFFFFF00000
0000FFFFFFFFE00000
00003FFFFFFF800000
000007FFFFFC000000
000000FFFFE0000000
00000007FC00000000
ENDCHAR
STARTCHAR 0050
ENCODING 80
SWIDTH 612 0
DWIDTH 51 0
BBX 41 65 8 0
BITMAP
3FFFFF800000
7FFFFFF80000
FFFFFFFE0000
FFFFFFFF8000
FFFFFFFFC000
FFFFFFFFE000
FE0000FFF000
FE00001FF800
FE000007FC00
FE000003FC00
FE000001FE00
FE000000FE00
FE000000FF00
FE0000007F00
FE0000003F00
FE0000003F80
FE0000003F80
FE0000001F80
FE0000001F80
FE0000001F80
FE0000001F80
FE0000001F80
FE0000001F80
FE0000001F80
FE0000001F80
FE0000003F80
FE0000003F80
FE0000003F00
FE0000007F00
FE0000007F00
FE000000FE00
FE000001FE00
FE000003FC00
FE00000FFC00
FE00001FF800
FE0001FFF000
FFFFFFFFE000
FFFFFFFFC000
FFFFFFFF8000
FFFFFFFE0000
FFFFFFF80000
FFFFFF800000
FE0000000000
FE0000000000
FE0000000000
FE0000000000
FE0000000000
FE0000000000
FE0000000000
FE0000000000
FE0000000000
FE0000000000
FE0000000000
FE0000000000
FE0000000000
FE0000000000
FE0000000000
FE0000000000
FE0000000000
FE0000000000
FE0000000000
FE0000000000
FE0000000000
7C0000000000
380000000000
ENDCHAR
STARTCHAR 0051
ENCODING 81
SWIDTH 924 0
DWIDTH 77 0
BBX 67 67 5 -1
BITMAP
0000000FFE00000000
000001FFFFE0000000
00000FFFFFFC000000
00003FFFFFFF800000
0000FFFFFFFFC00000
0001FFFFFFFFF00000
0007FFFC07FFFC0000
000FFF80003FFE0000
001FFC000007FF0000
003FF0000003FF8000
007FE0000000FFC000
00FF800000003FE000
01FF000000001FF000
03FE000000000FF000
03FC0000000007F800
07F80000000003FC00
0FF00000000001FC00
0FE00000000001FE00
1FE00000000000FE00
1FC000000000007F00
3F8000000000007F00
3F8000000000003F80
3F8000000000003F80
7F0000000000003F80
7F0000000000001FC0
7F0000000000001FC0
7E0000000000001FC0
7E0000000000000FC0
FE0000000000000FC0
FE0000000000000FC0
FE0000000000000FE0
FE0000000000000FE0
FC0000000000000FE0
FC0000000000000FE0
FC0000000000000FE0
FE0000000000000FE0
FE0000000000000FE0
FE0000000000000FC0
FE0000000000000FC0
7E0000000000000FC0
7E0000000000001FC0
7F0000000000001FC0
7F00000000F0001FC0
3F00000001F8001F80
3F80000001FC003F80
3F80000001FE003F80
1FC0000001FF007F00
1FC0000000FF807F00
1FE00000007FC0FE00
0FE00000003FE1FE00
0FF00000001FF1FC00
07F80000000FFBFC00
03FC00000007FFF800
03FE00000003FFF000
01FF00000001FFF000
00FF80000000FFE000
007FE0000000FFC000
003FF0000003FFE000
001FFC00000FFFF000
000FFF80003FFFF800
0007FFFC0FFFFFFC00
0001FFFFFFFFF3FE00
0000FFFFFFFFE1FE00
00003FFFFFFF80FE00
000007FFFFFC007E00
000000FFFFE0003C00
00000007FC00000000
ENDCHAR
STARTCHAR 0052
ENCODING 82
SWIDTH 624 0
DWIDTH 52 0
BBX 42 65 8 0
BITMAP
3FFFFF000000
7FFFFFF00000
FFFFFFFC0000
FFFFFFFF0000
FFFFFFFF8000
FFFFFFFFC000
FE0003FFE000
FE00003FF000
FE00000FF800
FE000007F800
FE000003FC00
FE000001FC00
FE000000FE00
FE000000FE00
FE0000007E00
FE0000007F00
FE0000007F00
FE0000003F00
FE0000003F00
FE0000003F00
FE0000003F00
FE0000003F00
FE0000003F00
FE0000007F00
FE0000007F00
FE0000007E00
FE000000FE00
FE000001FE00
FE000001FC00
FE000003FC00
FE00000FF800
FE00001FF800
FE0000FFF000
FFFFFFFFE000
FFFFFFFFC000
FFFFFFFF0000
FFFFFFFE0000
FFFFFFF80000
FFFFFFF00000
FFFFE7F00000
FE0007F80000
FE0003F80000
FE0003FC0000
FE0001FE0000
FE0000FE0000
FE0000FF0000
FE00007F8000
FE00003F8000
FE00003FC000
FE00001FC000
FE00000FE000
FE00000FF000
FE000007F000
FE000007F800
FE000003FC00
FE000001FC00
FE000001FE00
FE000000FE00
FE0000007F00
FE0000007F80
FE0000003F80
FE0000003FC0
FE0000001FC0
7C0000000F80
380000000780
ENDCHAR
STARTCHAR 0053
ENCODING 83
SWIDTH 660 0
DWIDTH 55 0
BBX 45 67 5 -1
BITMAP
00003FF00000
0003FFFF0000
000FFFFFC000
003FFFFFF000
00FFFFFFF800
01FFFFFFFC00
03FFF03FFE00
07FF0003FF00
07FC0000FF80
0FF000003FC0
1FE000001FE0
1FC000000FE0
1FC000000FE0
1F80000007E0
3F80000003E0
3F8000000000
3F8000000000
3F8000000000
3F8000000000
3F8000000000
1F8000000000
1FC000000000
1FC000000000
0FE000000000
0FF000000000
07F800000000
03FE00000000
03FFC0000000
01FFF8000000
007FFFE00000
003FFFFE0000
000FFFFFC000
0003FFFFF000
00007FFFF800
000007FFFE00
0000001FFF00
00000003FF80
00000000FFC0
000000003FC0
000000001FE0
000000000FE0
000000000FF0
0000000007F0
0000000003F0
0000000003F8
0000000003F8
0000000003F8
0000000003F8
0000000003F8
0000000003F8
3800000003F8
7C00000003F8
FE00000003F0
FE00000007F0
7F00000007F0
7F8000000FE0
3FC000001FE0
3FE000003FC0
1FF800007FC0
0FFF0003FF80
07FFF03FFF00
03FFFFFFFE00
00FFFFFFFC00
007FFFFFF000
001FFFFFE000
0003FFFF0000
00001FF00000
ENDCHAR
STARTCHAR 0054
ENCODING 84
SWIDTH 660 0
DWIDTH 55 0
BBX 52 65 1 0
BITMAP
7FFFFFFFFFFFE0
7FFFFFFFFFFFF0
FFFFFFFFFFFFF0
FFFFFFFFFFFFF0
7FFFFFFFFFFFF0
3FFFFFFFFFFFE0
000001F8000000
000001F8000000
000001F8000000
000001F8000000
000001F8000000
000001F8000000
000001F8000000
000001F8000000
000001F8000000
000001F8000000
000001F8000000
000001F8000000
000001F8000000
000001F8000000
000001F8000000
000001F8000000
000001F8000000
000001F8000000
000001F8000000
000001F8000000
000001F8000000
000001F8000000
000001F8000000
000001F8000000
000001F8000000
000001F8000000
000001F8000000
000001F8000000
000001F8000000
000001F8000000
000001F8000000
000001F8000000
000001F8000000
000001F8000000
000001F8000000
000001F8000000
000001F8000000
000001F8000000
000001F8000000
000001F8000000
000001F8000000
000001F8000000
000001F8000000
000001F8000000
000001F8000000
000001F8000000
000001F8000000
000001F8000000
000001F8000000
000001F8000000
000001F8000000
000001F8000000
000001F8000000
000001F8000000
000001F8000000
000001F8000000
000001F8000000
000001F8000000
00000070000000
ENDCHAR
STARTCHAR 0055
ENCODING 85
SWIDTH 816 0
DWIDTH 68 0
BBX 52 66 8 -1
BITMAP
380000000001E0
7C0000000003E0
FE0000000007F0
FE0000000007F0
FE0000000007F0
FE0000000007F0
FE0000000007F0
FE0000000007F0
FE0000000007F0
FE0000000007F0
FE0000000007F0
FE0000000007F0
FE0000000007F0
FE0000000007F0
FE0000000007F0
FE0000000007F0
FE0000000007F0
FE0000000007F0
FE0000000007F0
FE0000000007F0
FE0000000007F0
FE0000000007F0
FE0000000007F0
FE0000000007F0
FE0000000007F0
FE0000000007F0
FE0000000007F0
FE0000000007F0
FE0000000007F0
FE0000000007F0
FE0000000007F0
FE0000000007F0
FE0000000007F0
FE0000000007F0
FE0000000007F0
FE0000000007F0
FE0000000007F0
FE0000000007F0
FE0000000007F0
FE0000000007F0
FE0000000007F0
FE0000000007F0
FE0000000007F0
FE0000000007F0
FE0000000007F0
FE0000000007F0
FE0000000007F0
7E0000000007F0
7F0000000007E0
7F000000000FE0
7F000000000FE0
3F800000001FE0
3F800000001FC0
1FC00000003FC0
1FE00000007F80
0FF0000000FF80
0FF8000001FF00
07FE000007FE00
03FF80001FFC00
01FFF000FFF800
00FFFFFFFFF000
007FFFFFFFE000
001FFFFFFF8000
0007FFFFFE0000
0001FFFFF80000
00003FFFC00000
ENDCHAR
STARTCHAR 0056
ENCODING 86
SWIDTH 720 0
DWIDTH 60 0
BBX 56 65 2 0
BITMAP
7800000000001E
FC00000000003F
FC00000000003F
FC00000000007F
FE00000000007F
FE00000000007E
7F0000000000FE
7F0000000000FC
3F8000000001FC
3F8000000001FC
3F8000000003F8
1FC000000003F8
1FC000000003F0
0FE000000007F0
0FE000000007E0
07E00000000FE0
07F00000000FE0
07F00000001FC0
03F80000001FC0
03F80000001F80
01FC0000003F80
01FC0000003F00
00FC0000007F00
00FE0000007F00
00FE0000007E00
007F000000FE00
007F000000FC00
003F000001FC00
003F800001FC00
001F800003F800
001FC00003F800
001FC00003F000
000FE00007F000
000FE00007E000
0007E0000FE000
0007F0000FE000
0003F0000FC000
0003F8001FC000
0003F8001F8000
0001FC003F8000
0001FC003F0000
0000FC007F0000
0000FE007F0000
00007E007E0000
00007F00FE0000
00007F00FC0000
00003F01FC0000
00003F81F80000
00001F81F80000
00001FC3F80000
00000FC3F00000
00000FE7F00000
00000FE7E00000
000007EFE00000
000007FFC00000
000003FFC00000
000003FFC00000
000001FF800000
000001FF800000
000001FF000000
000000FF000000
000000FE000000
0000007E000000
0000007E000000
0000003C000000
ENDCHAR
STARTCHAR 0057
ENCODING 87
SWIDTH 936 0
DWIDTH 78 0
BBX 74 65 2 0
BITMAP
78000000000000000780
F80000000000000007C0
FC0000001E0000000FC0
FC0000003F0000000FC0
FC0000003F0000000FC0
FE0000007F8000001FC0
FE0000007F8000001FC0
7E0000007F8000001F80
7F0000007F8000001F80
7F000000FFC000003F80
3F000000FFC000003F00
3F000000FFC000003F00
3F800001FFE000007F00
1F800001FFE000007E00
1F800001FFE000007E00
1FC00001F3E00000FE00
1FC00003F3F00000FE00
0FC00003F3F00000FC00
0FC00003F3F00000FC00
0FE00003E1F00001FC00
07E00007E1F80001F800
07E00007E1F80001F800
07F00007C0F80003F800
07F0000FC0FC0003F000
03F0000FC0FC0003F000
03F0000FC0FC0003F000
03F8000F807C0007F000
01F8001F807E0007E000
01F8001F807E0007E000
01FC001F807E000FE000
00FC003F003F000FC000
00FC003F003F000FC000
00FC003F003F000FC000
00FE003E001F001FC000
007E007E001F801F8000
007E007E001F801F8000
007F007E001F803F8000
003F00FC000FC03F0000
003F00FC000FC03F0000
003F00FC000FC03F0000
001F80FC000FC07E0000
001F81F80007E07E0000
001F81F80007E07E0000
001FC1F80007E0FE0000
000FC1F00003F0FC0000
000FC3F00003F0FC0000
000FC3F00003F0FC0000
0007E3F00003F1F80000
0007E7E00001F9F80000
0007E7E00001F9F80000
0007F7E00001FBF80000
0003F7E00001FBF00000
0003FFC00000FFF00000
0003FFC00000FFF00000
0001FFC00000FFE00000
0001FF8000007FE00000
0001FF8000007FE00000
0000FF8000007FC00000
0000FF8000007FC00000
0000FF0000003FC00000
0000FF0000003FC00000
00007F0000003F800000
00007E0000001F800000
00007E0000001F000000
00001C0000000E000000
ENDCHAR
STARTCHAR 0058
ENCODING 88
SWIDTH 708 0
DWIDTH 59 0
BBX 51 65 4 0
BITMAP
1C000000000380
3E0000000007C0
7F000000000FC0
7F800000001FC0
3F800000003FC0
3FC00000003F80
1FE00000007F80
0FE0000000FF00
0FF0000001FE00
07F8000001FE00
03FC000003FC00
01FC000007F800
01FE000007F000
00FF00000FF000
007F80001FE000
003F80003FC000
003FC0003F8000
001FE0007F8000
000FE000FF0000
000FF001FE0000
0007F801FC0000
0003FC03FC0000
0001FC07F80000
0001FE0FF00000
0000FF0FF00000
00007F1FE00000
00007FBFC00000
00003FFF800000
00001FFF800000
00000FFF000000
00000FFE000000
000007FC000000
000007FE000000
00000FFE000000
00001FFF000000
00003FFF800000
00003FBFC00000
00007F9FC00000
0000FF1FE00000
0001FE0FF00000
0001FE07F00000
0003FC07F80000
0007F803FC0000
0007F001FE0000
000FF000FE0000
001FE000FF0000
003FC0007F8000
003F80003FC000
007F80003FC000
00FF00001FE000
01FE00000FF000
01FE000007F000
03FC000007F800
07F8000003FC00
0FF0000001FE00
0FF0000000FE00
1FE0000000FF00
3FC00000007F80
3F800000003FC0
7F800000003FC0
FF000000001FE0
FE000000000FE0
FC0000000007E0
FC0000000007E0
780000000003C0
ENDCHAR
STARTCHAR 0059
ENCODING 89
SWIDTH 648 0
DWIDTH 54 0
BBX 54 65 0 0
BITMAP
38000000000070
7C0000000000F8
FE0000000001FC
FF0000000001FC
7F0000000003F8
7F8000000007F8
3F8000000007F0
1FC00000000FE0
1FE00000001FE0
0FE00000001FC0
07F00000003FC0
07F80000003F80
03F80000007F00
03FC000000FF00
01FC000000FE00
00FE000001FC00
00FF000001FC00
007F000003F800
003F800007F000
003FC00007F000
001FC0000FE000
001FE0001FE000
000FE0001FC000
0007F0003F8000
0007F8003F8000
0003F8007F0000
0001FC00FE0000
0001FC00FE0000
0000FE01FC0000
00007F03F80000
00007F03F80000
00003F87F00000
00003FC7F00000
00001FCFE00000
00000FFFC00000
00000FFFC00000
000007FF800000
000003FF000000
000003FF000000
000001FE000000
000001FE000000
000000FC000000
000000FC000000
000000FC000000
000000FC000000
000000FC000000
000000FC000000
000000FC000000
000000FC000000
000000FC000000
000000FC000000
000000FC000000
000000FC000000
000000FC000000
000000FC000000
000000FC000000
000000FC000000
000000FC000000
000000FC000000
000000FC000000
000000FC000000
000000FC000000
000000FC000000
000000FC000000
00000078000000
ENDCHAR
STARTCHAR 005A
ENCODING 90
SWIDTH 720 0
DWIDTH 60 0
BBX 52 65 4 0
BITMAP
3FFFFFFFFFFFE0
7FFFFFFFFFFFF0
FFFFFFFFFFFFF0
7FFFFFFFFFFFF0
7FFFFFFFFFFFF0
3FFFFFFFFFFFE0
00000000001FC0
00000000003FC0
00000000003F80
00000000007F00
0000000000FE00
0000000001FC00
0000000003FC00
0000000003F800
0000000007F000
000000000FE000
000000001FC000
000000003FC000
000000003F8000
000000007F0000
00000000FE0000
00000001FC0000
00000003FC0000
00000003F80000
00000007F00000
0000000FE00000
0000001FC00000
0000003FC00000
0000003F800000
0000007F000000
000000FE000000
000001FC000000
000003FC000000
000003F8000000
000007F0000000
00000FE0000000
00001FC0000000
00003FC0000000
00003F80000000
00007F00000000
0000FE00000000
0001FC00000000
0003FC00000000
0003F800000000
0007F000000000
000FE000000000
001FC000000000
001FC000000000
003F8000000000
007F0000000000
00FE0000000000
01FC0000000000
01FC0000000000
03F80000000000
07F00000000000
0FE00000000000
1FC00000000000
1FC00000000000
3F800000000000
7FFFFFFFFFFFC0
FFFFFFFFFFFFF0
FFFFFFFFFFFFF0
FFFFFFFFFFFFF0
7FFFFFFFFFFFF0
3FFFFFFFFFFFE0
ENDCHAR
STARTCHAR 005B
ENCODING 91
SWIDTH 300 0
DWIDTH 25 0
BBX 20 85 5 -20
BITMAP
3FFFE0
7FFFF0
FFFFF0
FFFFF0
FFFFF0
FFFFE0
FE0000
FE0000
FE0000
FE0000
FE0000
FE0000
FE0000
FE0000
FE0000
FE0000
FE0000
FE0000
FE0000
FE0000
FE0000
FE0000
FE0000
FE0000
FE0000
FE0000
FE0000
FE0000
FE0000
FE0000
FE0000
FE0000
FE0000
FE0000
FE0000
FE0000
FE0000
FE0000
FE0000
FE0000
FE0000
FE0000
FE0000
FE0000
FE0000
FE0000
FE0000
FE0000
FE0000
FE0000
FE0000
FE0000
FE0000
FE0000
FE0000
FE0000
FE0000
FE0000
FE0000
FE0000
FE0000
FE0000
FE0000
FE0000
FE0000
FE0000
FE0000
FE0000
FE0000
FE0000
FE0000
FE0000
FE0000
FE0000
FE0000
FE0000
FE0000
FE0000
FFFFE0
FFFFF0
FFFFF0
FFFFF0
7FFFF0
7FFFE0
1FFF80
ENDCHAR
STARTCHAR 005C
ENCODING 92
SWIDTH 468 0
DWIDTH 39 0
BBX 33 72 3 -7
BITMAP
3C00000000
7C00000000
FE00000000
FE00000000
FF00000000
7F00000000
7F00000000
3F80000000
3F80000000
3FC0000000
1FC0000000
1FC0000000
0FE0000000
0FE0000000
0FF0000000
07F0000000
07F0000000
03F8000000
03F8000000
01FC000000
01FC000000
01FC000000
00FE000000
00FE000000
007F000000
007F000000
007F000000
003F800000
003F800000
001FC00000
001FC00000
001FC00000
000FE00000
000FE00000
0007F00000
0007F00000
0007F00000
0003F80000
0003F80000
0001FC0000
0001FC0000
0001FC0000
0000FE0000
0000FE0000
00007F0000
00007F0000
00007F0000
00003F8000
00003F8000
00001FC000
00001FC000
00001FC000
00000FE000
00000FE000
000007F000
000007F000
000007F000
000003F800
000003F800
000001FC00
000001FC00
000001FE00
000000FE00
000000FE00
0000007F00
0000007F00
0000007F80
0000003F80
0000003F80
0000001F80
0000001F00
0000000600
ENDCHAR
STARTCHAR 005D
ENCODING 93
SWIDTH 300 0
DWIDTH 25 0
BBX 20 85 0 -20
BITMAP
7FFFC0
FFFFE0
FFFFF0
FFFFF0
FFFFF0
7FFFF0
0007F0
0007F0
0007F0
0007F0
0007F0
0007F0
0007F0
0007F0
0007F0
0007F0
0007F0
0007F0
0007F0
0007F0
0007F0
0007F0
0007F0
0007F0
0007F0
0007F0
0007F0
0007F0
0007F0
0007F0
0007F0
0007F0
0007F0
0007F0
0007F0
0007F0
0007F0
0007F0
0007F0
0007F0
0007F0
0007F0
0007F0
0007F0
0007F0
0007F0
0007F0
0007F0
0007F0
0007F0
0007F0
0007F0
0007F0
0007F0
0007F0
0007F0
0007F0
0007F0
0007F0
0007F0
0007F0
0007F0
0007F0
0007F0
0007F0
0007F0
0007F0
0007F0
0007F0
0007F0
0007F0
0007F0
0007F0
0007F0
0007F0
0007F0
0007F0
0007F0
7FFFF0
FFFFF0
FFFFF0
FFFFF0
FFFFE0
7FFFE0
1FFF80
ENDCHAR
STARTCHAR 005E
ENCODING 94
SWIDTH 468 0
DWIDTH 39 0
BBX 33 26 3 39
BITMAP
0001E00000
0003F00000
0007F00000
0007F80000
000FFC0000
001FFC0000
001FFE0000
003FFF0000
007FFF0000
007F7F8000
00FF3FC000
01FE3FC000
01FE1FE000
03FC0FF000
07F80FF000
07F007F800
0FF003FC00
1FE003FC00
1FC001FE00
3FC000FF00
7F8000FF00
7F00007F80
FF00003F80
7E00003F80
7C00001F80
3800000E00
ENDCHAR
STARTCHAR 005F
ENCODING 95
SWIDTH 468 0
DWIDTH 39 0
BBX 46 7 -3 -7
BITMAP
7FFFFFFFFFF8
FFFFFFFFFFFC
FFFFFFFFFFFC
FFFFFFFFFFFC
FFFFFFFFFFFC
7FFFFFFFFFF8
1FFFFFFFFFE0
ENDCHAR
STARTCHAR 0060
ENCODING 96
SWIDTH 276 0
DWIDTH 23 0
BBX 15 16 4 49
BITMAP
7800
FC00
FE00
FF00
FF80
FFC0
7FE0
3FF0
1FF8
07FC
03FE
01FE
00FE
007E
003C
0018
ENDCHAR
STARTCHAR 0061
ENCODING 97
SWIDTH 672 0
DWIDTH 56 0
BBX 46 46 5 0
BITMAP
00003FF00000
0001FFFF0000
000FFFFFC000
001FFFFFF000
007FFFFFF800
00FFFFFFFC00
01FFE00FFF00
03FF0001FF00
07FC0000FF80
0FF800003FC0
0FF000001FE0
1FE000000FE0
3FC0000007F0
3F80000007F0
3F00000003F8
7F00000003F8
7F00000001F8
7E00000001FC
7E00000001FC
FE00000000FC
FE00000000FC
FC00000000FC
FC00000000FC
FC00000000FC
FC00000000FC
FC00000000FC
FE00000000FC
FE00000000FC
7E00000001FC
7E00000001FC
7F00000001FC
7F00000003FC
3F80000003FC
3F80000007FC
1FC000000FFC
1FE000001FFC
0FF000003FFC
07F800007FFC
07FE0001FEFC
03FF8007FEFC
01FFFCFFFCFC
00FFFFFFF8FC
003FFFFFE0FC
001FFFFFC0FC
0007FFFF00FC
0000FFF80078
ENDCHAR
STARTCHAR 0062
ENCODING 98
SWIDTH 708 0
DWIDTH 59 0
BBX 47 65 7 0
BITMAP
3C0000000000
7C0000000000
7E0000000000
FE0000000000
FE0000000000
FE0000000000
FE0000000000
FE0000000000
FE0000000000
FE0000000000
FE0000000000
FE0000000000
FE0000000000
FE0000000000
FE0000000000
FE0000000000
FE0000000000
FE0000000000
FE0000000000
FE000FF80000
FE00FFFF8000
FE03FFFFE000
FE0FFFFFF000
FE1FFFFFFC00
FE3FFFFFFE00
FE7FE00FFF00
FEFF0001FF80
FFFC00007FC0
FFF800003FE0
FFF000001FE0
FFE000000FF0
FFC0000007F0
FF80000003F8
FF80000003F8
FF00000001FC
FF00000001FC
FF00000000FC
FE00000000FC
FE00000000FE
FE00000000FE
FE00000000FE
FE00000000FE
FE00000000FE
FE00000000FE
7E00000000FE
7E00000000FE
7E00000000FC
7F00000000FC
7F00000001FC
3F00000001FC
3F80000001F8
3F80000003F8
1FC0000007F8
1FE0000007F0
0FF000000FF0
0FF800001FE0
07FC00007FC0
03FE0000FF80
01FF8003FF00
00FFFE7FFE00
007FFFFFFC00
003FFFFFF800
000FFFFFE000
0003FFFF8000
00007FFC0000
ENDCHAR
STARTCHAR 0063
ENCODING 99
SWIDTH 600 0
DWIDTH 50 0
BBX 40 46 5 0
BITMAP
00007FE000
0003FFFC00
000FFFFF00
003FFFFFC0
00FFFFFFE0
01FFFFFFF8
03FF801FFC
07FE0007FC
07F80001FE
0FF00000FF
1FE000007E
1FC000003E
3F80000008
3F80000000
7F00000000
7F00000000
7E00000000
7E00000000
FE00000000
FE00000000
FC00000000
FC00000000
FC00000000
FC00000000
FC00000000
FC00000000
FE00000000
FE00000000
7E00000000
7E00000000
7F00000000
7F00000000
3F80000000
3F80000000
1FC0000000
1FE0000000
0FF0000038
07F800007C
07FE0001FE
03FF8007FE
01FFFCFFFC
00FFFFFFF8
003FFFFFF0
001FFFFFC0
0007FFFF80
0000FFFC00
ENDCHAR
STARTCHAR 0064
ENCODING 100
SWIDTH 708 0
DWIDTH 59 0
BBX 46 65 5 0
BITMAP
000000000078
0000000000FC
0000000000FC
0000000000FC
0000000000FC
0000000000FC
0000000000FC
0000000000FC
0000000000FC
0000000000FC
0000000000FC
0000000000FC
0000000000FC
0000000000FC
0000000000FC
0000000000FC
0000000000FC
0000000000FC
0000000000FC
00003FE000FC
0003FFFE00FC
000FFFFF80FC
003FFFFFE0FC
007FFFFFF0FC
00FFFFFFF8FC
01FFE00FFCFC
03FF0001FEFC
07FC0000FFFC
0FF800003FFC
1FF000001FFC
1FE000000FFC
3FC0000007FC
3F80000007FC
3F00000003FC
7F00000003FC
7F00000001FC
7E00000001FC
FE00000001FC
FE00000000FC
FC00000000FC
FC00000000FC
FC00000000FC
FC00000000FC
FC00000000FC
FC00000000FC
FE00000000FC
FE00000000FC
7E00000001FC
7E00000001FC
7F00000001F8
7F00000003F8
3F80000003F8
3F80000007F0
1FC000000FF0
1FE000001FE0
0FF000003FC0
07F800007FC0
07FE0001FF80
03FF8007FF00
01FFFCFFFE00
007FFFFFFC00
003FFFFFF000
000FFFFFE000
0003FFFF8000
00007FFC0000
ENDCHAR
STARTCHAR 0065
ENCODING 101
SWIDTH 612 0
DWIDTH 51 0
BBX 43 46 5 0
BITMAP
00007FE00000
0003FFFC0000
001FFFFF0000
003FFFFFC000
00FFFFFFE000
01FFFFFFF000
03FF801FF800
07FE0007FC00
07F80001FE00
0FF00000FE00
1FE000007F00
1FC000003F80
3F8000003F80
3F0000001F80
7F0000001FC0
7F0000000FC0
7E0000000FC0
7E0000000FC0
FE00000007E0
FC00000007E0
FFFFFFFFFFE0
FFFFFFFFFFE0
FFFFFFFFFFE0
FFFFFFFFFFE0
FFFFFFFFFFC0
FC0000000000
FC0000000000
FC0000000000
7E0000000000
7E0000000000
7E0000000000
7F0000000000
3F0000000000
3F8000000000
1FC000000000
1FE000000000
0FF000001800
0FF800007E00
07FC0000FE00
03FF8007FE00
01FFF87FFE00
00FFFFFFFC00
003FFFFFF000
001FFFFFE000
0007FFFF0000
0000FFFC0000
ENDCHAR
STARTCHAR 0066
ENCODING 102
SWIDTH 372 0
DWIDTH 31 0
BBX 29 65 2 0
BITMAP
000007F0
00003FF0
0000FFF8
0003FFF8
0007FFF0
000FFFE0
000FF800
001FE000
003FC000
003F8000
003F8000
007F0000
007F0000
007E0000
00FE0000
00FE0000
00FE0000
00FE0000
00FC0000
00FC0000
00FC0000
7FFFFFC0
FFFFFFE0
FFFFFFE0
FFFFFFE0
FFFFFFE0
3FFFFFC0
00FC0000
00FC0000
00FC0000
00FC0000
00FC0000
00FC0000
00FC0000
00FC0000
00FC0000
00FC0000
00FC0000
00FC0000
00FC0000
00FC0000
00FC0000
00FC0000
00FC0000
00FC0000
00FC0000
00FC0000
00FC0000
00FC0000
00FC0000
00FC0000
00FC0000
00FC0000
00FC0000
00FC0000
00FC0000
00FC0000
00FC0000
00FC0000
00FC0000
00FC0000
00FC0000
00FC0000
00FC0000
00780000
ENDCHAR
STARTCHAR 0067
ENCODING 103
SWIDTH 672 0
DWIDTH 56 0
BBX 46 64 5 -18
BITMAP
00003FF00000
0001FFFF0000
000FFFFFC000
003FFFFFF000
007FFFFFF800
00FFFFFFFE00
01FFC00FFF00
03FF0001FF80
07FC00007FC0
0FF000003FC0
1FE000001FE0
1FC000000FF0
3FC0000007F0
3F80000007F8
3F00000003F8
7F00000003F8
7E00000001F8
7E00000001FC
FE00000001FC
FE00000000FC
FE00000000FC
FC00000000FC
FC00000000FC
FC00000000FC
FC00000000FC
FC00000000FC
FE00000000FC
FE00000000FC
7E00000001FC
7E00000001FC
7F00000001FC
7F00000003FC
3F80000003FC
3F80000007FC
1FC000000FFC
1FE000000FFC
0FF000001FFC
0FF800007EFC
07FE0000FEFC
03FF8007FCFC
01FFFCFFF8FC
00FFFFFFF0FC
007FFFFFE0FC
001FFFFF80FC
0007FFFF00FC
0000FFF801FC
0000000001FC
0000000001F8
0000000003F8
0000000003F8
0600000007F0
1F00000007F0
1F8000000FE0
1FC000001FE0
1FF000003FC0
0FF80000FF80
07FE0001FF80
03FFC00FFF00
01FFFFFFFE00
00FFFFFFF800
003FFFFFF000
000FFFFFC000
0003FFFF0000
00003FF80000
ENDCHAR
STARTCHAR 0068
ENCODING 104
SWIDTH 672 0
DWIDTH 56 0
BBX 43 65 7 0
BITMAP
3C0000000000
7C0000000000
7E0000000000
FE0000000000
FE0000000000
FE0000000000
FE0000000000
FE0000000000
FE0000000000
FE0000000000
FE0000000000
FE0000000000
FE0000000000
FE0000000000
FE0000000000
FE0000000000
FE0000000000
FE0000000000
FE0000000000
FE007FE00000
FE03FFFE0000
FE0FFFFF8000
FE3FFFFFE000
FE7FFFFFF000
FEFFFFFFF800
FFFF803FFC00
FFFC0007FE00
FFF00003FE00
FFE00000FF00
FFC000007F00
FF8000003F80
FF0000003F80
FF0000001FC0
FF0000001FC0
FE0000001FC0
FE0000000FC0
FE0000000FE0
FE0000000FE0
FE0000000FE0
FE0000000FE0
FE0000000FE0
FE0000000FE0
FE0000000FE0
FE0000000FE0
FE0000000FE0
FE0000000FE0
FE0000000FE0
FE0000000FE0
FE0000000FE0
FE0000000FE0
FE0000000FE0
FE0000000FE0
FE0000000FE0
FE0000000FE0
FE0000000FE0
FE0000000FE0
FE0000000FE0
FE0000000FE0
FE0000000FE0
FE0000000FE0
FE0000000FE0
FE0000000FE0
7E0000000FE0
7E00000007C0
3C0000000380
ENDCHAR
STARTCHAR 0069
ENCODING 105
SWIDTH 288 0
DWIDTH 24 0
BBX 10 63 7 0
BITMAP
3F00
7F80
7F80
7FC0
FFC0
7F80
7F80
3F00
0C00
0000
0000
0000
0000
0000
0000
0000
0000
0000
1E00
3F00
3F00
3F00
3F00
3F00
3F00
3F00
3F00
3F00
3F00
3F00
3F00
3F00
3F00
3F00
3F00
3F00
3F00
3F00
3F00
3F00
3F00
3F00
3F00
3F00
3F00
3F00
3F00
3F00
3F00
3F00
3F00
3F00
3F00
3F00
3F00
3F00
3F00
3F00
3F00
3F00
3F00
3F00
1E00
ENDCHAR
STARTCHAR 006A
ENCODING 106
SWIDTH 288 0
DWIDTH 24 0
BBX 24 83 -8 -20
BITMAP
00007C
0000FE
0001FF
0001FF
0001FF
0001FF
0000FF
0000FE
000038
000000
000000
000000
000000
000000
000000
000000
000000
000010
00007C
00007E
0000FE
0000FE
0000FE
0000FE
0000FE
0000FE
0000FE
0000FE
0000FE
0000FE
0000FE
0000FE
0000FE
0000FE
0000FE
0000FE
0000FE
0000FE
0000FE
0000FE
0000FE
0000FE
0000FE
0000FE
0000FE
0000FE
0000FE
0000FE
0000FE
0000FE
0000FE
0000FE
0000FE
0000FE
0000FE
0000FE
0000FE
0000FE
0000FE
0000FE
0000FE
0000FE
0000FE
0000FE
0000FE
0000FE
0000FE
0000FC
0001FC
0001FC
0003FC
0003F8
0007F8
001FF0
003FF0
01FFE0
3FFFC0
7FFF80
FFFF00
FFFC00
FFF800
7FC000
100000
ENDCHAR
STARTCHAR 006B
ENCODING 107
SWIDTH 576 0
DWIDTH 48 0
BBX 36 65 7 -1
BITMAP
3C00000000
7C00000000
7E00000000
FE00000000
FE00000000
FE00000000
FE00000000
FE00000000
FE00000000
FE00000000
FE00000000
FE00000000
FE00000000
FE00000000
FE00000000
FE00000000
FE00000000
FE00000000
FE00000000
FE000001C0
FE000003E0
FE00000FE0
FE00001FE0
FE00003FE0
FE00007FC0
FE0000FF80
FE0001FF00
FE0003FC00
FE0007F800
FE000FF000
FE003FE000
FE007FC000
FE00FF8000
FE01FF0000
FE03FE0000
FE07FC0000
FE0FF00000
FE1FE00000
FE3FC00000
FEFFC00000
FFFFE00000
FFFFF00000
FFFFF00000
FFFFF80000
FFF3FC0000
FFC1FE0000
FF80FF0000
FF007F0000
FE007F8000
FE003FC000
FE001FE000
FE000FF000
FE0007F000
FE0003F800
FE0003FC00
FE0001FE00
FE0000FF00
FE00007F80
FE00003F80
FE00003FC0
FE00001FE0
FE00000FF0
7E000007F0
7C000003E0
3C000001E0
ENDCHAR
STARTCHAR 006C
ENCODING 108
SWIDTH 288 0
DWIDTH 24 0
BBX 16 65 6 0
BITMAP
7800
FC00
FC00
FC00
FC00
FC00
FC00
FC00
FC00
FC00
FC00
FC00
FC00
FC00
FC00
FC00
FC00
FC00
FC00
FC00
FC00
FC00
FC00
FC00
FC00
FC00
FC00
FC00
FC00
FC00
FC00
FC00
FC00
FC00
FC00
FC00
FC00
FC00
FC00
FC00
FC00
FC00
FC00
FC00
FC00
FC00
FC00
FC00
FC00
FC00
FC00
FC00
FC00
FC00
FE00
FE00
7F00
7F80
7FC0
3FFE
1FFF
1FFF
0FFF
03FF
00FE
ENDCHAR
STARTCHAR 006D
ENCODING 109
SWIDTH 948 0
DWIDTH 79 0
BBX 65 46 7 0
BITMAP
1001FF00000FF80000
7C0FFFE0007FFF0000
7E3FFFF001FFFFC000
FE7FFFFC07FFFFE000
FEFFFFFE0FFFFFF000
FFFFFFFF1FFFFFF800
FFFE03FFBFF01FFC00
FFF800FFBFC007FC00
FFE0003FFF0001FE00
FFC0001FFE0000FE00
FF80001FFE00007F00
FF80000FFC00007F00
FF000007F800003F00
FF000007F800003F80
FE000007F800003F80
FE000007F000001F80
FE000003F000001F80
FE000003F000001F80
FE000003F000001F80
FE000003F000001F80
FE000003F000001F80
FE000003F000001F80
FE000003F000001F80
FE000003F000001F80
FE000003F000001F80
FE000003F000001F80
FE000003F000001F80
FE000003F000001F80
FE000003F000001F80
FE000003F000001F80
FE000003F000001F80
FE000003F000001F80
FE000003F000001F80
FE000003F000001F80
FE000003F000001F80
FE000003F000001F80
FE000003F000001F80
FE000003F000001F80
FE000003F000001F80
FE000003F000001F80
FE000003F000001F80
FE000003F000001F80
FE000003F000001F80
7E000003F000001F80
7E000003F000001F80
3C000001E000000F00
ENDCHAR
STARTCHAR 006E
ENCODING 110
SWIDTH 672 0
DWIDTH 56 0
BBX 43 46 7 0
BITMAP
10007FE00000
7C03FFFE0000
7E0FFFFF8000
FE3FFFFFE000
FE7FFFFFF000
FEFFFFFFF800
FFFF803FFC00
FFFC0007FE00
FFF00003FE00
FFE00000FF00
FFC000007F00
FF8000003F80
FF0000003F80
FF0000001FC0
FF0000001FC0
FE0000001FC0
FE0000000FC0
FE0000000FE0
FE0000000FE0
FE0000000FE0
FE0000000FE0
FE0000000FE0
FE0000000FE0
FE0000000FE0
FE0000000FE0
FE0000000FE0
FE0000000FE0
FE0000000FE0
FE0000000FE0
FE0000000FE0
FE0000000FE0
FE0000000FE0
FE0000000FE0
FE0000000FE0
FE0000000FE0
FE0000000FE0
FE0000000FE0
FE0000000FE0
FE0000000FE0
FE0000000FE0
FE0000000FE0
FE0000000FE0
FE0000000FE0
7E0000000FE0
7E00000007C0
3C0000000380
ENDCHAR
STARTCHAR 006F
ENCODING 111
SWIDTH 672 0
DWIDTH 56 0
BBX 46 46 5 0
BITMAP
00003FF00000
0001FFFF0000
000FFFFFC000
003FFFFFF000
007FFFFFF800
00FFFFFFFE00
01FFE00FFF00
03FF0001FF80
07FC00007F80
0FF800003FC0
0FE000001FE0
1FC000000FE0
3FC0000007F0
3F80000007F0
3F00000003F8
7F00000003F8
7F00000001FC
7E00000001FC
FE00000001FC
FE00000000FC
FE00000000FC
FC00000000FC
FC00000000FC
FC00000000FC
FC00000000FC
FC00000000FC
FE00000000FC
FE00000000FC
7E00000001FC
7E00000001FC
7F00000001F8
7F00000003F8
3F80000003F8
3F80000007F0
1FC000000FF0
1FE000001FE0
0FF000003FE0
07F800007FC0
07FE0000FF80
03FF8007FF00
01FFFCFFFE00
007FFFFFFC00
003FFFFFF800
000FFFFFE000
0003FFFF8000
0000FFFC0000
ENDCHAR
STARTCHAR 0070
ENCODING 112
SWIDTH 708 0
DWIDTH 59 0
BBX 47 66 7 -20
BITMAP
00001FF00000
0001FFFF0000
0007FFFFC000
001FFFFFF000
003FFFFFFC00
00FFFFFFFE00
01FFE00FFF00
03FF0001FF80
07FC00007FC0
07F800003FE0
0FF000001FE0
1FE000000FF0
1FC0000007F0
3FC0000003F8
3F80000003F8
3F00000001FC
7F00000001FC
7F00000000FC
7E00000000FC
7E00000000FE
7E00000000FE
7E00000000FE
FE00000000FE
FE00000000FE
FE00000000FE
FE00000000FE
FE00000000FE
FE00000000FC
FF00000000FC
FF00000001FC
FF00000001FC
FF80000001F8
FF80000003F8
FFC0000007F8
FFE0000007F0
FFE000000FF0
FFF000001FE0
FFFC00007FC0
FFFE0000FFC0
FEFF8003FF80
FE7FFE7FFF00
FE3FFFFFFE00
FE0FFFFFF800
FE07FFFFF000
FE01FFFFC000
FE003FFE0000
FE0000000000
FE0000000000
FE0000000000
FE0000000000
FE0000000000
FE0000000000
FE0000000000
FE0000000000
FE0000000000
FE0000000000
FE0000000000
FE0000000000
FE0000000000
FE0000000000
FE0000000000
FE0000000000
FE0000000000
7E0000000000
7C0000000000
100000000000
ENDCHAR
STARTCHAR 0071
ENCODING 113
SWIDTH 708 0
DWIDTH 59 0
BBX 46 66 5 -20
BITMAP
00003FF00000
0001FFFF0000
000FFFFFC000
001FFFFFF000
007FFFFFF800
00FFFFFFFC00
01FFE00FFF00
03FF0001FF00
07FC0000FF80
0FF800003FC0
0FF000001FE0
1FE000000FE0
3FC0000007F0
3F80000007F0
3F00000003F8
7F00000003F8
7F00000001F8
7E00000001FC
7E00000001FC
FE00000000FC
FE00000000FC
FC00000000FC
FC00000000FC
FC00000000FC
FC00000000FC
FC00000000FC
FE00000000FC
FE00000000FC
7E00000001FC
7E00000001FC
7F00000001FC
7F00000003FC
3F80000003FC
3F80000007FC
1FC000000FFC
1FE000001FFC
0FF000003FFC
07F800007FFC
07FE0001FEFC
03FF8007FEFC
01FFFCFFFCFC
00FFFFFFF8FC
003FFFFFE0FC
001FFFFFC0FC
0007FFFF00FC
0000FFF800FC
0000000000FC
0000000000FC
0000000000FC
0000000000FC
0000000000FC
0000000000FC
0000000000FC
0000000000FC
0000000000FC
0000000000FC
0000000000FC
0000000000FC
0000000000FC
0000000000FC
0000000000FC
0000000000FC
0000000000FC
0000000000FC
00000000007C
000000000010
ENDCHAR
STARTCHAR 0072
ENCODING 114
SWIDTH 456 0
DWIDTH 38 0
BBX 29 46 7 0
BITMAP
10007FC0
7C03FFF0
7E0FFFF0
FE3FFFF8
FE7FFFF0
FEFFFFF0
FFFF0000
FFFC0000
FFF00000
FFE00000
FFC00000
FF800000
FF000000
FF000000
FE000000
FE000000
FE000000
FE000000
FE000000
FE000000
FE000000
FE000000
FE000000
FE000000
FE000000
FE000000
FE000000
FE000000
FE000000
FE000000
FE000000
FE000000
FE000000
FE000000
FE000000
FE000000
FE000000
FE000000
FE000000
FE000000
FE000000
FE000000
FE000000
7E000000
7C000000
3C000000
ENDCHAR
STARTCHAR 0073
ENCODING 115
SWIDTH 540 0
DWIDTH 45 0
BBX 36 46 5 0
BITMAP
0007FE0000
003FFFE000
00FFFFF800
03FFFFFE00
07FFFFFF00
0FFFFFFF80
1FF801FFC0
1FE0003FE0
3FC0001FE0
3F80000FE0
3F000007E0
3F00000180
3F00000000
3F00000000
3F00000000
3F80000000
3FC0000000
1FE0000000
0FF8000000
0FFF800000
07FFFC0000
01FFFFC000
00FFFFF800
001FFFFC00
0003FFFF00
00001FFF80
000001FFC0
0000003FE0
0000001FE0
00000007F0
00000007F0
00000003F0
00000003F0
00000003F0
00000003F0
7C000003F0
FE000007F0
FF00000FF0
FF80001FE0
7FE0007FC0
3FFF8FFFC0
1FFFFFFF80
0FFFFFFF00
03FFFFFC00
00FFFFF000
001FFFC000
ENDCHAR
STARTCHAR 0074
ENCODING 116
SWIDTH 408 0
DWIDTH 34 0
BBX 29 60 2 0
BITMAP
00780000
00FC0000
00FC0000
00FC0000
00FC0000
00FC0000
00FC0000
00FC0000
00FC0000
00FC0000
00FC0000
00FC0000
00FC0000
00FC0000
00FC0000
00FC0000
7FFFFF80
FFFFFFC0
FFFFFFE0
FFFFFFE0
FFFFFFC0
3FFFFF80
00FC0000
00FC0000
00FC0000
00FC0000
00FC0000
00FC0000
00FC0000
00FC0000
00FC0000
00FC0000
00FC0000
00FC0000
00FC0000
00FC0000
00FC0000
00FC0000
00FC0000
00FC0000
00FC0000
00FC0000
00FC0000
00FC0000
00FC0000
00FC0000
00FE0000
00FE0000
007E0000
007F0000
007F8000
003FC000
003FE000
001FFC00
000FFFF0
000FFFF0
0007FFF8
0001FFF8
00007FF0
00001FE0
ENDCHAR
STARTCHAR 0075
ENCODING 117
SWIDTH 672 0
DWIDTH 56 0
BBX 42 47 7 -1
BITMAP
300000000200
F80000000F80
FC0000000FC0
FC0000001FC0
FC0000001FC0
FC0000001FC0
FC0000001FC0
FC0000001FC0
FC0000001FC0
FC0000001FC0
FC0000001FC0
FC0000001FC0
FC0000001FC0
FC0000001FC0
FC0000001FC0
FC0000001FC0
FC0000001FC0
FC0000001FC0
FC0000001FC0
FC0000001FC0
FC0000001FC0
FC0000001FC0
FC0000001FC0
FC0000001FC0
FC0000001FC0
FC0000001FC0
FC0000001FC0
FC0000001FC0
FC0000001FC0
FC0000001FC0
FE0000001FC0
FE0000001FC0
7E0000001FC0
7F0000003FC0
7F0000007FC0
3F8000007FC0
3FC00000FFC0
1FE00001FFC0
1FF80007FFC0
0FFE001FFFC0
07FFFFFFFFC0
03FFFFFFDFC0
01FFFFFF9FC0
007FFFFE0FC0
001FFFF80F80
0007FFE00780
000018000000
ENDCHAR
STARTCHAR 0076
ENCODING 118
SWIDTH 552 0
DWIDTH 46 0
BBX 44 46 1 0
BITMAP
1000000000C0
7C00000003E0
FC00000003F0
FE00000007F0
7E00000007E0
7F0000000FE0
7F0000000FE0
3F8000001FC0
3F8000001FC0
1FC000001F80
1FC000003F80
0FC000003F00
0FE000007F00
07E000007E00
07F00000FE00
03F00000FC00
03F80001FC00
01F80001F800
01FC0003F800
00FC0003F800
00FE0007F000
007E0007F000
007F0007E000
007F000FE000
003F000FC000
003F801FC000
001F801F8000
001FC03F8000
000FC03F0000
000FE07F0000
0007E07E0000
0007F0FE0000
0003F0FE0000
0003F8FC0000
0001F9FC0000
0001FDF80000
0000FFF80000
0000FFF00000
00007FF00000
00007FE00000
00007FE00000
00003FC00000
00003FC00000
00001F800000
00001F800000
00000F000000
ENDCHAR
STARTCHAR 0077
ENCODING 119
SWIDTH 744 0
DWIDTH 62 0
BBX 59 46 1 0
BITMAP
1000000400000080
7C00000F000003E0
7C00001F800007E0
FE00001F800007E0
7E00003FC00007E0
7E00003FC0000FE0
7F00003FC0000FC0
3F00007FE0000FC0
3F00007FE0001FC0
3F80007FE0001F80
1F80007FE0001F80
1F8000FFF0003F80
1FC000FBF0003F00
0FC000F9F0003F00
0FC001F9F8003F00
0FC001F1F8007E00
07E001F0F8007E00
07E003F0F8007E00
07E003E0FC00FC00
03F003E0FC00FC00
03F007E07C00FC00
03F007E07E01F800
01F807C07E01F800
01F807C03E01F800
01F80FC03F03F000
00FC0F803F03F000
00FC0F801F03F000
00FC1F801F07E000
007E1F001F87E000
007E1F001F87E000
007E3F000F8FC000
003F3F000FCFC000
003F3E000FCFC000
003F3E0007DF8000
001FFE0007FF8000
001FFC0007FF8000
001FFC0003FF0000
000FFC0003FF0000
000FF80003FF0000
000FF80003FE0000
0007F80001FE0000
0007F80001FE0000
0007F00001FC0000
0003F00000FC0000
0003F00000FC0000
0001E00000780000
ENDCHAR
STARTCHAR 0078
ENCODING 120
SWIDTH 552 0
DWIDTH 46 0
BBX 39 46 3 0
BITMAP
1000000008
3E0000007C
7E0000007E
7F000000FE
7F800001FE
3FC00003FC
1FC00003F8
1FE00007F0
0FF0000FF0
07F8001FE0
03FC003FC0
01FC003F80
01FE007F00
00FF00FF00
007F81FE00
003F83FC00
001FC3F800
001FE7F000
000FFFF000
0007FFE000
0003FFC000
0001FF8000
0001FF0000
0001FF8000
0003FF8000
0003FFC000
0007FFE000
000FEFF000
001FE7F000
003FC3F800
003F83FC00
007F01FE00
00FE00FF00
01FE007F00
03FC007F80
03F8003FC0
07F0001FE0
0FE0000FE0
1FE00007F0
3FC00007F8
3F800003FC
7F000001FE
FF000000FE
FE0000007E
7C0000007E
380000003C
ENDCHAR
STARTCHAR 0079
ENCODING 121
SWIDTH 552 0
DWIDTH 46 0
BBX 43 66 2 -20
BITMAP
300000000100
F800000003C0
FC00000007E0
FC00000007E0
FE0000000FE0
FE0000000FC0
7F0000001FC0
7F0000001F80
3F0000003F80
3F8000003F80
1F8000007F00
1FC000007F00
0FC00000FE00
0FE00000FE00
07E00000FC00
07F00001FC00
03F00001F800
03F80003F800
01F80003F000
01FC0007F000
00FC0007F000
00FE000FE000
007E000FE000
007F001FC000
007F001FC000
003F801F8000
003F803F8000
001F803F0000
001FC07F0000
000FC07E0000
000FE0FE0000
0007E0FC0000
0007F1FC0000
0003F1FC0000
0003FBF80000
0001FBF80000
0001FFF00000
0000FFF00000
0000FFE00000
00007FE00000
00007FC00000
00003FC00000
00003F800000
00003F800000
00003F800000
00003F000000
00007F000000
00007E000000
0000FE000000
0000FC000000
0001FC000000
0001F8000000
0003F8000000
0003F0000000
0007F0000000
0007F0000000
0007E0000000
000FE0000000
000FC0000000
001FC0000000
001F80000000
003F80000000
003F00000000
003F00000000
003E00000000
000C00000000
ENDCHAR
STARTCHAR 007A
ENCODING 122
SWIDTH 552 0
DWIDTH 46 0
BBX 37 46 5 0
BITMAP
3FFFFFFFC0
7FFFFFFFF0
FFFFFFFFF8
FFFFFFFFF8
FFFFFFFFF8
7FFFFFFFF0
0000000FE0
0000001FE0
0000001FC0
0000003F80
0000007F00
000000FE00
000001FE00
000001FC00
000003F800
000007F000
00000FF000
00000FE000
00001FC000
00003F8000
00007F0000
0000FF0000
0000FE0000
0001FC0000
0003F80000
0007F80000
000FF00000
000FE00000
001FC00000
003F800000
007F800000
007F000000
00FE000000
01FC000000
03FC000000
07F8000000
07F0000000
0FE0000000
1FC0000000
3FC0000000
7FFFFFFFF0
7FFFFFFFF8
FFFFFFFFF8
FFFFFFFFF8
7FFFFFFFF8
7FFFFFFFF0
ENDCHAR
STARTCHAR 007B
ENCODING 123
SWIDTH 384 0
DWIDTH 32 0
BBX 26 85 4 -20
BITMAP
00003F80
0000FFC0
0003FFC0
0007FFC0
000FFFC0
000FFF80
001FFC00
001FE000
001FC000
003F8000
003F8000
003F8000
003F8000
003F8000
003F8000
003F8000
003F8000
003F8000
003F8000
003F8000
003F8000
003F8000
003F8000
003F8000
003F8000
003F8000
003F8000
003F8000
003F8000
003F8000
003F8000
003F8000
003F8000
003F8000
003F8000
003F0000
007F0000
00FF0000
01FF0000
3FFE0000
7FFE0000
FFFC0000
FFFC0000
7FFC0000
7FFE0000
0FFE0000
00FF0000
007F0000
003F0000
003F0000
003F8000
003F8000
003F8000
003F8000
003F8000
003F8000
003F8000
003F8000
003F8000
003F8000
003F8000
003F8000
003F8000
003F8000
003F8000
003F8000
003F8000
003F8000
003F8000
003F8000
003F8000
003F8000
003F8000
003F8000
003F8000
001FC000
001FC000
001FF000
000FFF80
000FFFC0
0007FFC0
0003FFC0
0001FFC0
00007FC0
00000300
ENDCHAR
STARTCHAR 007C
ENCODING 124
SWIDTH 396 0
DWIDTH 33 0
BBX 6 85 13 -20
BITMAP
78
FC
FC
FC
FC
FC
FC
FC
FC
FC
FC
FC
FC
FC
FC
FC
FC
FC
FC
FC
FC
FC
FC
FC
FC
FC
FC
FC
FC
FC
FC
FC
FC
FC
FC
FC
FC
FC
FC
FC
FC
FC
FC
FC
FC
FC
FC
FC
FC
FC
FC
FC
FC
FC
FC
FC
FC
FC
FC
FC
FC
FC
FC
FC
FC
FC
FC
FC
FC
FC
FC
FC
FC
FC
FC
FC
FC
FC
FC
FC
FC
FC
FC
7C
10
ENDCHAR
STARTCHAR 007D
ENCODING 125
SWIDTH 384 0
DWIDTH 32 0
BBX 26 85 1 -20
BITMAP
7F000000
FFE00000
FFF00000
FFF80000
FFFC0000
7FFE0000
0FFE0000
00FF0000
007F0000
007F0000
003F0000
003F0000
003F0000
003F0000
003F0000
003F0000
003F0000
003F0000
003F0000
003F0000
003F0000
003F0000
003F0000
003F0000
003F0000
003F0000
003F0000
003F0000
003F0000
003F0000
003F0000
003F0000
003F0000
003F0000
003F0000
003F8000
003F8000
003FC000
001FF000
001FFF80
000FFFC0
000FFFC0
0007FFC0
000FFFC0
001FFF80
001FFC00
001FE000
003FC000
003F8000
003F8000
003F0000
003F0000
003F0000
003F0000
003F0000
003F0000
003F0000
003F0000
003F0000
003F0000
003F0000
003F0000
003F0000
003F0000
003F0000
003F0000
003F0000
003F0000
003F0000
003F0000
003F0000
003F0000
003F0000
003F0000
007F0000
007F0000
00FF0000
03FE0000
7FFE0000
7FFC0000
FFFC0000
FFF80000
FFF00000
7F800000
10000000
ENDCHAR
STARTCHAR 007E
ENCODING 126
SWIDTH 468 0
DWIDTH 39 0
BBX 34 10 3 25
BITMAP
007C000000
03FF800000
0FFFE00780
1FFFF00F80
3FFFFC3FC0
7FFFFFFFC0
FF03FFFF80
FE00FFFF00
FC003FFE00
78000FF800
ENDCHAR
STARTCHAR 00A0
ENCODING 160
SWIDTH 288 0
DWIDTH 24 0
BBX 0 0 0 0
BITMAP
ENDCHAR
STARTCHAR 00A1
ENCODING 161
SWIDTH 264 0
DWIDTH 22 0
BBX 10 66 8 -20
BITMAP
0C00
3F00
7F80
7FC0
FFC0
FFC0
FFC0
7F80
3F80
1E00
0000
0000
0000
0000
0000
0E00
3F00
3F00
3F00
3F00
3F00
3F00
3F00
3F00
3F00
3F00
3F00
3F00
3F00
3F00
3F00
3F00
3F00
3F00
3F00
3F00
3F00
3F00
3F00
3F00
3F00
3F00
3F00
3F00
3F00
3F00
3F00
3F00
3F00
3F00
3F00
3F00
3F00
3F00
3F00
3F00
3F00
3F00
3F00
3F00
3F00
3F00
3F00
3F00
1E00
0400
ENDCHAR
STARTCHAR 00A2
ENCODING 162
SWIDTH 600 0
DWIDTH 50 0
BBX 40 62 5 -8
BITMAP
00000003C0
00000003C0
00000007C0
00000007C0
0000000F80
0000000F80
0000000F80
0000001F00
00007FFF00
0003FFFF00
000FFFFF00
003FFFFFC0
00FFFFFFE0
01FFFFFFF8
03FF807FFC
07FE00FFFC
07F800F9FE
0FF000F8FF
1FE001F07E
1FC001F03E
3F8003E008
3F8003E000
7F0003E000
7F0007C000
7E0007C000
7E0007C000
FE000F8000
FE000F8000
FC001F0000
FC001F0000
FC001F0000
FC003E0000
FC003E0000
FC003E0000
FE007C0000
FE007C0000
7E00F80000
7E00F80000
7F00F80000
7F01F00000
3F81F00000
3F83F00000
1FC3E00000
1FE3E00000
0FF7C00038
07FFC0007C
07FFC001FE
03FF8007FE
01FFF8FFFC
00FFFFFFF8
003FFFFFF0
001FFFFFC0
003FFFFF80
003EFFFC00
003E000000
007C000000
007C000000
00FC000000
00F8000000
00F8000000
00F0000000
00F0000000
ENDCHAR
STARTCHAR 00A3
ENCODING 163
SWIDTH 504 0
DWIDTH 42 0
BBX 40 65 3 0
BITMAP
0001FF8000
0007FFF000
001FFFF800
003FFFFE00
00FFFFFF00
00FFFFFF80
01FFC3FFC0
03FE007FC0
07FC003FE0
07F8000FE0
07F00007E0
0FE00007C0
0FE0000000
0FC0000000
0FC0000000
0FC0000000
0FC0000000
0FC0000000
0FC0000000
0FC0000000
0FE0000000
0FE0000000
0FE0000000
07E0000000
07F0000000
07F0000000
03F0000000
03F8000000
03F8000000
01F8000000
01FC000000
01FC000000
00FC000000
7FFFFFF800
FFFFFFF800
FFFFFFFC00
FFFFFFFC00
7FFFFFF800
3FFFFFF000
00FE000000
00FE000000
00FE000000
00FE000000
00FE000000
00FE000000
00FC000000
00FC000000
00FC000000
01FC000000
01FC000000
01FC000000
01F8000000
01F800001E
03F800003F
03F800003F
03F000007F
07F000007F
07F00000FE
07E00000FE
0FFFFFFFFC
0FFFFFFFFC
0FFFFFFFF8
0FFFFFFFF8
0FFFFFFFF0
07FFFFFFE0
ENDCHAR
STARTCHAR 00A4
ENCODING 164
SWIDTH 504 0
DWIDTH 42 0
BBX 34 35 4 13
BITMAP
1800000600
7C00001F80
FE00003FC0
FF0FFC7FC0
FFBFFFFFC0
FFFFFFFFC0
7FFFFFFF80
3FFFFFFF00
1FFFFFFE00
0FFF3FFC00
0FF807FC00
1FF003FE00
1FE001FE00
1FC000FE00
3F8000FE00
3F80007F00
3F80007F00
3F80007F00
3F80007F00
3F80007F00
3F8000FE00
1FC000FE00
1FE001FE00
1FF003FC00
0FF807FC00
0FFF3FFC00
1FFFFFFE00
3FFFFFFF00
7FFFFFFF80
FFFFFFFFC0
FFBFFF7FC0
FF0FFC3FC0
FE00001FC0
7C00000F80
1000000600
ENDCHAR
STARTCHAR 00A5
ENCODING 165
SWIDTH 648 0
DWIDTH 54 0
BBX 54 65 0 0
BITMAP
38000000000070
7C0000000000F8
FE0000000001FC
FF0000000001FC
7F0000000003F8
7F8000000007F8
3F8000000007F0
1FC00000000FE0
1FE00000001FE0
0FE00000001FC0
07F00000003FC0
07F80000003F80
03F80000007F00
03FC000000FF00
01FC000000FE00
00FE000001FC00
00FF000001FC00
007F000003F800
003F800007F000
003FC00007F000
001FC0000FE000
001FE0001FE000
000FE0001FC000
0007F0003F8000
0007F8003F8000
0003F8007F0000
0001FC00FE0000
0001FC00FE0000
0000FE01FC0000
00007F03FC0000
00007F03F80000
00003F87F00000
00003FC7F00000
00001FCFE00000
00000FFFC00000
000FFFFFFFC000
001FFFFFFFE000
001FFFFFFFE000
001FFFFFFFE000
001FFFFFFFE000
000FFFFFFFC000
000000FC000000
000000FC000000
000000FC000000
000000FC000000
000000FC000000
000FFFFFFFC000
001FFFFFFFE000
001FFFFFFFE000
001FFFFFFFE000
001FFFFFFFE000
0003FFFFFF0000
000000FC000000
000000FC000000
000000FC000000
000000FC000000
000000FC000000
000000FC000000
000000FC000000
000000FC000000
000000FC000000
000000FC000000
000000FC000000
000000FC000000
00000078000000
ENDCHAR
STARTCHAR 00A6
ENCODING 166
SWIDTH 240 0
DWIDTH 20 0
BBX 7 92 6 -20
BITMAP
18
7C
7E
FE
FE
FE
FE
FE
FE
FE
FE
FE
FE
FE
FE
FE
FE
FE
FE
FE
FE
FE
FE
FE
FE
FE
FE
FE
FE
FE
FE
FE
FE
7E
7E
3C
00
00
00
00
00
00
00
00
00
00
00
00
00
00
00
00
00
00
00
00
38
7C
7E
FE
FE
FE
FE
FE
FE
FE
FE
FE
FE
FE
FE
FE
FE
FE
FE
FE
FE
FE
FE
FE
FE
FE
FE
FE
FE
FE
FE
FE
FE
7E
7C
10
ENDCHAR
STARTCHAR 00A7
ENCODING 167
SWIDTH 468 0
DWIDTH 39 0
BBX 33 85 3 -20
BITMAP
000FF80000
003FFF0000
00FFFF8000
03FFFFE000
07FFFFF000
0FFFFFF800
1FFF7FFC00
1FF007FC00
3FE001FE00
3FC000FF00
7F80007F00
7F00007F00
7E00003F80
FE00003F80
FE00003F80
FE00001F80
FE00001F80
FE00001F80
FE00001F00
7E00000000
7F00000000
7F00000000
7F80000000
3FC0000000
3FE0000000
1FFC000000
0FFFF80000
07FFFF0000
03FFFF8000
03FFFFE000
07FFFFF000
0FFFFFF800
1FFF7FFC00
1FF007FE00
3FE001FE00
3FC000FF00
7F80007F00
7F00007F00
7F00003F80
FE00003F80
FE00003F80
FE00001F80
FE00001F80
FE00003F80
FE00003F80
7E00003F80
7F00003F80
7F00007F00
7F8000FF00
3FC001FE00
3FE003FE00
1FFC1FFC00
0FFFFFF800
07FFFFF800
03FFFFE000
01FFFFE000
007FFFF000
001FFFF800
0000FFFC00
000007FE00
000001FE00
000000FF00
0000007F00
0000007F00
0000003F80
3800003F80
7C00003F80
FE00001F80
FE00001F80
FE00003F80
FE00003F80
7E00003F80
7F00007F00
7F00007F00
7F8000FF00
3FC001FE00
3FF003FE00
1FFC0FFC00
0FFFFFF800
07FFFFF000
03FFFFE000
01FFFFC000
007FFF8000
001FFC0000
0000800000
ENDCHAR
STARTCHAR 00A8
ENCODING 168
SWIDTH 468 0
DWIDTH 39 0
BBX 27 9 7 52
BITMAP
1E000F00
7F001F80
7F803FC0
FF803FE0
FF807FE0
FF803FE0
FF803FC0
7F003FC0
3E000F00
ENDCHAR
STARTCHAR 00A9
ENCODING 169
SWIDTH 864 0
DWIDTH 72 0
BBX 65 65 4 0
BITMAP
0000003FFE00000000
000003FFFFE0000000
00001FFFFFF8000000
00007FFFFFFE000000
0001FFFFFFFF800000
0003FFF80FFFE00000
0007FF0000FFF00000
001FFC00001FF80000
003FF0000007FC0000
007FC0000001FE0000
00FF00000000FF0000
01FE000180003F8000
03FC007FFE001FC000
03F801FFFF800FE000
07F007FFFFE007E000
0FE00FFFFFF007F000
0FC01FFFFFF803F800
1FC03FFE7FFC01F800
1F807FE007FE00FC00
3F00FF8001FF00FC00
3F00FF00007F007E00
3E01FE00003E007E00
7E01FC00001E003E00
7E03F8000000003F00
7C03F0000000003F00
FC07F0000000003F00
FC07F0000000001F00
FC07E0000000001F80
F807E0000000001F80
F807E0000000001F80
F807E0000000001F80
F807E0000000001F80
F807E0000000001F80
F807E0000000001F80
F807E0000000001F80
F807E0000000001F80
F807E0000000001F80
FC07F0000000001F80
FC07F0000000001F00
FC03F0000000003F00
7C03F8000000003F00
7E03F8000000003F00
7E01FC000000007E00
3F01FE000018007E00
3F00FF00007C00FE00
3F807FC000FE00FC00
1F803FF007FE01FC00
1FC01FFFFFFE01F800
0FC00FFFFFFC03F800
0FE007FFFFF807F000
07F001FFFFE00FF000
03F8007FFF801FE000
01FC001FFC003FC000
01FE000000007F8000
00FF80000000FF0000
007FC0000003FE0000
003FF000000FFC0000
001FFC00003FF80000
0007FF8001FFF00000
0003FFFFFFFFE00000
0000FFFFFFFF800000
00007FFFFFFE000000
00000FFFFFF8000000
000003FFFFC0000000
0000001FFC00000000
ENDCHAR
STARTCHAR 00AA
ENCODING 170
SWIDTH 480 0
DWIDTH 40 0
BBX 33 33 3 33
BITMAP
0007F00000
003FFE0000
00FFFF8000
03FFFFE000
07FFFFF000
0FFFFFF800
1FFE3FFC00
1FF007FC00
3FC001FE00
3F8000FF00
7F00007F00
7F00003F00
7E00003F80
7E00003F80
FE00001F80
FE00001F80
FC00001F80
FE00001F80
FE00001F80
7E00003F80
7E00003F80
7F00003F80
7F00007F80
3F8000FF80
3FC001FF80
1FF007FF80
0FFF3FFF80
0FFFFFFF80
07FFFFFF80
01FFFFDF80
00FFFF1F80
003FFE1F80
0007F00F00
ENDCHAR
STARTCHAR 00AB
ENCODING 171
SWIDTH 468 0
DWIDTH 39 0
BBX 33 45 3 0
BITMAP
001F001F00
003F001F80
003F003F80
007F003F80
007F007F80
00FF007F00
00FE00FF00
01FE00FE00
01FC01FE00
03FC01FC00
03F803FC00
07F803F800
07F007F800
0FF007F000
0FE00FF000
1FE00FE000
1FC01FE000
3FC01FC000
3F803FC000
7F803F8000
7F007F8000
FF007F0000
FE007F0000
FF007F0000
7F007F8000
7F803F8000
3F803FC000
3FC01FC000
1FC01FE000
1FE00FE000
0FE00FF000
0FF007F000
07F003F800
07F803F800
03F801FC00
03FC01FC00
01FC00FE00
01FE00FE00
00FE007F00
00FF007F00
007F003F80
007F003F80
003F001F80
003F001F80
001E000F00
ENDCHAR
STARTCHAR 00AC
ENCODING 172
SWIDTH 552 0
DWIDTH 46 0
BBX 39 19 3 19
BITMAP
3FFFFFFFFC
7FFFFFFFFE
FFFFFFFFFE
FFFFFFFFFE
FFFFFFFFFE
7FFFFFFFFE
1FFFFFFFFE
000000007E
000000007E
000000007E
000000007E
000000007E
000000007E
000000007E
000000007E
000000007E
000000007E
000000007E
000000003C
ENDCHAR
STARTCHAR 00AD
ENCODING 173
SWIDTH 396 0
DWIDTH 33 0
BBX 26 6 3 20
BITMAP
3FFFFF80
7FFFFFC0
FFFFFFC0
FFFFFFC0
FFFFFFC0
7FFFFF80
ENDCHAR
STARTCHAR 00AE
ENCODING 174
SWIDTH 864 0
DWIDTH 72 0
BBX 65 65 4 0
BITMAP
0000003FFE00000000
000003FFFFE0000000
00001FFFFFF8000000
00007FFFFFFE000000
0001FFFFFFFF800000
0003FFF80FFFE00000
0007FF0000FFF00000
001FFC00001FF80000
003FF0000007FC0000
007FC0000001FE0000
00FF00000000FF0000
01FE03FFE0003F8000
03FC0FFFFE001FC000
03F80FFFFF800FE000
07F00FFFFFC007E000
0FE00FFFFFE007F000
0FC00FC01FF003F800
1FC00FC007F001F800
1F800FC001F800FC00
3F000FC001F800FC00
3F000FC000FC007E00
3E000FC000FC007E00
7E000FC0007C003E00
7E000FC0007C003F00
7C000FC0007C003F00
FC000FC0007C003F00
FC000FC000FC001F00
FC000FC000FC001F80
F8000FC001F8001F80
F8000FC003F8001F80
F8000FC007F0001F80
F8000FC07FF0001F80
F8000FFFFFE0001F80
F8000FFFFFC0001F80
F8000FFFFF00001F80
F8000FFFFE00001F80
F8000FFFFE00001F80
FC000FC07F00001F80
FC000FC03F00001F00
FC000FC01F80003F00
7C000FC01FC0003F00
7E000FC00FC0003F00
7E000FC007E0007E00
3F000FC007F0007E00
3F000FC003F000FE00
3F800FC003F800FC00
1F800FC001F801FC00
1FC00FC000FC01F800
0FC00FC000FE03F800
0FE00FC0007E07F000
07F00F80003E0FF000
03F80780003C1FE000
01FC000000003FC000
01FE000000007F8000
00FF80000000FF0000
007FC0000003FE0000
003FF000000FFC0000
001FFC00003FF80000
0007FF8001FFF00000
0003FFFFFFFFE00000
0000FFFFFFFF800000
00007FFFFFFE000000
00000FFFFFF8000000
000003FFFFC0000000
0000001FFC00000000
ENDCHAR
STARTCHAR 00AF
ENCODING 175
SWIDTH 552 0
DWIDTH 46 0
BBX 28 6 9 53
BITMAP
7FFFFFE0
FFFFFFF0
FFFFFFF0
FFFFFFF0
FFFFFFE0
7FFFFFC0
ENDCHAR
STARTCHAR 00B0
ENCODING 176
SWIDTH 468 0
DWIDTH 39 0
BBX 33 32 3 33
BITMAP
000FF80000
007FFF0000
00FFFF8000
03FFFFE000
07FFFFF000
0FFFFFF800
1FFE3FFC00
1FF007FC00
3FE003FE00
3F8000FE00
7F8000FF00
7F00007F00
7E00003F00
FE00003F80
FE00003F80
FE00003F80
FE00003F80
FE00003F80
FE00003F80
7E00003F00
7F00007F00
7F00007F00
3F8000FF00
3FC001FE00
1FE007FC00
1FFC1FFC00
0FFFFFF800
07FFFFF000
03FFFFE000
01FFFFC000
007FFF0000
001FFC0000
ENDCHAR
STARTCHAR 00B1
ENCODING 177
SWIDTH 552 0
DWIDTH 46 0
BBX 39 42 3 11
BITMAP
0000380000
00007C0000
00007E0000
0000FE0000
0000FE0000
0000FE0000
0000FE0000
0000FE0000
0000FE0000
0000FE0000
0000FE0000
0000FE0000
0000FE0000
0000FE0000
0000FE0000
0000FE0000
1FFFFFFFF8
7FFFFFFFFC
FFFFFFFFFE
FFFFFFFFFE
FFFFFFFFFE
7FFFFFFFFE
3FFFFFFFFC
0000FE0000
0000FE0000
0000FE0000
0000FE0000
0000FE0000
0000FE0000
0000FE0000
0000FE0000
0000FE0000
0000FE0000
0000FE0000
0000FE0000
3FFFFFFFFC
7FFFFFFFFE
FFFFFFFFFE
FFFFFFFFFE
FFFFFFFFFE
7FFFFFFFFC
1FFFFFFFF8
ENDCHAR
STARTCHAR 00B2
ENCODING 178
SWIDTH 360 0
DWIDTH 30 0
BBX 23 34 4 32
BITMAP
01FC00
07FF80
1FFFC0
3FFFE0
7FFFF0
7F87F0
FE03F8
FC01F8
F800F8
F800FC
F800FC
F800F8
F001F8
6001F8
0003F0
0007F0
000FE0
001FC0
003F80
007F00
00FE00
00FC00
01F800
03F000
07E000
0FC000
1F8000
3F0000
7FFFF0
FFFFFC
FFFFFE
FFFFFE
7FFFFC
3FFFF8
ENDCHAR
STARTCHAR 00B3
ENCODING 179
SWIDTH 372 0
DWIDTH 31 0
BBX 22 35 4 31
BITMAP
01FC00
07FF80
1FFFC0
3FFFE0
7FFFF0
7FCFF0
FE03F8
FC01F8
F800F8
F800F8
F800F8
7000F8
0001F0
0003F0
007FE0
007FC0
007F00
007FC0
003FF0
0003F8
0001F8
7000FC
F800FC
F8007C
F8007C
F8007C
FC00FC
FC00FC
7F03F8
7FFFF8
3FFFF0
1FFFE0
0FFFC0
03FF00
002000
ENDCHAR
STARTCHAR 00B4
ENCODING 180
SWIDTH 276 0
DWIDTH 23 0
BBX 15 16 4 49
BITMAP
003C
007E
00FE
01FE
03FE
07FE
0FFC
1FF8
3FF0
7FE0
FFC0
FF80
FF00
FE00
7C00
3000
ENDCHAR
STARTCHAR 00B5
ENCODING 181
SWIDTH 672 0
DWIDTH 56 0
BBX 42 66 7 -20
BITMAP
200000000200
F80000000F80
FC0000000FC0
FC0000001FC0
FC0000001FC0
FC0000001FC0
FC0000001FC0
FC0000001FC0
FC0000001FC0
FC0000001FC0
FC0000001FC0
FC0000001FC0
FC0000001FC0
FC0000001FC0
FC0000001FC0
FC0000001FC0
FC0000001FC0
FC0000001FC0
FC0000001FC0
FC0000001FC0
FC0000001FC0
FC0000001FC0
FC0000001FC0
FC0000001FC0
FC0000001FC0
FC0000001FC0
FC0000001FC0
FC0000001FC0
FC0000001FC0
FE0000001FC0
FE0000001FC0
FE0000001FC0
FF0000001FC0
FF0000003FC0
FF8000003FC0
FFC000007FC0
FFE00000FFC0
FFF00001FFC0
FFF80007FFC0
FDFE001FFFC0
FCFFFFFFFFC0
FCFFFFFFDFC0
FC3FFFFF9FC0
FC1FFFFE0FC0
FC07FFFC0F80
FC01FFE00780
FC000C000000
FC0000000000
FC0000000000
FC0000000000
FC0000000000
FC0000000000
FC0000000000
FC0000000000
FC0000000000
FC0000000000
FC0000000000
FC0000000000
FC0000000000
FC0000000000
FC0000000000
FC0000000000
FC0000000000
FC0000000000
F80000000000
200000000000
ENDCHAR
STARTCHAR 00B6
ENCODING 182
SWIDTH 576 0
DWIDTH 48 0
BBX 40 65 4 0
BITMAP
001FFFFFFE
007FFFFFFE
01FFFFFFFF
03FFFFFFFF
07FFFFFFFE
0FFFFFFFFE
1FFFFC03F8
3FFFFC03F8
3FFFFC03F8
7FFFFC03F8
7FFFFC03F8
FFFFFC03F8
FFFFFC03F8
FFFFFC03F8
FFFFFC03F8
FFFFFC03F8
FFFFFC03F8
FFFFFC03F8
FFFFFC03F8
FFFFFC03F8
FFFFFC03F8
7FFFFC03F8
7FFFFC03F8
7FFFFC03F8
3FFFFC03F8
1FFFFC03F8
1FFFFC03F8
0FFFFC03F8
07FFFC03F8
01FFFC03F8
00FFFC03F8
001FFC03F8
0000FC03F8
0000FC03F8
0000FC03F8
0000FC03F8
0000FC03F8
0000FC03F8
0000FC03F8
0000FC03F8
0000FC03F8
0000FC03F8
0000FC03F8
0000FC03F8
0000FC03F8
0000FC03F8
0000FC03F8
0000FC03F8
0000FC03F8
0000FC03F8
0000FC03F8
0000FC03F8
0000FC03F8
0000FC03F8
0000FC03F8
0000FC03F8
0000FC03F8
0000FC03F8
0000FC03F8
0000FC03F8
0000FC03F8
0000FC03F8
0000FC03F0
0000FC01F0
00007801E0
ENDCHAR
STARTCHAR 00B7
ENCODING 183
SWIDTH 192 0
DWIDTH 16 0
BBX 10 10 3 26
BITMAP
1E00
3F00
7F80
FF80
FFC0
FFC0
FFC0
7F80
7F00
1E00
ENDCHAR
STARTCHAR 00B8
ENCODING 184
SWIDTH 312 0
DWIDTH 26 0
BBX 21 23 3 -19
BITMAP
001800
007C00
00FE00
00FE00
00FC00
01FC00
01FC00
01FE00
01FF80
01FFE0
007FF0
000FF0
0007F8
0003F8
7003F8
F803F8
FC03F8
FF0FF0
FFFFF0
FFFFE0
7FFFC0
3FFF80
0FFE00
ENDCHAR
STARTCHAR 00B9
ENCODING 185
SWIDTH 276 0
DWIDTH 23 0
BBX 15 33 2 33
BITMAP
001C
00FE
07FE
3FFE
FFFE
FFFE
FFFE
FE3E
703E
003E
003E
003E
003E
003E
003E
003E
003E
003E
003E
003E
003E
003E
003E
003E
003E
003E
003E
003E
003E
003E
003E
003E
001C
ENDCHAR
STARTCHAR 00BA
ENCODING 186
SWIDTH 468 0
DWIDTH 39 0
BBX 33 33 3 33
BITMAP
0007F00000
003FFE0000
00FFFF8000
03FFFFE000
07FFFFF000
0FFFFFF800
1FFE3FFC00
1FF007FC00
3FC001FE00
3F8000FF00
7F00007F00
7F00003F00
7E00003F80
7E00003F80
FE00001F80
FE00001F80
FC00001F80
FE00001F80
FE00001F80
7E00003F80
7E00003F80
7F00003F00
7F00007F00
3F8000FF00
3FC001FE00
1FF007FC00
0FFF3FFC00
0FFFFFF800
07FFFFF000
01FFFFE000
00FFFF8000
003FFE0000
0007F00000
ENDCHAR
STARTCHAR 00BB
ENCODING 187
SWIDTH 468 0
DWIDTH 39 0
BBX 33 45 3 0
BITMAP
7C003C0000
FC007E0000
FE007F0000
FE007F0000
7F007F8000
7F003F8000
3F803FC000
3F801FC000
1FC01FE000
1FC00FE000
0FE00FF000
0FE007F000
07F007F800
07F003F800
03F803FC00
03F801FC00
01FC01FE00
01FC00FE00
00FE00FF00
00FE007F00
007F007F80
007F003F80
007F003F80
007F003F80
00FF007F00
00FE007F00
01FE00FE00
01FC00FE00
03FC01FC00
03F801FC00
03F803F800
07F003F800
0FF007F000
0FE007F000
0FE00FE000
1FC00FE000
1FC01FC000
3F801FC000
3F803F8000
7F003F8000
7F007F0000
FE007F0000
FE007E0000
7C007E0000
38003C0000
ENDCHAR
STARTCHAR 00BC
ENCODING 188
SWIDTH 768 0
DWIDTH 64 0
BBX 58 66 2 0
BITMAP
0000000000004000
001C00000001F000
00FE00000003F000
07FE00000003F000
3FFE00000007F000
FFFE0000000FE000
FFFE0000000FC000
FFFE0000001FC000
FE3E0000003F8000
703E0000003F0000
003E0000007F0000
003E0000007E0000
003E000000FC0000
003E000001FC0000
003E000001F80000
003E000003F00000
003E000007F00000
003E000007E00000
003E00000FC00000
003E00001FC00000
003E00001F800000
003E00003F000000
003E00007F000000
003E00007E000000
003E0000FC000000
003E0001FC000000
003E0001F8000000
003E0003F0000000
003E0007F0000000
003E0007E0000000
003E000FC0000000
003E001FC0000000
003E001F80000000
001C003F8001F000
0000003F0001F800
0000007E0003F800
000000FE0007F800
000000FC000FF800
000001F8001FF800
000003F8001FF800
000003F0003FF800
000007E0007FF800
00000FE000FDF800
00000FC000F9F800
00001F8001F9F800
00003F8003F1F800
00003F0007E1F800
00007E000FC1F800
0000FE000FC1F800
0000FC001F81F800
0001F8003F01F800
0003F8007E01F800
0003F0007E01F800
0007E000FC01F800
0007E001FFFFFF80
000FC001FFFFFFC0
001F8001FFFFFFC0
001F8001FFFFFFC0
003F0000FFFFFF80
007E00000001F800
007E00000001F800
00FC00000001F800
01F800000001F800
01F800000001F800
01F000000001F800
00E000000000F000
ENDCHAR
STARTCHAR 00BD
ENCODING 189
SWIDTH 816 0
DWIDTH 68 0
BBX 63 65 2 1
BITMAP
001C000000003C00
00FE000000007C00
07FE00000000FC00
3FFE00000000FC00
FFFE00000001F800
FFFE00000003F800
FFFE00000003F000
FE3E00000007E000
703E0000000FE000
003E0000000FC000
003E0000001F8000
003E0000003F8000
003E0000003F0000
003E0000007E0000
003E000000FE0000
003E000000FC0000
003E000001FC0000
003E000003F80000
003E000003F00000
003E000007F00000
003E00000FE00000
003E00000FC00000
003E00001FC00000
003E00001F800000
003E00003F000000
003E00007F000000
003E00007E000000
003E0000FC000000
003E0001FC000000
003E0001F8000000
003E0003F0000000
003E0007F000FC00
001C0007E007FF80
0000000FC00FFFC0
0000001FC01FFFE0
0000001F803FFFF0
0000003F007FCFF8
0000007F007E03F8
0000007E00FC01F8
000000FC00F800F8
000001FC00F800FC
000001F800F800FC
000003F000F800FC
000007F000F800F8
000007E0007001F8
00000FC0000003F0
00000FC0000007F0
00001F8000000FE0
00003F0000000FC0
00003F0000001F80
00007E0000003F00
0000FC0000007E00
0000FC000000FC00
0001F8000001F800
0003F0000003F800
0003F0000007F000
0007E000000FE000
000FE000001FC000
000FC000003F8000
001F8000007F0000
003F8000007FFFFC
003F000000FFFFFE
003E000000FFFFFE
003E0000007FFFFC
003C0000003FFFFC
ENDCHAR
STARTCHAR 00BE
ENCODING 190
SWIDTH 840 0
DWIDTH 70 0
BBX 62 66 4 0
BITMAP
01FC000000001000
07FF800000007800
1FFFC0000000FC00
3FFFE0000000FC00
7FFFF0000001F800
7FCFF0000003F800
FE03F8000003F000
FC01F8000007F000
F800F800000FE000
F800F800000FC000
F800F800001FC000
7000F800003F8000
0001F000003F0000
0003F000007F0000
007FE00000FE0000
007FC00000FC0000
007F000001FC0000
007FC00003F80000
003FF00003F00000
0003F80007F00000
0001F80007E00000
7000FC000FC00000
F800FC001FC00000
F8007C001F800000
F8007C003F000000
F8007C007F000000
FC00FC007E000000
FC00FC00FC000000
7F03F801FC000000
7FFFF801F8000000
3FFFF003F0000000
1FFFE007F0000000
0FFFC007E0000000
03FF000FC0001F00
0020001FC0003F00
0000001F80007F00
0000003F00007F00
0000007F0000FF00
0000007E0001FF00
000000FC0003FF00
000001FC0003FF00
000001F80007FF00
000003F0000FDF00
000007F0001F9F00
000007E0001F1F00
00000FE0003F1F00
00000FC0007E1F00
00001F8000FC1F00
00003F8001F81F00
00003F0001F01F00
00007E0003F01F00
0000FE0007E01F00
0000FC000FC01F00
0001F8000F801F00
0003F8001FFFFFF8
0003F0003FFFFFFC
0007E0003FFFFFFC
000FE0001FFFFFFC
000FC0000FFFFFF8
001F800000001F00
003F800000001F00
003F000000001F00
007E000000001F00
007E000000001F00
007C000000001F00
0038000000001F00
ENDCHAR
STARTCHAR 00BF
ENCODING 191
SWIDTH 552 0
DWIDTH 46 0
BBX 39 67 3 -15
BITMAP
0000380000
0000FE0000
0001FF0000
0001FF0000
0001FF0000
0001FF0000
0001FF0000
0001FF0000
0000FE0000
00007C0000
0000000000
0000000000
0000000000
0000000000
0000000000
0000380000
00007C0000
0000FE0000
0000FE0000
0000FE0000
0000FE0000
0000FC0000
0000FC0000
0001FC0000
0001FC0000
0001F80000
0003F80000
0007F00000
000FF00000
001FE00000
003FC00000
007F800000
00FF000000
01FE000000
03FC000000
07F8000000
0FF0000000
1FE0000000
1FC0000000
3F80000000
3F80000000
7F00000000
7F00000000
7E00000000
FE0000003C
FE0000007E
FE0000007E
FE0000007E
FC0000007E
FE000000FE
FE000000FE
FE000000FE
FE000000FC
7E000001FC
7F000001FC
7F800003F8
3F800007F8
3FE0000FF0
1FF0001FF0
0FFC007FE0
07FFFFFFC0
03FFFFFF80
01FFFFFF00
00FFFFFE00
003FFFF800
000FFFE000
0000780000
ENDCHAR
STARTCHAR 00C0
ENCODING 192
SWIDTH 708 0
DWIDTH 59 0
BBX 55 88 2 0
BITMAP
0000F000000000
0001F800000000
0001FC00000000
0001FE00000000
0001FF00000000
0000FF80000000
00007FC0000000
00003FE0000000
00001FF0000000
00000FF8000000
000007FC000000
000003FC000000
000001FC000000
000000FC000000
0000007C000000
00000000000000
00000000000000
00000000000000
00000000000000
00000000000000
00000000000000
00000000000000
00000000000000
00000038000000
0000007C000000
000000FE000000
000000FE000000
000001FF000000
000001FF000000
000003FF000000
000003FF800000
000003FF800000
000007FFC00000
000007FFC00000
00000FEFE00000
00000FEFE00000
00000FC7E00000
00001FC7F00000
00001F83F00000
00003F83F80000
00003F83F80000
00007F01F80000
00007F01FC0000
00007E00FC0000
0000FE00FE0000
0000FE00FE0000
0001FC007F0000
0001FC007F0000
0003F8003F0000
0003F8003F8000
0003F0001F8000
0007F0001FC000
0007F0001FC000
000FE0000FE000
000FE0000FE000
000FC00007E000
001FC00007F000
001FC00007F000
003F800003F800
003F800003F800
007F000001F800
007F000001FC00
007E000001FC00
00FE000000FE00
00FE000000FE00
01FC0000007F00
01FC0000007F00
03FFFFFFFFFF00
03FFFFFFFFFF80
03FFFFFFFFFF80
07FFFFFFFFFFC0
07FFFFFFFFFFC0
0FFFFFFFFFFFE0
0FE00000000FE0
0FE00000000FE0
1FC000000007F0
1FC000000007F0
3F8000000003F8
3F8000000003F8
7F0000000003FC
7F0000000001FC
7F0000000001FC
FE0000000000FE
FE0000000000FE
FC00000000007E
FC00000000007E
FC00000000007E
7800000000003C
ENDCHAR
STARTCHAR 00C1
ENCODING 193
SWIDTH 708 0
DWIDTH 59 0
BBX 55 88 2 0
BITMAP
00000000180000
000000007C0000
00000000FE0000
00000001FE0000
00000003FE0000
00000007FC0000
0000000FFC0000
0000001FF80000
0000003FF00000
0000007FE00000
000000FFC00000
000000FF800000
000001FF000000
000000FE000000
000000FC000000
00000078000000
00000000000000
00000000000000
00000000000000
00000000000000
00000000000000
00000000000000
00000000000000
00000038000000
0000007C000000
000000FE000000
000000FE000000
000001FF000000
000001FF000000
000003FF000000
000003FF800000
000003FF800000
000007FFC00000
000007FFC00000
00000FEFE00000
00000FEFE00000
00000FC7E00000
00001FC7F00000
00001F83F00000
00003F83F80000
00003F83F80000
00007F01F80000
00007F01FC0000
00007E00FC0000
0000FE00FE0000
0000FE00FE0000
0001FC007F0000
0001FC007F0000
0003F8003F0000
0003F8003F8000
0003F0001F8000
0007F0001FC000
0007F0001FC000
000FE0000FE000
000FE0000FE000
000FC00007E000
001FC00007F000
001FC00007F000
003F800003F800
003F800003F800
007F000001F800
007F000001FC00
007E000001FC00
00FE000000FE00
00FE000000FE00
01FC0000007F00
01FC0000007F00
03FFFFFFFFFF00
03FFFFFFFFFF80
03FFFFFFFFFF80
07FFFFFFFFFFC0
07FFFFFFFFFFC0
0FFFFFFFFFFFE0
0FE00000000FE0
0FE00000000FE0
1FC000000007F0
1FC000000007F0
3F8000000003F8
3F8000000003F8
7F0000000003FC
7F0000000001FC
7F0000000001FC
FE0000000000FE
FE0000000000FE
FC00000000007E
FC00000000007E
FC00000000007E
7800000000003C
ENDCHAR
STARTCHAR 00C2
ENCODING 194
SWIDTH 708 0
DWIDTH 59 0
BBX 55 85 2 0
BITMAP
00000038000000
000000FE000000
000001FF000000
000007FFC00000
00000FFFE00000
00003FFFF80000
00007FFFFC0000
0001FFC7FE0000
0001FF83FF0000
0003FE01FF0000
0003FC007F0000
0001F0003F0000
000060000C0000
00000000000000
00000000000000
00000000000000
00000000000000
00000000000000
00000000000000
00000000000000
00000038000000
0000007C000000
000000FE000000
000000FE000000
000001FF000000
000001FF000000
000003FF000000
000003FF800000
000003FF800000
000007FFC00000
000007FFC00000
00000FEFE00000
00000FEFE00000
00000FC7E00000
00001FC7F00000
00001F83F00000
00003F83F80000
00003F83F80000
00007F01F80000
00007F01FC0000
00007E00FC0000
0000FE00FE0000
0000FE00FE0000
0001FC007F0000
0001FC007F0000
0003F8003F0000
0003F8003F8000
0003F0001F8000
0007F0001FC000
0007F0001FC000
000FE0000FE000
000FE0000FE000
000FC00007E000
001FC00007F000
001FC00007F000
003F800003F800
003F800003F800
007F000001F800
007F000001FC00
007E000001FC00
00FE000000FE00
00FE000000FE00
01FC0000007F00
01FC0000007F00
03FFFFFFFFFF00
03FFFFFFFFFF80
03FFFFFFFFFF80
07FFFFFFFFFFC0
07FFFFFFFFFFC0
0FFFFFFFFFFFE0
0FE00000000FE0
0FE00000000FE0
1FC000000007F0
1FC000000007F0
3F8000000003F8
3F8000000003F8
7F0000000003FC
7F0000000001FC
7F0000000001FC
FE0000000000FE
FE0000000000FE
FC00000000007E
FC00000000007E
FC00000000007E
7800000000003C
ENDCHAR
STARTCHAR 00C3
ENCODING 195
SWIDTH 708 0
DWIDTH 59 0
BBX 55 84 2 0
BITMAP
00000600000000
00003FC0000000
00007FF01E0000
0000FFF83F0000
0001FFFC3F0000
0001FFFFFF0000
0003F8FFFE0000
0003F03FFC0000
0003E01FFC0000
0003E00FF80000
00000003E00000
00000000000000
00000000000000
00000000000000
00000000000000
00000000000000
00000000000000
00000000000000
00000000000000
00000038000000
0000007C000000
000000FE000000
000000FE000000
000001FF000000
000001FF000000
000003FF000000
000003FF800000
000003FF800000
000007FFC00000
000007FFC00000
00000FEFE00000
00000FEFE00000
00000FC7E00000
00001FC7F00000
00001F83F00000
00003F83F80000
00003F83F80000
00007F01F80000
00007F01FC0000
00007E00FC0000
0000FE00FE0000
0000FE00FE0000
0001FC007F0000
0001FC007F0000
0003F8003F0000
0003F8003F8000
0003F0001F8000
0007F0001FC000
0007F0001FC000
000FE0000FE000
000FE0000FE000
000FC00007E000
001FC00007F000
001FC00007F000
003F800003F800
003F800003F800
007F000001F800
007F000001FC00
007E000001FC00
00FE000000FE00
00FE000000FE00
01FC0000007F00
01FC0000007F00
03FFFFFFFFFF00
03FFFFFFFFFF80
03FFFFFFFFFF80
07FFFFFFFFFFC0
07FFFFFFFFFFC0
0FFFFFFFFFFFE0
0FE00000000FE0
0FE00000000FE0
1FC000000007F0
1FC000000007F0
3F8000000003F8
3F8000000003F8
7F0000000003FC
7F0000000001FC
7F0000000001FC
FE0000000000FE
FE0000000000FE
FC00000000007E
FC00000000007E
FC00000000007E
7800000000003C
ENDCHAR
STARTCHAR 00C4
ENCODING 196
SWIDTH 708 0
DWIDTH 59 0
BBX 55 83 2 0
BITMAP
00002000000000
0000FC007E0000
0001FE00FF0000
0003FE00FF0000
0003FE00FF8000
0003FE01FF8000
0003FE00FF0000
0001FE00FF0000
0000FC007E0000
00002000080000
00000000000000
00000000000000
00000000000000
00000000000000
00000000000000
00000000000000
00000000000000
00000000000000
00000038000000
0000007C000000
000000FE000000
000000FE000000
000001FF000000
000001FF000000
000003FF000000
000003FF800000
000003FF800000
000007FFC00000
000007FFC00000
00000FEFE00000
00000FEFE00000
00000FC7E00000
00001FC7F00000
00001F83F00000
00003F83F80000
00003F83F80000
00007F01F80000
00007F01FC0000
00007E00FC0000
0000FE00FE0000
0000FE00FE0000
0001FC007F0000
0001FC007F0000
0003F8003F0000
0003F8003F8000
0003F0001F8000
0007F0001FC000
0007F0001FC000
000FE0000FE000
000FE0000FE000
000FC00007E000
001FC00007F000
001FC00007F000
003F800003F800
003F800003F800
007F000001F800
007F000001FC00
007E000001FC00
00FE000000FE00
00FE000000FE00
01FC0000007F00
01FC0000007F00
03FFFFFFFFFF00
03FFFFFFFFFF80
03FFFFFFFFFF80
07FFFFFFFFFFC0
07FFFFFFFFFFC0
0FFFFFFFFFFFE0
0FE00000000FE0
0FE00000000FE0
1FC000000007F0
1FC000000007F0
3F8000000003F8
3F8000000003F8
7F0000000003FC
7F0000000001FC
7F0000000001FC
FE0000000000FE
FE0000000000FE
FC00000000007E
FC00000000007E
FC00000000007E
7800000000003C
ENDCHAR
STARTCHAR 00C5
ENCODING 197
SWIDTH 708 0
DWIDTH 59 0
BBX 55 85 2 0
BITMAP
000000FE000000
000003FF000000
000007FF800000
00000FFFC00000
00000F83E00000
00001F01E00000
00001E01E00000
00001E00E00000
00001E00E00000
00001E01E00000
00000F01E00000
00000F83E00000
00000FFFC00000
000007FF800000
000003FF000000
000000FC000000
00000000000000
00000000000000
00000000000000
00000000000000
00000038000000
0000007C000000
000000FE000000
000000FE000000
000001FF000000
000001FF000000
000003FF000000
000003FF800000
000003FF800000
000007FFC00000
000007FFC00000
00000FEFE00000
00000FEFE00000
00000FC7E00000
00001FC7F00000
00001F83F00000
00003F83F80000
00003F83F80000
00007F01F80000
00007F01FC0000
00007E00FC0000
0000FE00FE0000
0000FE00FE0000
0001FC007F0000
0001FC007F0000
0003F8003F0000
0003F8003F8000
0003F0001F8000
0007F0001FC000
0007F0001FC000
000FE0000FE000
000FE0000FE000
000FC00007E000
001FC00007F000
001FC00007F000
003F800003F800
003F800003F800
007F000001F800
007F000001FC00
007E000001FC00
00FE000000FE00
00FE000000FE00
01FC0000007F00
01FC0000007F00
03FFFFFFFFFF00
03FFFFFFFFFF80
03FFFFFFFFFF80
07FFFFFFFFFFC0
07FFFFFFFFFFC0
0FFFFFFFFFFFE0
0FE00000000FE0
0FE00000000FE0
1FC000000007F0
1FC000000007F0
3F8000000003F8
3F8000000003F8
7F0000000003FC
7F0000000001FC
7F0000000001FC
FE0000000000FE
FE0000000000FE
FC00000000007E
FC00000000007E
FC00000000007E
7800000000003C
ENDCHAR
STARTCHAR 00C6
ENCODING 198
SWIDTH 960 0
DWIDTH 80 0
BBX 74 65 2 0
BITMAP
0000000007FFFFFFFF80
000000000FFFFFFFFFC0
000000001FFFFFFFFFC0
000000003FFFFFFFFFC0
000000003FFFFFFFFFC0
000000007FFFFFFFFF80
00000000FF8000000000
00000000FF8000000000
00000001FF8000000000
00000001FF8000000000
00000003FF8000000000
00000007FF8000000000
00000007FF8000000000
0000000FFF8000000000
0000000FFF8000000000
0000001FDF8000000000
0000003FDF8000000000
0000003F9F8000000000
0000007F1F8000000000
0000007F1F8000000000
000000FE1F8000000000
000001FE1F8000000000
000001FC1F8000000000
000003F81F8000000000
000003F81F8000000000
000007F01F8000000000
00000FF01F8000000000
00000FE01F8000000000
00001FC01F8000000000
00001FC01FFFFFFE0000
00003F801FFFFFFF0000
00007F801FFFFFFF0000
00007F001FFFFFFF0000
0000FF001FFFFFFF0000
0000FE001FFFFFFF0000
0001FC001FFFFFF80000
0003FC001F8000000000
0003F8001F8000000000
0007F8001F8000000000
0007F0001F8000000000
000FE0001F8000000000
001FE0001F8000000000
001FC0001F8000000000
003FC0001F8000000000
003FFFFFFF8000000000
007FFFFFFF8000000000
00FFFFFFFF8000000000
00FFFFFFFF8000000000
01FFFFFFFF8000000000
01FFFFFFFF8000000000
03F800001F8000000000
07F800001F8000000000
07F000001F8000000000
0FF000001F8000000000
1FE000001F8000000000
1FC000001F8000000000
3FC000001F8000000000
3F8000001F8000000000
7F8000001F8000000000
FF0000001FFFFFFFFF80
FE0000001FFFFFFFFFC0
FE0000001FFFFFFFFFC0
FC0000001FFFFFFFFFC0
FC0000001FFFFFFFFFC0
780000000FFFFFFFFF80
ENDCHAR
STARTCHAR 00C7
ENCODING 199
SWIDTH 768 0
DWIDTH 64 0
BBX 54 85 5 -19
BITMAP
0000001FFC0000
000001FFFFC000
00000FFFFFF800
00003FFFFFFE00
0000FFFFFFFF80
0001FFFFFFFFC0
0007FFF80FFFF0
000FFF80007FF8
001FFC00000FFC
003FF0000007FC
007FE0000001FC
00FF80000000F8
01FF0000000030
01FE0000000000
03FC0000000000
07F80000000000
07F00000000000
0FF00000000000
0FE00000000000
1FC00000000000
1FC00000000000
3F800000000000
3F800000000000
3F000000000000
7F000000000000
7F000000000000
7E000000000000
7E000000000000
FE000000000000
FE000000000000
FE000000000000
FE000000000000
FC000000000000
FC000000000000
FE000000000000
FE000000000000
FE000000000000
FE000000000000
FE000000000000
7E000000000000
7E000000000000
7F000000000000
7F000000000000
3F000000000000
3F800000000000
3F800000000000
1FC00000000000
1FC00000000000
0FE00000000000
0FE00000000000
07F00000000000
07F80000000000
03FC0000000000
01FE0000000000
01FF0000000030
00FF80000000F8
007FE0000001FC
003FF0000007FC
001FFC00001FFC
000FFF8000FFF8
0003FFFC1FFFF0
0001FFFFFFFFE0
00007FFFFFFF80
00003FFFFFFF00
00000FFFFFFC00
000001FFFFE000
0000000FFC0000
00000007F00000
00000007E00000
0000000FF80000
0000000FFE0000
00000007FF0000
00000001FF8000
000000003FC000
000000001FE000
000000000FE000
000001C00FE000
000003E00FE000
000007F01FE000
000007F83FC000
000003FFFFC000
000003FFFF8000
000001FFFF0000
000000FFFE0000
0000003FF80000
ENDCHAR
STARTCHAR 00C8
ENCODING 200
SWIDTH 696 0
DWIDTH 58 0
BBX 46 88 8 0
BITMAP
000F80000000
000FC0000000
001FE0000000
001FF0000000
000FF8000000
000FFC000000
0007FE000000
0003FF000000
0001FF800000
0000FF800000
00007FC00000
00003FE00000
00001FE00000
00000FE00000
000007C00000
000000000000
000000000000
000000000000
000000000000
000000000000
000000000000
000000000000
000000000000
3FFFFFFFFFF8
7FFFFFFFFFF8
FFFFFFFFFFFC
FFFFFFFFFFFC
FFFFFFFFFFFC
FFFFFFFFFFF8
FE0000000000
FE0000000000
FE0000000000
FE0000000000
FE0000000000
FE0000000000
FE0000000000
FE0000000000
FE0000000000
FE0000000000
FE0000000000
FE0000000000
FE0000000000
FE0000000000
FE0000000000
FE0000000000
FE0000000000
FE0000000000
FE0000000000
FE0000000000
FE0000000000
FE0000000000
FE0000000000
FFFFFFFFC000
FFFFFFFFF000
FFFFFFFFF000
FFFFFFFFF000
FFFFFFFFF000
FFFFFFFFE000
FFFFFFFF8000
FE0000000000
FE0000000000
FE0000000000
FE0000000000
FE0000000000
FE0000000000
FE0000000000
FE0000000000
FE0000000000
FE0000000000
FE0000000000
FE0000000000
FE0000000000
FE0000000000
FE0000000000
FE0000000000
FE0000000000
FE0000000000
FE0000000000
FE0000000000
FE0000000000
FE0000000000
FE0000000000
FFFFFFFFFFF8
FFFFFFFFFFFC
FFFFFFFFFFFC
FFFFFFFFFFFC
7FFFFFFFFFF8
3FFFFFFFFFF0
ENDCHAR
STARTCHAR 00C9
ENCODING 201
SWIDTH 696 0
DWIDTH 58 0
BBX 46 88 8 0
BITMAP
000000018000
00000003E000
00000007E000
0000000FE000
0000001FE000
0000003FE000
0000007FC000
000000FF8000
000001FF0000
000003FE0000
000007FC0000
00000FF80000
00000FF00000
00000FE00000
00000FC00000
000007800000
000000000000
000000000000
000000000000
000000000000
000000000000
000000000000
000000000000
3FFFFFFFFFF8
7FFFFFFFFFF8
FFFFFFFFFFFC
FFFFFFFFFFFC
FFFFFFFFFFFC
FFFFFFFFFFF8
FE0000000000
FE0000000000
FE0000000000
FE0000000000
FE0000000000
FE0000000000
FE0000000000
FE0000000000
FE0000000000
FE0000000000
FE0000000000
FE0000000000
FE0000000000
FE0000000000
FE0000000000
FE0000000000
FE0000000000
FE0000000000
FE0000000000
FE0000000000
FE0000000000
FE0000000000
FE0000000000
FFFFFFFFC000
FFFFFFFFF000
FFFFFFFFF000
FFFFFFFFF000
FFFFFFFFF000
FFFFFFFFE000
FFFFFFFF8000
FE0000000000
FE0000000000
FE0000000000
FE0000000000
FE0000000000
FE0000000000
FE0000000000
FE0000000000
FE0000000000
FE0000000000
FE0000000000
FE0000000000
FE0000000000
FE0000000000
FE0000000000
FE0000000000
FE0000000000
FE0000000000
FE0000000000
FE0000000000
FE0000000000
FE0000000000
FE0000000000
FFFFFFFFFFF8
FFFFFFFFFFFC
FFFFFFFFFFFC
FFFFFFFFFFFC
7FFFFFFFFFF8
3FFFFFFFFFF0
ENDCHAR
STARTCHAR 00CA
ENCODING 202
SWIDTH 696 0
DWIDTH 58 0
BBX 46 85 8 0
BITMAP
000003C00000
000007E00000
00001FF80000
00007FFC0000
0000FFFF0000
0003FFFF8000
0007FFFFE000
000FFE7FF000
001FF83FF000
001FF00FF800
001FC007F800
001F8001F000
00060000E000
000000000000
000000000000
000000000000
000000000000
000000000000
000000000000
000000000000
3FFFFFFFFFF8
7FFFFFFFFFF8
FFFFFFFFFFFC
FFFFFFFFFFFC
FFFFFFFFFFFC
FFFFFFFFFFF8
FE0000000000
FE0000000000
FE0000000000
FE0000000000
FE0000000000
FE0000000000
FE0000000000
FE0000000000
FE0000000000
FE0000000000
FE0000000000
FE0000000000
FE0000000000
FE0000000000
FE0000000000
FE0000000000
FE0000000000
FE0000000000
FE0000000000
FE0000000000
FE0000000000
FE0000000000
FE0000000000
FFFFFFFFC000
FFFFFFFFF000
FFFFFFFFF000
FFFFFFFFF000
FFFFFFFFF000
FFFFFFFFE000
FFFFFFFF8000
FE0000000000
FE0000000000
FE0000000000
FE0000000000
FE0000000000
FE0000000000
FE0000000000
FE0000000000
FE0000000000
FE0000000000
FE0000000000
FE0000000000
FE0000000000
FE0000000000
FE0000000000
FE0000000000
FE0000000000
FE0000000000
FE0000000000
FE0000000000
FE0000000000
FE0000000000
FE0000000000
FFFFFFFFFFF8
FFFFFFFFFFFC
FFFFFFFFFFFC
FFFFFFFFFFFC
7FFFFFFFFFF8
3FFFFFFFFFF0
ENDCHAR
STARTCHAR 00CB
ENCODING 203
SWIDTH 696 0
DWIDTH 58 0
BBX 46 83 8 0
BITMAP
000000008000
000FC007E000
001FE007F000
001FE00FF800
003FF00FF800
003FF00FF800
001FE00FF800
001FE007F000
000FC007E000
000200008000
000000000000
000000000000
000000000000
000000000000
000000000000
000000000000
000000000000
000000000000
3FFFFFFFFFF8
7FFFFFFFFFF8
FFFFFFFFFFFC
FFFFFFFFFFFC
FFFFFFFFFFFC
FFFFFFFFFFF8
FE0000000000
FE0000000000
FE0000000000
FE0000000000
FE0000000000
FE0000000000
FE0000000000
FE0000000000
FE0000000000
FE0000000000
FE0000000000
FE0000000000
FE0000000000
FE0000000000
FE0000000000
FE0000000000
FE0000000000
FE0000000000
FE0000000000
FE0000000000
FE0000000000
FE0000000000
FE0000000000
FFFFFFFFC000
FFFFFFFFF000
FFFFFFFFF000
FFFFFFFFF000
FFFFFFFFF000
FFFFFFFFE000
FFFFFFFF8000
FE0000000000
FE0000000000
FE0000000000
FE0000000000
FE0000000000
FE0000000000
FE0000000000
FE0000000000
FE0000000000
FE0000000000
FE0000000000
FE0000000000
FE0000000000
FE0000000000
FE0000000000
FE0000000000
FE0000000000
FE0000000000
FE0000000000
FE0000000000
FE0000000000
FE0000000000
FE0000000000
FFFFFFFFFFF8
FFFFFFFFFFFC
FFFFFFFFFFFC
FFFFFFFFFFFC
7FFFFFFFFFF8
3FFFFFFFFFF0
ENDCHAR
STARTCHAR 00CC
ENCODING 204
SWIDTH 276 0
DWIDTH 23 0
BBX 16 88 -1 0
BITMAP
7800
FC00
FE00
FF00
FF80
7FC0
3FE0
1FF0
0FF8
07FC
03FE
01FF
00FF
007E
003E
0008
0000
0000
0000
0000
0000
0000
0000
001C
003E
007F
007F
007F
007F
007F
007F
007F
007F
007F
007F
007F
007F
007F
007F
007F
007F
007F
007F
007F
007F
007F
007F
007F
007F
007F
007F
007F
007F
007F
007F
007F
007F
007F
007F
007F
007F
007F
007F
007F
007F
007F
007F
007F
007F
007F
007F
007F
007F
007F
007F
007F
007F
007F
007F
007F
007F
007F
007F
007F
007F
007F
003E
001C
ENDCHAR
STARTCHAR 00CD
ENCODING 205
SWIDTH 276 0
DWIDTH 23 0
BBX 15 88 8 0
BITMAP
0018
003E
007E
00FE
01FE
03FE
07FC
0FF8
1FF0
3FE0
7FC0
FF80
FF00
FE00
FC00
7800
0000
0000
0000
0000
0000
0000
0000
3800
7C00
FE00
FE00
FE00
FE00
FE00
FE00
FE00
FE00
FE00
FE00
FE00
FE00
FE00
FE00
FE00
FE00
FE00
FE00
FE00
FE00
FE00
FE00
FE00
FE00
FE00
FE00
FE00
FE00
FE00
FE00
FE00
FE00
FE00
FE00
FE00
FE00
FE00
FE00
FE00
FE00
FE00
FE00
FE00
FE00
FE00
FE00
FE00
FE00
FE00
FE00
FE00
FE00
FE00
FE00
FE00
FE00
FE00
FE00
FE00
FE00
FE00
7C00
3800
ENDCHAR
STARTCHAR 00CE
ENCODING 206
SWIDTH 276 0
DWIDTH 23 0
BBX 26 85 -1 0
BITMAP
001C0000
007F0000
00FF8000
03FFE000
07FFF000
1FFFFC00
3FFFFE00
FFE3FF80
FFC1FF80
FF007FC0
FE003F80
FC000F80
30000700
00000000
00000000
00000000
00000000
00000000
00000000
00000000
001C0000
003E0000
007F0000
007F0000
007F0000
007F0000
007F0000
007F0000
007F0000
007F0000
007F0000
007F0000
007F0000
007F0000
007F0000
007F0000
007F0000
007F0000
007F0000
007F0000
007F0000
007F0000
007F0000
007F0000
007F0000
007F0000
007F0000
007F0000
007F0000
007F0000
007F0000
007F0000
007F0000
007F0000
007F0000
007F0000
007F0000
007F0000
007F0000
007F0000
007F0000
007F0000
007F0000
007F0000
007F0000
007F0000
007F0000
007F0000
007F0000
007F0000
007F0000
007F0000
007F0000
007F0000
007F0000
007F0000
007F0000
007F0000
007F0000
007F0000
007F0000
007F0000
007F0000
003E0000
001C0000
ENDCHAR
STARTCHAR 00CF
ENCODING 207
SWIDTH 276 0
DWIDTH 23 0
BBX 27 83 -2 0
BITMAP
00000200
3F001F80
7F803FC0
7F803FE0
FF803FE0
FF803FE0
7F803FE0
7F803FC0
3F001F80
08000200
00000000
00000000
00000000
00000000
00000000
00000000
00000000
00000000
000E0000
001F0000
003F8000
003F8000
003F8000
003F8000
003F8000
003F8000
003F8000
003F8000
003F8000
003F8000
003F8000
003F8000
003F8000
003F8000
003F8000
003F8000
003F8000
003F8000
003F8000
003F8000
003F8000
003F8000
003F8000
003F8000
003F8000
003F8000
003F8000
003F8000
003F8000
003F8000
003F8000
003F8000
003F8000
003F8000
003F8000
003F8000
003F8000
003F8000
003F8000
003F8000
003F8000
003F8000
003F8000
003F8000
003F8000
003F8000
003F8000
003F8000
003F8000
003F8000
003F8000
003F8000
003F8000
003F8000
003F8000
003F8000
003F8000
003F8000
003F8000
003F8000
003F8000
001F0000
000E0000
ENDCHAR
STARTCHAR 00D0
ENCODING 208
SWIDTH 768 0
DWIDTH 64 0
BBX 59 65 0 0
BITMAP
003FFFFF80000000
007FFFFFF8000000
00FFFFFFFF000000
00FFFFFFFFC00000
00FFFFFFFFF00000
00FFFFFFFFFC0000
00FE00007FFE0000
00FE00000FFF0000
00FE000001FF8000
00FE0000007FC000
00FE0000003FE000
00FE0000001FF000
00FE00000007F800
00FE00000003FC00
00FE00000003FC00
00FE00000001FE00
00FE00000000FE00
00FE000000007F00
00FE000000007F00
00FE000000003F80
00FE000000003F80
00FE000000001F80
00FE000000001FC0
00FE000000001FC0
00FE000000000FC0
00FE000000000FC0
00FE000000000FE0
00FE000000000FE0
00FE000000000FE0
00FE000000000FE0
7FFFFFFC000007E0
FFFFFFFC000007E0
FFFFFFFC000007E0
FFFFFFFC000007E0
7FFFFFFC000007E0
00FE000000000FE0
00FE000000000FE0
00FE000000000FE0
00FE000000000FE0
00FE000000000FC0
00FE000000000FC0
00FE000000001FC0
00FE000000001FC0
00FE000000001F80
00FE000000003F80
00FE000000003F80
00FE000000007F00
00FE000000007F00
00FE00000000FE00
00FE00000001FE00
00FE00000003FC00
00FE00000007FC00
00FE0000000FF800
00FE0000001FF000
00FE0000003FE000
00FE000000FFC000
00FE000001FF8000
00FE00000FFF0000
00FE00007FFE0000
00FFFFFFFFFC0000
00FFFFFFFFF00000
00FFFFFFFFC00000
00FFFFFFFF000000
007FFFFFF8000000
003FFFFF80000000
ENDCHAR
STARTCHAR 00D1
ENCODING 209
SWIDTH 828 0
DWIDTH 69 0
BBX 52 82 8 0
BITMAP
00001F80000000
0000FFF0000000
0001FFFC00F000
0003FFFE01F000
0007FFFFCFF800
000FFFFFFFF000
001FE07FFFF000
001FC01FFFE000
001F8007FF8000
000F0001FF0000
00000000000000
00000000000000
00000000000000
00000000000000
00000000000000
00000000000000
00000000000000
380000000001E0
7C0000000003F0
FE0000000003F0
FF0000000003F0
FF8000000003F0
FF8000000003F0
FFC000000003F0
FFE000000003F0
FFF000000003F0
FFF000000003F0
FFF800000003F0
FFFC00000003F0
FEFE00000003F0
FEFF00000003F0
FE7F00000003F0
FE3F80000003F0
FE1FC0000003F0
FE1FE0000003F0
FE0FE0000003F0
FE07F0000003F0
FE03F8000003F0
FE03FC000003F0
FE01FC000003F0
FE00FE000003F0
FE007F000003F0
FE007F800003F0
FE003F800003F0
FE001FC00003F0
FE000FE00003F0
FE000FF00003F0
FE0007F00003F0
FE0003F80003F0
FE0001FC0003F0
FE0000FE0003F0
FE0000FF0003F0
FE00007F0003F0
FE00003F8003F0
FE00001FC003F0
FE00001FE003F0
FE00000FE003F0
FE000007F003F0
FE000003F803F0
FE000003FC03F0
FE000001FC03F0
FE000000FE03F0
FE0000007F03F0
FE0000007F83F0
FE0000003F83F0
FE0000001FC3F0
FE0000000FE3F0
FE0000000FF3F0
FE00000007F3F0
FE00000003FBF0
FE00000001FFF0
FE00000000FFF0
FE00000000FFF0
FE000000007FF0
FE000000003FF0
FE000000001FF0
FE000000001FF0
FE000000000FF0
FE0000000007F0
FE0000000003F0
7C0000000003F0
380000000001E0
ENDCHAR
STARTCHAR 00D2
ENCODING 210
SWIDTH 924 0
DWIDTH 77 0
BBX 67 89 5 -1
BITMAP
000003C00000000000
000007E00000000000
000007F00000000000
000007F80000000000
000007FC0000000000
000003FE0000000000
000001FF0000000000
000000FF8000000000
0000007FC000000000
0000003FE000000000
0000001FF000000000
0000000FF800000000
00000007F800000000
00000003F000000000
00000001F000000000
000000000000000000
000000000000000000
000000000000000000
000000000000000000
000000000000000000
000000000000000000
000000000000000000
0000000FFE00000000
000001FFFFE0000000
00000FFFFFFC000000
00003FFFFFFF800000
0000FFFFFFFFC00000
0001FFFFFFFFF00000
0007FFFC07FFFC0000
000FFF80003FFE0000
001FFC000007FF0000
003FF0000003FF8000
007FE0000000FFC000
00FF800000003FE000
01FF000000001FF000
03FE000000000FF000
03FC0000000007F800
07F80000000003FC00
0FF00000000001FC00
0FE00000000001FE00
1FE00000000000FE00
1FC000000000007F00
3F8000000000007F00
3F8000000000003F80
3F8000000000003F80
7F0000000000003F80
7F0000000000001FC0
7F0000000000001FC0
7E0000000000001FC0
7E0000000000000FC0
FE0000000000000FC0
FE0000000000000FC0
FE0000000000000FE0
FE0000000000000FE0
FC0000000000000FE0
FC0000000000000FE0
FC0000000000000FE0
FE0000000000000FE0
FE0000000000000FE0
FE0000000000000FC0
FE0000000000000FC0
7E0000000000000FC0
7E0000000000001FC0
7F0000000000001FC0
7F0000000000001FC0
3F0000000000003F80
3F8000000000003F80
3F8000000000003F80
1FC000000000007F00
1FC000000000007F00
1FE00000000000FE00
0FE00000000001FE00
0FF00000000001FC00
07F80000000003FC00
03FC0000000007F800
03FE000000000FF000
01FF000000001FF000
00FF800000003FE000
007FE0000000FFC000
003FF0000003FF8000
001FFC00000FFF0000
000FFF80007FFE0000
0007FFFC0FFFFC0000
0001FFFFFFFFF00000
0000FFFFFFFFE00000
00003FFFFFFF800000
000007FFFFFC000000
000000FFFFE0000000
00000007FC00000000
ENDCHAR
STARTCHAR 00D3
ENCODING 211
SWIDTH 924 0
DWIDTH 77 0
BBX 67 89 5 -1
BITMAP
000000000060000000
0000000001F8000000
0000000003F8000000
0000000007F8000000
000000000FF8000000
000000001FF8000000
000000003FF0000000
000000007FE0000000
00000000FFC0000000
00000001FF80000000
00000003FF00000000
00000003FE00000000
00000003FC00000000
00000003F800000000
00000003F000000000
00000001E000000000
000000000000000000
000000000000000000
000000000000000000
000000000000000000
000000000000000000
000000000000000000
0000000FFE00000000
000001FFFFE0000000
00000FFFFFFC000000
00003FFFFFFF800000
0000FFFFFFFFC00000
0001FFFFFFFFF00000
0007FFFC07FFFC0000
000FFF80003FFE0000
001FFC000007FF0000
003FF0000003FF8000
007FE0000000FFC000
00FF800000003FE000
01FF000000001FF000
03FE000000000FF000
03FC0000000007F800
07F80000000003FC00
0FF00000000001FC00
0FE00000000001FE00
1FE00000000000FE00
1FC000000000007F00
3F8000000000007F00
3F8000000000003F80
3F8000000000003F80
7F0000000000003F80
7F0000000000001FC0
7F0000000000001FC0
7E0000000000001FC0
7E0000000000000FC0
FE0000000000000FC0
FE0000000000000FC0
FE0000000000000FE0
FE0000000000000FE0
FC0000000000000FE0
FC0000000000000FE0
FC0000000000000FE0
FE0000000000000FE0
FE0000000000000FE0
FE0000000000000FC0
FE0000000000000FC0
7E0000000000000FC0
7E0000000000001FC0
7F0000000000001FC0
7F0000000000001FC0
3F0000000000003F80
3F8000000000003F80
3F8000000000003F80
1FC000000000007F00
1FC000000000007F00
1FE00000000000FE00
0FE00000000001FE00
0FF00000000001FC00
07F80000000003FC00
03FC0000000007F800
03FE000000000FF000
01FF000000001FF000
00FF800000003FE000
007FE0000000FFC000
003FF0000003FF8000
001FFC00000FFF0000
000FFF80007FFE0000
0007FFFC0FFFFC0000
0001FFFFFFFFF00000
0000FFFFFFFFE00000
00003FFFFFFF800000
000007FFFFFC000000
000000FFFFE0000000
00000007FC00000000
ENDCHAR
STARTCHAR 00D4
ENCODING 212
SWIDTH 924 0
DWIDTH 77 0
BBX 67 86 5 -1
BITMAP
00000000E000000000
00000003F800000000
00000007FC00000000
0000001FFF00000000
0000003FFF80000000
000000FFFFE0000000
000001FFFFF0000000
000007FF1FFC000000
000007FE0FFC000000
00000FF807FC000000
00000FF001FC000000
000007C000FC000000
000003800030000000
000000000000000000
000000000000000000
000000000000000000
000000000000000000
000000000000000000
000000000000000000
0000000FFE00000000
000001FFFFE0000000
00000FFFFFFC000000
00003FFFFFFF800000
0000FFFFFFFFC00000
0001FFFFFFFFF00000
0007FFFC07FFFC0000
000FFF80003FFE0000
001FFC000007FF0000
003FF0000003FF8000
007FE0000000FFC000
00FF800000003FE000
01FF000000001FF000
03FE000000000FF000
03FC0000000007F800
07F80000000003FC00
0FF00000000001FC00
0FE00000000001FE00
1FE00000000000FE00
1FC000000000007F00
3F8000000000007F00
3F8000000000003F80
3F8000000000003F80
7F0000000000003F80
7F0000000000001FC0
7F0000000000001FC0
7E0000000000001FC0
7E0000000000000FC0
FE0000000000000FC0
FE0000000000000FC0
FE0000000000000FE0
FE0000000000000FE0
FC0000000000000FE0
FC0000000000000FE0
FC0000000000000FE0
FE0000000000000FE0
FE0000000000000FE0
FE0000000000000FC0
FE0000000000000FC0
7E0000000000000FC0
7E0000000000001FC0
7F0000000000001FC0
7F0000000000001FC0
3F0000000000003F80
3F8000000000003F80
3F8000000000003F80
1FC000000000007F00
1FC000000000007F00
1FE00000000000FE00
0FE00000000001FE00
0FF00000000001FC00
07F80000000003FC00
03FC0000000007F800
03FE000000000FF000
01FF000000001FF000
00FF800000003FE000
007FE0000000FFC000
003FF0000003FF8000
001FFC00000FFF0000
000FFF80007FFE0000
0007FFFC0FFFFC0000
0001FFFFFFFFF00000
0000FFFFFFFFE00000
00003FFFFFFF800000
000007FFFFFC000000
000000FFFFE0000000
00000007FC00000000
ENDCHAR
STARTCHAR 00D5
ENCODING 213
SWIDTH 924 0
DWIDTH 77 0
BBX 67 83 5 -1
BITMAP
0000003F0000000000
000001FFE000000000
000003FFF801E00000
000007FFFC03E00000
00000FFFFF9FF00000
00001FFFFFFFE00000
00003FC0FFFFE00000
00003F803FFFC00000
00003F000FFF000000
00001E0003FE000000
000000000000000000
000000000000000000
000000000000000000
000000000000000000
000000000000000000
000000000000000000
0000000FFE00000000
000001FFFFE0000000
00000FFFFFFC000000
00003FFFFFFF800000
0000FFFFFFFFC00000
0001FFFFFFFFF00000
0007FFFC07FFFC0000
000FFF80003FFE0000
001FFC000007FF0000
003FF0000003FF8000
007FE0000000FFC000
00FF800000003FE000
01FF000000001FF000
03FE000000000FF000
03FC0000000007F800
07F80000000003FC00
0FF00000000001FC00
0FE00000000001FE00
1FE00000000000FE00
1FC000000000007F00
3F8000000000007F00
3F8000000000003F80
3F8000000000003F80
7F0000000000003F80
7F0000000000001FC0
7F0000000000001FC0
7E0000000000001FC0
7E0000000000000FC0
FE0000000000000FC0
FE0000000000000FC0
FE0000000000000FE0
FE0000000000000FE0
FC0000000000000FE0
FC0000000000000FE0
FC0000000000000FE0
FE0000000000000FE0
FE0000000000000FE0
FE0000000000000FC0
FE0000000000000FC0
7E0000000000000FC0
7E0000000000001FC0
7F0000000000001FC0
7F0000000000001FC0
3F0000000000003F80
3F8000000000003F80
3F8000000000003F80
1FC000000000007F00
1FC000000000007F00
1FE00000000000FE00
0FE00000000001FE00
0FF00000000001FC00
07F80000000003FC00
03FC0000000007F800
03FE000000000FF000
01FF000000001FF000
00FF800000003FE000
007FE0000000FFC000
003FF0000003FF8000
001FFC00000FFF0000
000FFF80007FFE0000
0007FFFC0FFFFC0000
0001FFFFFFFFF00000
0000FFFFFFFFE00000
00003FFFFFFF800000
000007FFFFFC000000
000000FFFFE0000000
00000007FC00000000
ENDCHAR
STARTCHAR 00D6
ENCODING 214
SWIDTH 924 0
DWIDTH 77 0
BBX 67 84 5 -1
BITMAP
000000C00020000000
000003F001F8000000
000007F803FC000000
00000FF803FC000000
00000FF803FE000000
00000FF803FE000000
00000FF803FC000000
000007F803FC000000
000003F001F8000000
000000800020000000
000000000000000000
000000000000000000
000000000000000000
000000000000000000
000000000000000000
000000000000000000
000000000000000000
0000000FFE00000000
000001FFFFE0000000
00000FFFFFFC000000
00003FFFFFFF800000
0000FFFFFFFFC00000
0001FFFFFFFFF00000
0007FFFC07FFFC0000
000FFF80003FFE0000
001FFC000007FF0000
003FF0000003FF8000
007FE0000000FFC000
00FF800000003FE000
01FF000000001FF000
03FE000000000FF000
03FC0000000007F800
07F80000000003FC00
0FF00000000001FC00
0FE00000000001FE00
1FE00000000000FE00
1FC000000000007F00
3F8000000000007F00
3F8000000000003F80
3F8000000000003F80
7F0000000000003F80
7F0000000000001FC0
7F0000000000001FC0
7E0000000000001FC0
7E0000000000000FC0
FE0000000000000FC0
FE0000000000000FC0
FE0000000000000FE0
FE0000000000000FE0
FC0000000000000FE0
FC0000000000000FE0
FC0000000000000FE0
FE0000000000000FE0
FE0000000000000FE0
FE0000000000000FC0
FE0000000000000FC0
7E0000000000000FC0
7E0000000000001FC0
7F0000000000001FC0
7F0000000000001FC0
3F0000000000003F80
3F8000000000003F80
3F8000000000003F80
1FC000000000007F00
1FC000000000007F00
1FE00000000000FE00
0FE00000000001FE00
0FF00000000001FC00
07F80000000003FC00
03FC0000000007F800
03FE000000000FF000
01FF000000001FF000
00FF800000003FE000
007FE0000000FFC000
003FF0000003FF8000
001FFC00000FFF0000
000FFF80007FFE0000
0007FFFC0FFFFC0000
0001FFFFFFFFF00000
0000FFFFFFFFE00000
00003FFFFFFF800000
000007FFFFFC000000
000000FFFFE0000000
00000007FC00000000
ENDCHAR
STARTCHAR 00D7
ENCODING 215
SWIDTH 468 0
DWIDTH 39 0
BBX 33 33 3 13
BITMAP
1000000400
7C00001F00
FE00003F80
FF00007F80
FF8000FF80
7FC001FF00
3FE003FE00
1FF007FC00
0FF80FF800
07FC1FF000
03FE3FE000
01FF7FC000
00FFFF8000
007FFF0000
003FFE0000
001FFC0000
000FF80000
001FFC0000
003FFE0000
007FFF0000
00FFFF8000
01FF7FC000
03FE3FE000
07FC1FF000
0FF80FF800
1FF007FC00
3FE003FE00
7FC001FF00
FF8000FF80
FF00007F80
FE00003F80
7C00001F00
3800000E00
ENDCHAR
STARTCHAR 00D8
ENCODING 216
SWIDTH 888 0
DWIDTH 74 0
BBX 67 67 5 -1
BITMAP
0000000FFE00000000
000001FFFFE0000380
00000FFFFFFC0007C0
00003FFFFFFF800FC0
0000FFFFFFFFE01FC0
0001FFFFFFFFF03F80
0007FFFC0FFFFC7F00
000FFF80003FFEFE00
001FFC00000FFFFC00
003FF0000001FFF800
007FE0000000FFF000
00FF800000003FE000
01FF000000003FF000
03FE000000007FF000
03FC00000000FFF800
07F800000001FFFC00
0FF000000003FDFC00
0FE000000007F9FE00
1FE00000000FF0FE00
1FC00000001FE07F00
3F800000003FC07F00
3F800000007F803F80
3F80000000FF003F80
7F00000001FE001F80
7F00000003FC001FC0
7F00000007F8001FC0
7E0000000FF0001FC0
7E0000001FE0000FC0
FE0000003FC0000FC0
FE0000007F80000FC0
FE000000FF00000FE0
FE000001FE00000FE0
FC000003FC00000FE0
FC000007F800000FE0
FE00000FF000000FE0
FE00001FE000000FE0
FE00003FC000000FE0
FE00007F8000000FC0
FE0000FF0000000FC0
7E0001FE0000000FC0
7E0003FC0000001FC0
7F0007F80000001FC0
7F000FF00000001FC0
7F001FE00000003F80
3F803FC00000003F80
3F807F800000003F80
3FC0FF000000007F00
1FC1FE000000007F00
1FE3FC00000000FE00
0FE7F800000001FE00
0FFFF000000001FC00
07FFE000000003FC00
03FFC000000007F800
03FF800000000FF000
01FF000000001FF000
01FF800000003FE000
03FFE0000000FFC000
07FFF0000003FF8000
0FFFFC00000FFF0000
1FCFFF80007FFE0000
3F87FFFE0FFFFC0000
7F01FFFFFFFFF00000
FE00FFFFFFFFE00000
FC003FFFFFFF800000
F8000FFFFFFC000000
700001FFFFE0000000
00000007FC00000000
ENDCHAR
STARTCHAR 00D9
ENCODING 217
SWIDTH 816 0
DWIDTH 68 0
BBX 52 89 8 -1
BITMAP
0001E000000000
0003F000000000
0003F800000000
0003FC00000000
0003FE00000000
0001FF00000000
0000FF80000000
00007FC0000000
00003FE0000000
00001FF0000000
00000FF8000000
000007F8000000
000003F8000000
000001F8000000
000000F0000000
00000000000000
00000000000000
00000000000000
00000000000000
00000000000000
00000000000000
00000000000000
00000000000000
380000000001E0
7C0000000003E0
FE0000000007F0
FE0000000007F0
FE0000000007F0
FE0000000007F0
FE0000000007F0
FE0000000007F0
FE0000000007F0
FE0000000007F0
FE0000000007F0
FE0000000007F0
FE0000000007F0
FE0000000007F0
FE0000000007F0
FE0000000007F0
FE0000000007F0
FE0000000007F0
FE0000000007F0
FE0000000007F0
FE0000000007F0
FE0000000007F0
FE0000000007F0
FE0000000007F0
FE0000000007F0
FE0000000007F0
FE0000000007F0
FE0000000007F0
FE0000000007F0
FE0000000007F0
FE0000000007F0
FE0000000007F0
FE0000000007F0
FE0000000007F0
FE0000000007F0
FE0000000007F0
FE0000000007F0
FE0000000007F0
FE0000000007F0
FE0000000007F0
FE0000000007F0
FE0000000007F0
FE0000000007F0
FE0000000007F0
FE0000000007F0
FE0000000007F0
FE0000000007F0
7E0000000007F0
7F0000000007E0
7F000000000FE0
7F000000000FE0
3F800000001FE0
3F800000001FC0
1FC00000003FC0
1FE00000007F80
0FF0000000FF80
0FF8000001FF00
07FE000007FE00
03FF80001FFC00
01FFF000FFF800
00FFFFFFFFF000
007FFFFFFFE000
001FFFFFFF8000
0007FFFFFE0000
0001FFFFF80000
00003FFFC00000
ENDCHAR
STARTCHAR 00DA
ENCODING 218
SWIDTH 816 0
DWIDTH 68 0
BBX 52 89 8 -1
BITMAP
00000000300000
00000000F80000
00000001FC0000
00000003FC0000
00000007FC0000
0000000FF80000
0000001FF00000
0000003FE00000
0000007FC00000
000000FF800000
000001FF000000
000001FE000000
000003FC000000
000003F8000000
000001F0000000
000000E0000000
00000000000000
00000000000000
00000000000000
00000000000000
00000000000000
00000000000000
00000000000000
380000000001E0
7C0000000003E0
FE0000000007F0
FE0000000007F0
FE0000000007F0
FE0000000007F0
FE0000000007F0
FE0000000007F0
FE0000000007F0
FE0000000007F0
FE0000000007F0
FE0000000007F0
FE0000000007F0
FE0000000007F0
FE0000000007F0
FE0000000007F0
FE0000000007F0
FE0000000007F0
FE0000000007F0
FE0000000007F0
FE0000000007F0
FE0000000007F0
FE0000000007F0
FE0000000007F0
FE0000000007F0
FE0000000007F0
FE0000000007F0
FE0000000007F0
FE0000000007F0
FE0000000007F0
FE0000000007F0
FE0000000007F0
FE0000000007F0
FE0000000007F0
FE0000000007F0
FE0000000007F0
FE0000000007F0
FE0000000007F0
FE0000000007F0
FE0000000007F0
FE0000000007F0
FE0000000007F0
FE0000000007F0
FE0000000007F0
FE0000000007F0
FE0000000007F0
FE0000000007F0
7E0000000007F0
7F0000000007E0
7F000000000FE0
7F000000000FE0
3F800000001FE0
3F800000001FC0
1FC00000003FC0
1FE00000007F80
0FF0000000FF80
0FF8000001FF00
07FE000007FE00
03FF80001FFC00
01FFF000FFF800
00FFFFFFFFF000
007FFFFFFFE000
001FFFFFFF8000
0007FFFFFE0000
0001FFFFF80000
00003FFFC00000
ENDCHAR
STARTCHAR 00DB
ENCODING 219
SWIDTH 816 0
DWIDTH 68 0
BBX 52 86 8 -1
BITMAP
000000F0000000
000001F8000000
000007FE000000
00000FFF000000
00003FFFC00000
00007FFFE00000
0001FFFFF80000
0003FF9FFC0000
0007FF07FE0000
0007FC03FE0000
0007F800FE0000
0003E0007E0000
0001C000180000
00000000000000
00000000000000
00000000000000
00000000000000
00000000000000
00000000000000
00000000000000
380000000001E0
7C0000000003E0
FE0000000007F0
FE0000000007F0
FE0000000007F0
FE0000000007F0
FE0000000007F0
FE0000000007F0
FE0000000007F0
FE0000000007F0
FE0000000007F0
FE0000000007F0
FE0000000007F0
FE0000000007F0
FE0000000007F0
FE0000000007F0
FE0000000007F0
FE0000000007F0
FE0000000007F0
FE0000000007F0
FE0000000007F0
FE0000000007F0
FE0000000007F0
FE0000000007F0
FE0000000007F0
FE0000000007F0
FE0000000007F0
FE0000000007F0
FE0000000007F0
FE0000000007F0
FE0000000007F0
FE0000000007F0
FE0000000007F0
FE0000000007F0
FE0000000007F0
FE0000000007F0
FE0000000007F0
FE0000000007F0
FE0000000007F0
FE0000000007F0
FE0000000007F0
FE0000000007F0
FE0000000007F0
FE0000000007F0
FE0000000007F0
FE0000000007F0
FE0000000007F0
7E0000000007F0
7F0000000007E0
7F000000000FE0
7F000000000FE0
3F800000001FE0
3F800000001FC0
1FC00000003FC0
1FE00000007F80
0FF0000000FF80
0FF8000001FF00
07FE000007FE00
03FF80001FFC00
01FFF000FFF800
00FFFFFFFFF000
007FFFFFFFE000
001FFFFFFF8000
0007FFFFFE0000
0001FFFFF80000
00003FFFC00000
ENDCHAR
STARTCHAR 00DC
ENCODING 220
SWIDTH 816 0
DWIDTH 68 0
BBX 52 84 8 -1
BITMAP
00004000000000
0003F000FC0000
0003F801FE0000
0007FC01FE0000
0007FC03FE0000
0007FC03FE0000
0007FC01FE0000
0003F801FE0000
0003F800FC0000
0000E000200000
00000000000000
00000000000000
00000000000000
00000000000000
00000000000000
00000000000000
00000000000000
00000000000000
380000000001E0
7C0000000003E0
FE0000000007F0
FE0000000007F0
FE0000000007F0
FE0000000007F0
FE0000000007F0
FE0000000007F0
FE0000000007F0
FE0000000007F0
FE0000000007F0
FE0000000007F0
FE0000000007F0
FE0000000007F0
FE0000000007F0
FE0000000007F0
FE0000000007F0
FE0000000007F0
FE0000000007F0
FE0000000007F0
FE0000000007F0
FE0000000007F0
FE0000000007F0
FE0000000007F0
FE0000000007F0
FE0000000007F0
FE0000000007F0
FE0000000007F0
FE0000000007F0
FE0000000007F0
FE0000000007F0
FE0000000007F0
FE0000000007F0
FE0000000007F0
FE0000000007F0
FE0000000007F0
FE0000000007F0
FE0000000007F0
FE0000000007F0
FE0000000007F0
FE0000000007F0
FE0000000007F0
FE0000000007F0
FE0000000007F0
FE0000000007F0
FE0000000007F0
FE0000000007F0
7E0000000007F0
7F0000000007E0
7F000000000FE0
7F000000000FE0
3F800000001FE0
3F800000001FC0
1FC00000003FC0
1FE00000007F80
0FF0000000FF80
0FF8000001FF00
07FE000007FE00
03FF80001FFC00
01FFF000FFF800
00FFFFFFFFF000
007FFFFFFFE000
001FFFFFFF8000
0007FFFFFE0000
0001FFFFF80000
00003FFFC00000
ENDCHAR
STARTCHAR 00DD
ENCODING 221
SWIDTH 648 0
DWIDTH 54 0
BBX 54 88 0 0
BITMAP
00000000380000
000000007C0000
00000000FE0000
00000001FE0000
00000003FE0000
00000007FC0000
0000000FF80000
0000001FF00000
0000003FE00000
0000007FC00000
000000FF800000
000001FF000000
000001FE000000
000001FC000000
000000F8000000
00000070000000
00000000000000
00000000000000
00000000000000
00000000000000
00000000000000
00000000000000
00000000000000
38000000000070
7C0000000000F8
FE0000000001FC
FF0000000001FC
7F0000000003F8
7F8000000007F8
3F8000000007F0
1FC00000000FE0
1FE00000001FE0
0FE00000001FC0
07F00000003FC0
07F80000003F80
03F80000007F00
03FC000000FF00
01FC000000FE00
00FE000001FC00
00FF000001FC00
007F000003F800
003F800007F000
003FC00007F000
001FC0000FE000
001FE0001FE000
000FE0001FC000
0007F0003F8000
0007F8003F8000
0003F8007F0000
0001FC00FE0000
0001FC00FE0000
0000FE01FC0000
00007F03F80000
00007F03F80000
00003F87F00000
00003FC7F00000
00001FCFE00000
00000FFFC00000
00000FFFC00000
000007FF800000
000003FF000000
000003FF000000
000001FE000000
000001FE000000
000000FC000000
000000FC000000
000000FC000000
000000FC000000
000000FC000000
000000FC000000
000000FC000000
000000FC000000
000000FC000000
000000FC000000
000000FC000000
000000FC000000
000000FC000000
000000FC000000
000000FC000000
000000FC000000
000000FC000000
000000FC000000
000000FC000000
000000FC000000
000000FC000000
000000FC000000
000000FC000000
00000078000000
ENDCHAR
STARTCHAR 00DE
ENCODING 222
SWIDTH 612 0
DWIDTH 51 0
BBX 41 65 8 0
BITMAP
380000000000
7C0000000000
FE0000000000
FE0000000000
FE0000000000
FE0000000000
FE0000000000
FE0000000000
FE0000000000
FE0000000000
FE0000000000
FFFFFC000000
FFFFFFF00000
FFFFFFFE0000
FFFFFFFF0000
FFFFFFFFC000
FFFFFFFFE000
FE0000FFF000
FE00001FF800
FE000007FC00
FE000003FC00
FE000001FE00
FE000000FF00
FE0000007F00
FE0000007F00
FE0000003F80
FE0000003F80
FE0000001F80
FE0000001F80
FE0000001F80
FE0000001F80
FE0000001F80
FE0000001F80
FE0000001F80
FE0000003F80
FE0000003F80
FE0000007F00
FE0000007F00
FE000000FF00
FE000001FE00
FE000003FE00
FE000007FC00
FE00001FF800
FE0000FFF000
FFFFFFFFE000
FFFFFFFFC000
FFFFFFFF0000
FFFFFFFE0000
FFFFFFF00000
FFFFF8000000
FE0000000000
FE0000000000
FE0000000000
FE0000000000
FE0000000000
FE0000000000
FE0000000000
FE0000000000
FE0000000000
FE0000000000
FE0000000000
FE0000000000
FE0000000000
7C0000000000
380000000000
ENDCHAR
STARTCHAR 00DF
ENCODING 223
SWIDTH 552 0
DWIDTH 46 0
BBX 39 64 4 0
BITMAP
001FFF0000
007FFFC000
01FFFFF000
03FFFFF800
07FFFFFC00
0FFFFFFE00
1FF801FF00
1FE0007F00
3FC0003F80
3F80003F80
7F00001F80
7F00001FC0
7E00000FC0
FE00000FC0
FE00000FC0
FE00000FC0
FE00001F80
FE00001F80
FE00001F80
FE00003F00
FE00007F00
FE00007E00
FE0000FC00
FE0001FC00
FE0003F800
FE0007F000
FE0007E000
FE000FE000
FE000FC000
FE000FC000
FE000FC000
FE000FE000
FE000FE000
FE0007F000
FE0007F800
FE0003FC00
FE0001FE00
FE0000FF00
FE00007F80
FE00003FC0
FE00001FE0
FE00000FF0
FE000007F0
FE000003F8
FE000003FC
FE000001FC
FE000000FC
FE000000FE
FE000000FE
FE000000FE
FE000000FE
FE000000FE
FE000000FE
FE000000FC
FE0C0001FC
FE1F0001FC
FE3F8007F8
FE3FC00FF8
FE1FFFFFF0
FE1FFFFFE0
FE0FFFFFC0
FE07FFFF80
7C01FFFE00
38003FF800
ENDCHAR
STARTCHAR 00E0
ENCODING 224
SWIDTH 672 0
DWIDTH 56 0
BBX 46 69 5 0
BITMAP
000E00000000
001F80000000
001FC0000000
001FE0000000
001FF0000000
001FF8000000
000FFC000000
0007FE000000
0003FF000000
0001FF800000
0000FF800000
00007FC00000
00003FC00000
00001FC00000
00000FC00000
000007800000
000000000000
000000000000
000000000000
000000000000
000000000000
000000000000
000000000000
00003FF00000
0001FFFF0000
000FFFFFC000
001FFFFFF000
007FFFFFF800
00FFFFFFFC00
01FFE00FFF00
03FF0001FF00
07FC0000FF80
0FF800003FC0
0FF000001FE0
1FE000000FE0
3FC0000007F0
3F80000007F0
3F00000003F8
7F00000003F8
7F00000001F8
7E00000001FC
7E00000001FC
FE00000000FC
FE00000000FC
FC00000000FC
FC00000000FC
FC00000000FC
FC00000000FC
FC00000000FC
FE00000000FC
FE00000000FC
7E00000001FC
7E00000001FC
7F00000001FC
7F00000003FC
3F80000003FC
3F80000007FC
1FC000000FFC
1FE000001FFC
0FF000003FFC
07F800007FFC
07FE0001FEFC
03FF8007FEFC
01FFFCFFFCFC
00FFFFFFF8FC
003FFFFFE0FC
001FFFFFC0FC
0007FFFF00FC
0000FFF80078
ENDCHAR
STARTCHAR 00E1
ENCODING 225
SWIDTH 672 0
DWIDTH 56 0
BBX 46 68 5 0
BITMAP
00000003C000
00000007E000
0000000FE000
0000001FE000
0000003FE000
0000007FC000
000000FF8000
000001FF0000
000003FE0000
000007FC0000
00000FF80000
00001FF00000
00001FE00000
00000FC00000
00000F800000
000000000000
000000000000
000000000000
000000000000
000000000000
000000000000
000000000000
00003FF00000
0001FFFF0000
000FFFFFC000
001FFFFFF000
007FFFFFF800
00FFFFFFFC00
01FFE00FFF00
03FF0001FF00
07FC0000FF80
0FF800003FC0
0FF000001FE0
1FE000000FE0
3FC0000007F0
3F80000007F0
3F00000003F8
7F00000003F8
7F00000001F8
7E00000001FC
7E00000001FC
FE00000000FC
FE00000000FC
FC00000000FC
FC00000000FC
FC00000000FC
FC00000000FC
FC00000000FC
FE00000000FC
FE00000000FC
7E00000001FC
7E00000001FC
7F00000001FC
7F00000003FC
3F80000003FC
3F80000007FC
1FC000000FFC
1FE000001FFC
0FF000003FFC
07F800007FFC
07FE0001FEFC
03FF8007FEFC
01FFFCFFFCFC
00FFFFFFF8FC
003FFFFFE0FC
001FFFFFC0FC
0007FFFF00FC
0000FFF80078
ENDCHAR
STARTCHAR 00E2
ENCODING 226
SWIDTH 672 0
DWIDTH 56 0
BBX 46 65 5 0
BITMAP
000007C00000
00001FE00000
00003FF80000
0000FFFC0000
0001FFFF0000
0007FFFF8000
000FFEFFE000
001FF87FF000
003FF01FF000
003FC00FF000
003F8007F000
001F0001E000
000000000000
000000000000
000000000000
000000000000
000000000000
000000000000
000000000000
00003FF00000
0001FFFF0000
000FFFFFC000
001FFFFFF000
007FFFFFF800
00FFFFFFFC00
01FFE00FFF00
03FF0001FF00
07FC0000FF80
0FF800003FC0
0FF000001FE0
1FE000000FE0
3FC0000007F0
3F80000007F0
3F00000003F8
7F00000003F8
7F00000001F8
7E00000001FC
7E00000001FC
FE00000000FC
FE00000000FC
FC00000000FC
FC00000000FC
FC00000000FC
FC00000000FC
FC00000000FC
FE00000000FC
FE00000000FC
7E00000001FC
7E00000001FC
7F00000001FC
7F00000003FC
3F80000003FC
3F80000007FC
1FC000000FFC
1FE000001FFC
0FF000003FFC
07F800007FFC
07FE0001FEFC
03FF8007FEFC
01FFFCFFFCFC
00FFFFFFF8FC
003FFFFFE0FC
001FFFFFC0FC
0007FFFF00FC
0000FFF80078
ENDCHAR
STARTCHAR 00E3
ENCODING 227
SWIDTH 672 0
DWIDTH 56 0
BBX 46 62 5 0
BITMAP
0003FF000000
000FFFC00700
001FFFE00F80
003FFFF81F80
007FFFFFFF80
00FF87FFFF80
00FE01FFFF00
00FC007FFE00
0078001FFC00
00200007E000
000000000000
000000000000
000000000000
000000000000
000000000000
000000000000
00003FF00000
0001FFFF0000
000FFFFFC000
001FFFFFF000
007FFFFFF800
00FFFFFFFC00
01FFE00FFF00
03FF0001FF00
07FC0000FF80
0FF800003FC0
0FF000001FE0
1FE000000FE0
3FC0000007F0
3F80000007F0
3F00000003F8
7F00000003F8
7F00000001F8
7E00000001FC
7E00000001FC
FE00000000FC
FE00000000FC
FC00000000FC
FC00000000FC
FC00000000FC
FC00000000FC
FC00000000FC
FE00000000FC
FE00000000FC
7E00000001FC
7E00000001FC
7F00000001FC
7F00000003FC
3F80000003FC
3F80000007FC
1FC000000FFC
1FE000001FFC
0FF000003FFC
07F800007FFC
07FE0001FEFC
03FF8007FEFC
01FFFCFFFCFC
00FFFFFFF8FC
003FFFFFE0FC
001FFFFFC0FC
0007FFFF00FC
0000FFF80078
ENDCHAR
STARTCHAR 00E4
ENCODING 228
SWIDTH 672 0
DWIDTH 56 0
BBX 46 63 5 0
BITMAP
000F8003C000
001FC007E000
003FE00FF000
003FE00FF000
003FE01FF800
003FE01FF000
003FE00FF000
001FC00FF000
000F8003C000
000000000000
000000000000
000000000000
000000000000
000000000000
000000000000
000000000000
000000000000
00003FF00000
0001FFFF0000
000FFFFFC000
001FFFFFF000
007FFFFFF800
00FFFFFFFC00
01FFE00FFF00
03FF0001FF00
07FC0000FF80
0FF800003FC0
0FF000001FE0
1FE000000FE0
3FC0000007F0
3F80000007F0
3F00000003F8
7F00000003F8
7F00000001F8
7E00000001FC
7E00000001FC
FE00000000FC
FE00000000FC
FC00000000FC
FC00000000FC
FC00000000FC
FC00000000FC
FC00000000FC
FE00000000FC
FE00000000FC
7E00000001FC
7E00000001FC
7F00000001FC
7F00000003FC
3F80000003FC
3F80000007FC
1FC000000FFC
1FE000001FFC
0FF000003FFC
07F800007FFC
07FE0001FEFC
03FF8007FEFC
01FFFCFFFCFC
00FFFFFFF8FC
003FFFFFE0FC
001FFFFFC0FC
0007FFFF00FC
0000FFF80078
ENDCHAR
STARTCHAR 00E5
ENCODING 229
SWIDTH 672 0
DWIDTH 56 0
BBX 46 66 5 0
BITMAP
000007800000
00001FF00000
00003FF80000
00007FFC0000
0000F87C0000
0000F01E0000
0001E01E0000
0001E00E0000
0001E00E0000
0001E00E0000
0001E01E0000
0000F03E0000
0000FC7C0000
00007FFC0000
00003FF80000
00001FE00000
000003000000
000000000000
000000000000
000000000000
00003FF00000
0001FFFF0000
000FFFFFC000
001FFFFFF000
007FFFFFF800
00FFFFFFFC00
01FFE00FFF00
03FF0001FF00
07FC0000FF80
0FF800003FC0
0FF000001FE0
1FE000000FE0
3FC0000007F0
3F80000007F0
3F00000003F8
7F00000003F8
7F00000001F8
7E00000001FC
7E00000001FC
FE00000000FC
FE00000000FC
FC00000000FC
FC00000000FC
FC00000000FC
FC00000000FC
FC00000000FC
FE00000000FC
FE00000000FC
7E00000001FC
7E00000001FC
7F00000001FC
7F00000003FC
3F80000003FC
3F80000007FC
1FC000000FFC
1FE000001FFC
0FF000003FFC
07F800007FFC
07FE0001FEFC
03FF8007FEFC
01FFFCFFFCFC
00FFFFFFF8FC
003FFFFFE0FC
001FFFFFC0FC
0007FFFF00FC
0000FFF80078
ENDCHAR
STARTCHAR 00E6
ENCODING 230
SWIDTH 1092 0
DWIDTH 91 0
BBX 83 46 5 0
BITMAP
00003FF00000007FE00000
0001FFFF000003FFFC0000
000FFFFFC0000FFFFF0000
001FFFFFF0003FFFFFC000
007FFFFFF8007FFFFFE000
00FFFFFFFC00FFFFFFF000
01FFE00FFF01FF801FF800
03FF0001FF03FE0007FC00
07FC0000FF87F80001FE00
0FF800003FC7F00000FF00
0FF000001FEFE000007F00
1FE000000FEFC000003F80
3FC0000007FF8000001F80
3F80000007FF8000001FC0
3F00000003FF0000000FC0
7F00000003FF0000000FC0
7F00000001FE0000000FC0
7E00000001FE00000007E0
7E00000001FE00000007E0
FE00000000FE00000007E0
FE00000000FFFFFFFFFFE0
FC00000000FFFFFFFFFFE0
FC00000000FFFFFFFFFFE0
FC00000000FFFFFFFFFFE0
FC00000000FFFFFFFFFFC0
FC00000000FC0000000000
FE00000000FE0000000000
FE00000000FE0000000000
7E00000001FE0000000000
7E00000001FE0000000000
7F00000001FF0000000000
7F00000003FF0000000000
3F80000003FF8000000000
3F80000007FF8000000000
1FC000000FFFC000000000
1FE000001FFFE000000000
0FF000003FFFF000001C00
07F800007FFFF800003E00
07FE0001FEFFFE0000FE00
03FF8007FEFDFF8003FE00
01FFFCFFFCFCFFF87FFE00
00FFFFFFF8FC7FFFFFFC00
003FFFFFE0FC3FFFFFF000
001FFFFFC0FC0FFFFFE000
0007FFFF00FC03FFFF8000
0000FFF80078007FFC0000
ENDCHAR
STARTCHAR 00E7
ENCODING 231
SWIDTH 600 0
DWIDTH 50 0
BBX 40 65 5 -19
BITMAP
00007FE000
0003FFFC00
000FFFFF00
003FFFFFC0
00FFFFFFE0
01FFFFFFF8
03FF801FFC
07FE0007FC
07F80001FE
0FF00000FF
1FE000007E
1FC000003E
3F80000008
3F80000000
7F00000000
7F00000000
7E00000000
7E00000000
FE00000000
FE00000000
FC00000000
FC00000000
FC00000000
FC00000000
FC00000000
FC00000000
FE00000000
FE00000000
7E00000000
7E00000000
7F00000000
7F00000000
3F80000000
3F80000000
1FC0000000
1FE0000000
0FF0000038
07F800007C
07FE0001FE
03FF8007FE
01FFFCFFFC
00FFFFFFF8
003FFFFFF0
001FFFFFC0
0007FFFF00
0000FFFC00
00001F8000
00003F8000
00003F8000
00003FC000
00003FF000
00003FFC00
00000FFE00
000001FE00
000000FF00
0000007F00
000E007F00
001F007F00
001F807F00
001FE1FE00
001FFFFE00
001FFFFC00
000FFFF800
0007FFF000
0001FFC000
ENDCHAR
STARTCHAR 00E8
ENCODING 232
SWIDTH 612 0
DWIDTH 51 0
BBX 43 69 5 0
BITMAP
001C00000000
003E00000000
007F00000000
007F80000000
007FC0000000
003FE0000000
001FF0000000
000FF8000000
0007FC000000
0003FE000000
0001FF000000
0000FF000000
00007F800000
00003F800000
00001F000000
00000E000000
000000000000
000000000000
000000000000
000000000000
000000000000
000000000000
000000000000
00007FE00000
0003FFFC0000
001FFFFF0000
003FFFFFC000
00FFFFFFE000
01FFFFFFF000
03FF801FF800
07FE0007FC00
07F80001FE00
0FF00000FE00
1FE000007F00
1FC000003F80
3F8000003F80
3F0000001F80
7F0000001FC0
7F0000000FC0
7E0000000FC0
7E0000000FC0
FE00000007E0
FC00000007E0
FFFFFFFFFFE0
FFFFFFFFFFE0
FFFFFFFFFFE0
FFFFFFFFFFE0
FFFFFFFFFFC0
FC0000000000
FC0000000000
FC0000000000
7E0000000000
7E0000000000
7E0000000000
7F0000000000
3F0000000000
3F8000000000
1FC000000000
1FE000000000
0FF000001800
0FF800007E00
07FC0000FE00
03FF8007FE00
01FFF87FFE00
00FFFFFFFC00
003FFFFFF000
001FFFFFE000
0007FFFF0000
0000FFFC0000
ENDCHAR
STARTCHAR 00E9
ENCODING 233
SWIDTH 612 0
DWIDTH 51 0
BBX 43 68 5 0
BITMAP
0000000F0000
0000001F8000
0000003F8000
0000007F8000
000000FF8000
000001FF0000
000003FE0000
000007FC0000
00000FF80000
00001FF00000
00003FE00000
00003FC00000
00003F800000
00003F000000
00001E000000
000008000000
000000000000
000000000000
000000000000
000000000000
000000000000
000000000000
00007FE00000
0003FFFC0000
001FFFFF0000
003FFFFFC000
00FFFFFFE000
01FFFFFFF000
03FF801FF800
07FE0007FC00
07F80001FE00
0FF00000FE00
1FE000007F00
1FC000003F80
3F8000003F80
3F0000001F80
7F0000001FC0
7F0000000FC0
7E0000000FC0
7E0000000FC0
FE00000007E0
FC00000007E0
FFFFFFFFFFE0
FFFFFFFFFFE0
FFFFFFFFFFE0
FFFFFFFFFFE0
FFFFFFFFFFC0
FC0000000000
FC0000000000
FC0000000000
7E0000000000
7E0000000000
7E0000000000
7F0000000000
3F0000000000
3F8000000000
1FC000000000
1FE000000000
0FF000001800
0FF800007E00
07FC0000FE00
03FF8007FE00
01FFF87FFE00
00FFFFFFFC00
003FFFFFF000
001FFFFFE000
0007FFFF0000
0000FFFC0000
ENDCHAR
STARTCHAR 00EA
ENCODING 234
SWIDTH 612 0
DWIDTH 51 0
BBX 43 65 5 0
BITMAP
00001F000000
00007FC00000
0000FFE00000
0003FFF80000
0007FFFC0000
001FFFFF0000
003FFBFF8000
007FF1FFC000
007FC07FC000
00FF803FC000
007E000FC000
003C00078000
000000000000
000000000000
000000000000
000000000000
000000000000
000000000000
000000000000
00007FE00000
0003FFFC0000
001FFFFF0000
003FFFFFC000
00FFFFFFE000
01FFFFFFF000
03FF801FF800
07FE0007FC00
07F80001FE00
0FF00000FE00
1FE000007F00
1FC000003F80
3F8000003F80
3F0000001F80
7F0000001FC0
7F0000000FC0
7E0000000FC0
7E0000000FC0
FE00000007E0
FC00000007E0
FFFFFFFFFFE0
FFFFFFFFFFE0
FFFFFFFFFFE0
FFFFFFFFFFE0
FFFFFFFFFFC0
FC0000000000
FC0000000000
FC0000000000
7E0000000000
7E0000000000
7E0000000000
7F0000000000
3F0000000000
3F8000000000
1FC000000000
1FE000000000
0FF000001800
0FF800007E00
07FC0000FE00
03FF8007FE00
01FFF87FFE00
00FFFFFFFC00
003FFFFFF000
001FFFFFE000
0007FFFF0000
0000FFFC0000
ENDCHAR
STARTCHAR 00EB
ENCODING 235
SWIDTH 612 0
DWIDTH 51 0
BBX 43 63 5 0
BITMAP
001E000F0000
007F001FC000
007F803FC000
00FF803FE000
00FF803FE000
00FF803FE000
007F803FC000
007F001FC000
003E000F0000
000000000000
000000000000
000000000000
000000000000
000000000000
000000000000
000000000000
000000000000
00007FE00000
0003FFFC0000
001FFFFF0000
003FFFFFC000
00FFFFFFE000
01FFFFFFF000
03FF801FF800
07FE0007FC00
07F80001FE00
0FF00000FE00
1FE000007F00
1FC000003F80
3F8000003F80
3F0000001F80
7F0000001FC0
7F0000000FC0
7E0000000FC0
7E0000000FC0
FE00000007E0
FC00000007E0
FFFFFFFFFFE0
FFFFFFFFFFE0
FFFFFFFFFFE0
FFFFFFFFFFE0
FFFFFFFFFFC0
FC0000000000
FC0000000000
FC0000000000
7E0000000000
7E0000000000
7E0000000000
7F0000000000
3F0000000000
3F8000000000
1FC000000000
1FE000000000
0FF000001800
0FF800007E00
07FC0000FE00
03FF8007FE00
01FFF87FFE00
00FFFFFFFC00
003FFFFFF000
001FFFFFE000
0007FFFF0000
0000FFFC0000
ENDCHAR
STARTCHAR 00EC
ENCODING 236
SWIDTH 288 0
DWIDTH 24 0
BBX 15 69 0 0
BITMAP
7000
F800
FC00
FE00
FF00
FF80
7FC0
3FE0
1FF0
0FF8
07FC
03FE
01FE
00FE
007E
003C
0000
0000
0000
0000
0000
0000
0000
0000
003C
007E
007E
007E
007E
007E
007E
007E
007E
007E
007E
007E
007E
007E
007E
007E
007E
007E
007E
007E
007E
007E
007E
007E
007E
007E
007E
007E
007E
007E
007E
007E
007E
007E
007E
007E
007E
007E
007E
007E
007E
007E
007E
007E
003C
ENDCHAR
STARTCHAR 00ED
ENCODING 237
SWIDTH 288 0
DWIDTH 24 0
BBX 16 68 8 0
BITMAP
001E
007E
00FF
01FF
03FE
07FE
0FFC
1FF8
3FF0
7FE0
7FC0
FF80
FF00
FE00
7C00
1000
0000
0000
0000
0000
0000
0000
0000
3C00
7E00
7E00
7E00
7E00
7E00
7E00
7E00
7E00
7E00
7E00
7E00
7E00
7E00
7E00
7E00
7E00
7E00
7E00
7E00
7E00
7E00
7E00
7E00
7E00
7E00
7E00
7E00
7E00
7E00
7E00
7E00
7E00
7E00
7E00
7E00
7E00
7E00
7E00
7E00
7E00
7E00
7E00
7E00
3C00
ENDCHAR
STARTCHAR 00EE
ENCODING 238
SWIDTH 288 0
DWIDTH 24 0
BBX 24 65 0 0
BITMAP
003C00
00FF00
01FF80
03FFC0
0FFFF0
1FFFF8
3FFFFC
7FC3FE
FF81FF
FF00FF
7C003E
78001E
000000
000000
000000
000000
000000
000000
000000
000000
003C00
007E00
007E00
007E00
007E00
007E00
007E00
007E00
007E00
007E00
007E00
007E00
007E00
007E00
007E00
007E00
007E00
007E00
007E00
007E00
007E00
007E00
007E00
007E00
007E00
007E00
007E00
007E00
007E00
007E00
007E00
007E00
007E00
007E00
007E00
007E00
007E00
007E00
007E00
007E00
007E00
007E00
007E00
007E00
003C00
ENDCHAR
STARTCHAR 00EF
ENCODING 239
SWIDTH 288 0
DWIDTH 24 0
BBX 24 65 0 0
BITMAP
3C003C
7F00FE
FF00FF
FF81FF
FF81FF
FF81FF
FF00FF
7F00FE
3C007C
000000
000000
000000
000000
000000
000000
000000
000000
000000
000000
000000
003C00
007E00
007E00
007E00
007E00
007E00
007E00
007E00
007E00
007E00
007E00
007E00
007E00
007E00
007E00
007E00
007E00
007E00
007E00
007E00
007E00
007E00
007E00
007E00
007E00
007E00
007E00
007E00
007E00
007E00
007E00
007E00
007E00
007E00
007E00
007E00
007E00
007E00
007E00
007E00
007E00
007E00
007E00
007E00
003C00
ENDCHAR
STARTCHAR 00F0
ENCODING 240
SWIDTH 672 0
DWIDTH 56 0
BBX 45 70 5 0
BITMAP
000000C00000
000001E00000
000003E00000
000003E00000
000F07C00000
001FE7C00000
001FFF800000
001FFF800000
000FFFC00000
0001FFF00000
00007FF80000
00003FFE0000
00007FFF0000
00007CFFC000
0000F83FE000
0000F80FF000
0001F007F800
0001F001FC00
0001E000FE00
000040007E00
000000003F00
000000001F80
000000001F80
000000000FC0
000000000FC0
0000000007C0
0000000007E0
0000FFE003E0
0007FFFC03E0
001FFFFF03F0
007FFFFFC1F0
00FFFFFFE1F0
03FFFFFFF1F0
03FF800FF9F0
07FC0003F9F0
0FF80000FDF8
1FE000007EF8
1FC000003EF8
3FC000001FF8
3F8000000FF8
7F0000000FF8
7F00000007F8
7E00000007F8
7E00000003F8
FE00000003F8
FE00000003F8
FC00000003F8
FC00000003F8
FC00000003F8
FC00000003F8
FC00000003F0
FE00000003F0
FE00000003F0
7E00000003F0
7E00000007F0
7F00000007E0
7F00000007E0
3F8000000FE0
3F8000001FC0
1FC000003FC0
1FE000007F80
0FF00000FF00
07FC0001FF00
03FF000FFE00
03FFF9FFFC00
00FFFFFFF800
007FFFFFE000
001FFFFFC000
000FFFFF0000
0001FFF80000
ENDCHAR
STARTCHAR 00F1
ENCODING 241
SWIDTH 672 0
DWIDTH 56 0
BBX 43 62 7 0
BITMAP
000FFC000000
003FFF001C00
007FFF803E00
00FFFFE07E00
01FFFFFFFE00
03FE1FFFFE00
03F807FFFC00
03F001FFF800
03E0007FE000
0080000F8000
000000000000
000000000000
000000000000
000000000000
000000000000
000000000000
10007FE00000
7C03FFFE0000
7E0FFFFF8000
FE3FFFFFE000
FE7FFFFFF000
FEFFFFFFF800
FFFF803FFC00
FFFC0007FE00
FFF00003FE00
FFE00000FF00
FFC000007F00
FF8000003F80
FF0000003F80
FF0000001FC0
FF0000001FC0
FE0000001FC0
FE0000000FC0
FE0000000FE0
FE0000000FE0
FE0000000FE0
FE0000000FE0
FE0000000FE0
FE0000000FE0
FE0000000FE0
FE0000000FE0
FE0000000FE0
FE0000000FE0
FE0000000FE0
FE0000000FE0
FE0000000FE0
FE0000000FE0
FE0000000FE0
FE0000000FE0
FE0000000FE0
FE0000000FE0
FE0000000FE0
FE0000000FE0
FE0000000FE0
FE0000000FE0
FE0000000FE0
FE0000000FE0
FE0000000FE0
FE0000000FE0
7E0000000FE0
7E00000007C0
3C0000000380
ENDCHAR
STARTCHAR 00F2
ENCODING 242
SWIDTH 672 0
DWIDTH 56 0
BBX 46 69 5 0
BITMAP
000E00000000
001F80000000
001FC0000000
001FE0000000
001FF0000000
001FF8000000
000FFC000000
0007FE000000
0003FF000000
0001FF800000
0000FF800000
00007FC00000
00003FC00000
00001FC00000
00000FC00000
000007800000
000000000000
000000000000
000000000000
000000000000
000000000000
000000000000
000000000000
00003FF00000
0001FFFF0000
000FFFFFC000
003FFFFFF000
007FFFFFF800
00FFFFFFFE00
01FFE00FFF00
03FF0001FF80
07FC00007F80
0FF800003FC0
0FE000001FE0
1FC000000FE0
3FC0000007F0
3F80000007F0
3F00000003F8
7F00000003F8
7F00000001FC
7E00000001FC
FE00000001FC
FE00000000FC
FE00000000FC
FC00000000FC
FC00000000FC
FC00000000FC
FC00000000FC
FC00000000FC
FE00000000FC
FE00000000FC
7E00000001FC
7E00000001FC
7F00000001F8
7F00000003F8
3F80000003F8
3F80000007F0
1FC000000FF0
1FE000001FE0
0FF000003FE0
07F800007FC0
07FE0000FF80
03FF8007FF00
01FFFCFFFE00
007FFFFFFC00
003FFFFFF800
000FFFFFE000
0003FFFF8000
0000FFFC0000
ENDCHAR
STARTCHAR 00F3
ENCODING 243
SWIDTH 672 0
DWIDTH 56 0
BBX 46 68 5 0
BITMAP
00000003C000
00000007E000
0000000FE000
0000001FE000
0000003FE000
0000007FC000
000000FF8000
000001FF0000
000003FE0000
000007FC0000
00000FF80000
00001FF00000
00001FE00000
00000FC00000
00000F800000
000000000000
000000000000
000000000000
000000000000
000000000000
000000000000
000000000000
00003FF00000
0001FFFF0000
000FFFFFC000
003FFFFFF000
007FFFFFF800
00FFFFFFFE00
01FFE00FFF00
03FF0001FF80
07FC00007F80
0FF800003FC0
0FE000001FE0
1FC000000FE0
3FC0000007F0
3F80000007F0
3F00000003F8
7F00000003F8
7F00000001FC
7E00000001FC
FE00000001FC
FE00000000FC
FE00000000FC
FC00000000FC
FC00000000FC
FC00000000FC
FC00000000FC
FC00000000FC
FE00000000FC
FE00000000FC
7E00000001FC
7E00000001FC
7F00000001F8
7F00000003F8
3F80000003F8
3F80000007F0
1FC000000FF0
1FE000001FE0
0FF000003FE0
07F800007FC0
07FE0000FF80
03FF8007FF00
01FFFCFFFE00
007FFFFFFC00
003FFFFFF800
000FFFFFE000
0003FFFF8000
0000FFFC0000
ENDCHAR
STARTCHAR 00F4
ENCODING 244
SWIDTH 672 0
DWIDTH 56 0
BBX 46 65 5 0
BITMAP
000007C00000
00001FE00000
00003FF80000
0000FFFC0000
0001FFFF0000
0007FFFF8000
000FFEFFE000
001FF87FF000
003FF01FF000
003FC00FF000
003F8007F000
001F0001E000
000000000000
000000000000
000000000000
000000000000
000000000000
000000000000
000000000000
00003FF00000
0001FFFF0000
000FFFFFC000
003FFFFFF000
007FFFFFF800
00FFFFFFFE00
01FFE00FFF00
03FF0001FF80
07FC00007F80
0FF800003FC0
0FE000001FE0
1FC000000FE0
3FC0000007F0
3F80000007F0
3F00000003F8
7F00000003F8
7F00000001FC
7E00000001FC
FE00000001FC
FE00000000FC
FE00000000FC
FC00000000FC
FC00000000FC
FC00000000FC
FC00000000FC
FC00000000FC
FE00000000FC
FE00000000FC
7E00000001FC
7E00000001FC
7F00000001F8
7F00000003F8
3F80000003F8
3F80000007F0
1FC000000FF0
1FE000001FE0
0FF000003FE0
07F800007FC0
07FE0000FF80
03FF8007FF00
01FFFCFFFE00
007FFFFFFC00
003FFFFFF800
000FFFFFE000
0003FFFF8000
0000FFFC0000
ENDCHAR
STARTCHAR 00F5
ENCODING 245
SWIDTH 672 0
DWIDTH 56 0
BBX 46 62 5 0
BITMAP
0003FF000000
000FFFC00700
001FFFE00F80
003FFFF81F80
007FFFFFFF80
00FF87FFFF80
00FE01FFFF00
00FC007FFE00
0078001FFC00
00200007E000
000000000000
000000000000
000000000000
000000000000
000000000000
000000000000
00003FF00000
0001FFFF0000
000FFFFFC000
003FFFFFF000
007FFFFFF800
00FFFFFFFE00
01FFE00FFF00
03FF0001FF80
07FC00007F80
0FF800003FC0
0FE000001FE0
1FC000000FE0
3FC0000007F0
3F80000007F0
3F00000003F8
7F00000003F8
7F00000001FC
7E00000001FC
FE00000001FC
FE00000000FC
FE00000000FC
FC00000000FC
FC00000000FC
FC00000000FC
FC00000000FC
FC00000000FC
FE00000000FC
FE00000000FC
7E00000001FC
7E00000001FC
7F00000001F8
7F00000003F8
3F80000003F8
3F80000007F0
1FC000000FF0
1FE000001FE0
0FF000003FE0
07F800007FC0
07FE0000FF80
03FF8007FF00
01FFFCFFFE00
007FFFFFFC00
003FFFFFF800
000FFFFFE000
0003FFFF8000
0000FFFC0000
ENDCHAR
STARTCHAR 00F6
ENCODING 246
SWIDTH 672 0
DWIDTH 56 0
BBX 46 63 5 0
BITMAP
000F8003C000
001FC007E000
003FE00FF000
003FE00FF000
003FE01FF800
003FE01FF000
003FE00FF000
001FC00FF000
000F8003C000
000000000000
000000000000
000000000000
000000000000
000000000000
000000000000
000000000000
000000000000
00003FF00000
0001FFFF0000
000FFFFFC000
003FFFFFF000
007FFFFFF800
00FFFFFFFE00
01FFE00FFF00
03FF0001FF80
07FC00007F80
0FF800003FC0
0FE000001FE0
1FC000000FE0
3FC0000007F0
3F80000007F0
3F00000003F8
7F00000003F8
7F00000001FC
7E00000001FC
FE00000001FC
FE00000000FC
FE00000000FC
FC00000000FC
FC00000000FC
FC00000000FC
FC00000000FC
FC00000000FC
FE00000000FC
FE00000000FC
7E00000001FC
7E00000001FC
7F00000001F8
7F00000003F8
3F80000003F8
3F80000007F0
1FC000000FF0
1FE000001FE0
0FF000003FE0
07F800007FC0
07FE0000FF80
03FF8007FF00
01FFFCFFFE00
007FFFFFFC00
003FFFFFF800
000FFFFFE000
0003FFFF8000
0000FFFC0000
ENDCHAR
STARTCHAR 00F7
ENCODING 247
SWIDTH 468 0
DWIDTH 39 0
BBX 33 33 3 13
BITMAP
0000800000
0003E00000
0007F00000
0007F00000
000FF00000
0007F00000
0007F00000
0003E00000
0000800000
0000000000
0000000000
0000000000
0000000000
0000000000
7FFFFFFF00
FFFFFFFF80
FFFFFFFF80
FFFFFFFF80
7FFFFFFF00
3FFFFFFE00
0000000000
0000000000
0000000000
0000000000
0000000000
0003E00000
0007F00000
0007F00000
000FF00000
000FF00000
0007F00000
0007F00000
0001C00000
ENDCHAR
STARTCHAR 00F8
ENCODING 248
SWIDTH 696 0
DWIDTH 58 0
BBX 48 48 5 -2
BITMAP
000007F80006
0000FFFF801F
0003FFFFE03F
000FFFFFF87F
001FFFFFFEFF
007FFFFFFFFE
00FFF807FFFC
01FFC000FFF8
03FF00003FF0
03FC00001FE0
07F800003FF0
0FF000007FF8
0FE00000FFF8
1FE00001FFFC
1FC00003FDFC
1F800007F8FE
3F80000FF0FE
3F80001FE07E
3F00003F807E
3F00007F007E
3F0000FE007F
3F0001FC007F
7F0003F8007F
7F0007F0007F
7F000FE0007F
3F001FC0007F
3F003F80007F
3F007F00007F
3F00FE00007E
3F81FC00007E
3F83F80000FE
1FC7F00000FE
1FCFE00001FC
0FFFC00001FC
0FFF800003F8
07FF000007F8
07FE00000FF0
03FC00001FE0
03FF00007FE0
07FFC001FFC0
0FFFF81FFF80
1FFFFFFFFF00
3F9FFFFFFC00
7F07FFFFF800
FE03FFFFE000
FC007FFF0000
780001C00000
200000000000
ENDCHAR
STARTCHAR 00F9
ENCODING 249
SWIDTH 672 0
DWIDTH 56 0
BBX 42 70 7 -1
BITMAP
003800000000
007E00000000
007F00000000
007F80000000
007FC0000000
007FE0000000
003FF0000000
001FF8000000
000FFC000000
0007FE000000
0003FE000000
0001FF000000
0000FF000000
00007F000000
00003F000000
00001E000000
000000000000
000000000000
000000000000
000000000000
000000000000
000000000000
000000000000
300000000200
F80000000F80
FC0000000FC0
FC0000001FC0
FC0000001FC0
FC0000001FC0
FC0000001FC0
FC0000001FC0
FC0000001FC0
FC0000001FC0
FC0000001FC0
FC0000001FC0
FC0000001FC0
FC0000001FC0
FC0000001FC0
FC0000001FC0
FC0000001FC0
FC0000001FC0
FC0000001FC0
FC0000001FC0
FC0000001FC0
FC0000001FC0
FC0000001FC0
FC0000001FC0
FC0000001FC0
FC0000001FC0
FC0000001FC0
FC0000001FC0
FC0000001FC0
FC0000001FC0
FE0000001FC0
FE0000001FC0
7E0000001FC0
7F0000003FC0
7F0000007FC0
3F8000007FC0
3FC00000FFC0
1FE00001FFC0
1FF80007FFC0
0FFE001FFFC0
07FFFFFFFFC0
03FFFFFFDFC0
01FFFFFF9FC0
007FFFFE0FC0
001FFFF80F80
0007FFE00780
000018000000
ENDCHAR
STARTCHAR 00FA
ENCODING 250
SWIDTH 672 0
DWIDTH 56 0
BBX 42 69 7 -1
BITMAP
0000000F0000
0000001F8000
0000003F8000
0000007F8000
000000FF8000
000001FF0000
000003FE0000
000007FC0000
00000FF80000
00001FF00000
00003FE00000
00007FC00000
00007F800000
00003F000000
00003E000000
000000000000
000000000000
000000000000
000000000000
000000000000
000000000000
000000000000
300000000200
F80000000F80
FC0000000FC0
FC0000001FC0
FC0000001FC0
FC0000001FC0
FC0000001FC0
FC0000001FC0
FC0000001FC0
FC0000001FC0
FC0000001FC0
FC0000001FC0
FC0000001FC0
FC0000001FC0
FC0000001FC0
FC0000001FC0
FC0000001FC0
FC0000001FC0
FC0000001FC0
FC0000001FC0
FC0000001FC0
FC0000001FC0
FC0000001FC0
FC0000001FC0
FC0000001FC0
FC0000001FC0
FC0000001FC0
FC0000001FC0
FC0000001FC0
FC0000001FC0
FE0000001FC0
FE0000001FC0
7E0000001FC0
7F0000003FC0
7F0000007FC0
3F8000007FC0
3FC00000FFC0
1FE00001FFC0
1FF80007FFC0
0FFE001FFFC0
07FFFFFFFFC0
03FFFFFFDFC0
01FFFFFF9FC0
007FFFFE0FC0
001FFFF80F80
0007FFE00780
000018000000
ENDCHAR
STARTCHAR 00FB
ENCODING 251
SWIDTH 672 0
DWIDTH 56 0
BBX 42 66 7 -1
BITMAP
00001F000000
00007F800000
0000FFE00000
0003FFF00000
0007FFFC0000
001FFFFE0000
003FFBFF8000
007FE1FFC000
00FFC07FC000
00FF003FC000
00FE001FC000
007C00078000
000000000000
000000000000
000000000000
000000000000
000000000000
000000000000
000000000000
300000000200
F80000000F80
FC0000000FC0
FC0000001FC0
FC0000001FC0
FC0000001FC0
FC0000001FC0
FC0000001FC0
FC0000001FC0
FC0000001FC0
FC0000001FC0
FC0000001FC0
FC0000001FC0
FC0000001FC0
FC0000001FC0
FC0000001FC0
FC0000001FC0
FC0000001FC0
FC0000001FC0
FC0000001FC0
FC0000001FC0
FC0000001FC0
FC0000001FC0
FC0000001FC0
FC0000001FC0
FC0000001FC0
FC0000001FC0
FC0000001FC0
FC0000001FC0
FC0000001FC0
FE0000001FC0
FE0000001FC0
7E0000001FC0
7F0000003FC0
7F0000007FC0
3F8000007FC0
3FC00000FFC0
1FE00001FFC0
1FF80007FFC0
0FFE001FFFC0
07FFFFFFFFC0
03FFFFFFDFC0
01FFFFFF9FC0
007FFFFE0FC0
001FFFF80F80
0007FFE00780
000018000000
ENDCHAR
STARTCHAR 00FC
ENCODING 252
SWIDTH 672 0
DWIDTH 56 0
BBX 42 64 7 -1
BITMAP
003E000F0000
007F003F8000
00FF803FC000
00FF807FC000
00FF807FC000
00FF807FC000
00FF803FC000
007F003F8000
003E000F0000
000000000000
000000000000
000000000000
000000000000
000000000000
000000000000
000000000000
000000000000
300000000200
F80000000F80
FC0000000FC0
FC0000001FC0
FC0000001FC0
FC0000001FC0
FC0000001FC0
FC0000001FC0
FC0000001FC0
FC0000001FC0
FC0000001FC0
FC0000001FC0
FC0000001FC0
FC0000001FC0
FC0000001FC0
FC0000001FC0
FC0000001FC0
FC0000001FC0
FC0000001FC0
FC0000001FC0
FC0000001FC0
FC0000001FC0
FC0000001FC0
FC0000001FC0
FC0000001FC0
FC0000001FC0
FC0000001FC0
FC0000001FC0
FC0000001FC0
FC0000001FC0
FE0000001FC0
FE0000001FC0
7E0000001FC0
7F0000003FC0
7F0000007FC0
3F8000007FC0
3FC00000FFC0
1FE00001FFC0
1FF80007FFC0
0FFE001FFFC0
07FFFFFFFFC0
03FFFFFFDFC0
01FFFFFF9FC0
007FFFFE0FC0
001FFFF80F80
0007FFE00780
000018000000
ENDCHAR
STARTCHAR 00FD
ENCODING 253
SWIDTH 552 0
DWIDTH 46 0
BBX 43 88 2 -20
BITMAP
0000000F0000
0000001F8000
0000003F8000
0000007F8000
000000FF8000
000001FF0000
000003FE0000
000007FC0000
00000FF80000
00001FF00000
00003FE00000
00003FC00000
00007F800000
00003F000000
00003E000000
000000000000
000000000000
000000000000
000000000000
000000000000
000000000000
000000000000
300000000100
F800000003C0
FC00000007E0
FC00000007E0
FE0000000FE0
FE0000000FC0
7F0000001FC0
7F0000001F80
3F0000003F80
3F8000003F80
1F8000007F00
1FC000007F00
0FC00000FE00
0FE00000FE00
07E00000FC00
07F00001FC00
03F00001F800
03F80003F800
01F80003F000
01FC0007F000
00FC0007F000
00FE000FE000
007E000FE000
007F001FC000
007F001FC000
003F801F8000
003F803F8000
001F803F0000
001FC07F0000
000FC07E0000
000FE0FE0000
0007E0FC0000
0007F1FC0000
0003F1FC0000
0003FBF80000
0001FBF80000
0001FFF00000
0000FFF00000
0000FFE00000
00007FE00000
00007FC00000
00003FC00000
00003F800000
00003F800000
00003F800000
00003F000000
00007F000000
00007E000000
0000FE000000
0000FC000000
0001FC000000
0001F8000000
0003F8000000
0003F0000000
0007F0000000
0007F0000000
0007E0000000
000FE0000000
000FC0000000
001FC0000000
001F80000000
003F80000000
003F00000000
003F00000000
003E00000000
000C00000000
ENDCHAR
STARTCHAR 00FE
ENCODING 254
SWIDTH 708 0
DWIDTH 59 0
BBX 47 85 7 -20
BITMAP
3C0000000000
7E0000000000
7E0000000000
FE0000000000
FE0000000000
FE0000000000
FE0000000000
FE0000000000
FE0000000000
FE0000000000
FE0000000000
FE0000000000
FE0000000000
FE0000000000
FE0000000000
FE0000000000
FE0000000000
FE0000000000
FE0000000000
FE000FF80000
FE00FFFF8000
FE03FFFFE000
FE07FFFFF800
FE1FFFFFFC00
FE3FFFFFFE00
FE7FE007FF00
FEFF0001FF80
FEFC00007FC0
FFF800003FE0
FFF000001FE0
FFE000000FF0
FFC0000007F8
FF80000003F8
FF80000003F8
FF00000001FC
FF00000001FC
FF00000000FC
FE00000000FC
FE00000000FE
FE00000000FE
FE00000000FE
FE00000000FE
FE00000000FE
FE00000000FE
FE00000000FE
FE00000000FE
FE00000000FC
FE00000000FC
FF00000001FC
FF00000001FC
FF80000001FC
FF80000003F8
FFC0000003F8
FFC0000007F0
FFE000000FF0
FFF000001FE0
FEF800003FE0
FEFE0000FFC0
FE7F8003FF80
FE3FFE7FFF00
FE1FFFFFFE00
FE0FFFFFFC00
FE07FFFFF000
FE01FFFFC000
FE003FFE0000
FE0000000000
FE0000000000
FE0000000000
FE0000000000
FE0000000000
FE0000000000
FE0000000000
FE0000000000
FE0000000000
FE0000000000
FE0000000000
FE0000000000
FE0000000000
FE0000000000
FE0000000000
FE0000000000
FE0000000000
7E0000000000
7C0000000000
100000000000
ENDCHAR
STARTCHAR 00FF
ENCODING 255
SWIDTH 552 0
DWIDTH 46 0
BBX 43 83 2 -20
BITMAP
003E000F0000
007F001FC000
007F803FC000
00FF803FE000
00FF807FE000
00FF803FE000
00FF803FC000
007F001FC000
003E000F0000
000000000000
000000000000
000000000000
000000000000
000000000000
000000000000
000000000000
000000000000
300000000100
F800000003C0
FC00000007E0
FC00000007E0
FE0000000FE0
FE0000000FC0
7F0000001FC0
7F0000001F80
3F0000003F80
3F8000003F80
1F8000007F00
1FC000007F00
0FC00000FE00
0FE00000FE00
07E00000FC00
07F00001FC00
03F00001F800
03F80003F800
01F80003F000
01FC0007F000
00FC0007F000
00FE000FE000
007E000FE000
007F001FC000
007F001FC000
003F801F8000
003F803F8000
001F803F0000
001FC07F0000
000FC07E0000
000FE0FE0000
0007E0FC0000
0007F1FC0000
0003F1FC0000
0003FBF80000
0001FBF80000
0001FFF00000
0000FFF00000
0000FFE00000
00007FE00000
00007FC00000
00003FC00000
00003F800000
00003F800000
00003F800000
00003F000000
00007F000000
00007E000000
0000FE000000
0000FC000000
0001FC000000
0001F8000000
0003F8000000
0003F0000000
0007F0000000
0007F0000000
0007E0000000
000FE0000000
000FC0000000
001FC0000000
001F80000000
003F80000000
003F00000000
003F00000000
003E00000000
000C00000000
ENDCHAR
STARTCHAR 0100
ENCODING 256
SWIDTH 708 0
DWIDTH 59 0
BBX 55 80 2 0
BITMAP
0003FFFFFF0000
0003FFFFFF8000
0007FFFFFF8000
0007FFFFFF8000
0003FFFFFF8000
0001FFFFFF0000
00000000000000
00000000000000
00000000000000
00000000000000
00000000000000
00000000000000
00000000000000
00000000000000
00000000000000
00000038000000
0000007C000000
000000FE000000
000000FE000000
000001FF000000
000001FF000000
000003FF000000
000003FF800000
000003FF800000
000007FFC00000
000007FFC00000
00000FEFE00000
00000FEFE00000
00000FC7E00000
00001FC7F00000
00001F83F00000
00003F83F80000
00003F83F80000
00007F01F80000
00007F01FC0000
00007E00FC0000
0000FE00FE0000
0000FE00FE0000
0001FC007F0000
0001FC007F0000
0003F8003F0000
0003F8003F8000
0003F0001F8000
0007F0001FC000
0007F0001FC000
000FE0000FE000
000FE0000FE000
000FC00007E000
001FC00007F000
001FC00007F000
003F800003F800
003F800003F800
007F000001F800
007F000001FC00
007E000001FC00
00FE000000FE00
00FE000000FE00
01FC0000007F00
01FC0000007F00
03FFFFFFFFFF00
03FFFFFFFFFF80
03FFFFFFFFFF80
07FFFFFFFFFFC0
07FFFFFFFFFFC0
0FFFFFFFFFFFE0
0FE00000000FE0
0FE00000000FE0
1FC000000007F0
1FC000000007F0
3F8000000003F8
3F8000000003F8
7F0000000003FC
7F0000000001FC
7F0000000001FC
FE0000000000FE
FE0000000000FE
FC00000000007E
FC00000000007E
FC00000000007E
7800000000003C
ENDCHAR
STARTCHAR 0101
ENCODING 257
SWIDTH 672 0
DWIDTH 56 0
BBX 46 61 5 0
BITMAP
001FFFFFE000
003FFFFFF800
007FFFFFF800
007FFFFFF800
007FFFFFF800
003FFFFFF000
000000000000
000000000000
000000000000
000000000000
000000000000
000000000000
000000000000
000000000000
000000000000
00003FF00000
0001FFFF0000
000FFFFFC000
001FFFFFF000
007FFFFFF800
00FFFFFFFC00
01FFE00FFF00
03FF0001FF00
07FC0000FF80
0FF800003FC0
0FF000001FE0
1FE000000FE0
3FC0000007F0
3F80000007F0
3F00000003F8
7F00000003F8
7F00000001F8
7E00000001FC
7E00000001FC
FE00000000FC
FE00000000FC
FC00000000FC
FC00000000FC
FC00000000FC
FC00000000FC
FC00000000FC
FE00000000FC
FE00000000FC
7E00000001FC
7E00000001FC
7F00000001FC
7F00000003FC
3F80000003FC
3F80000007FC
1FC000000FFC
1FE000001FFC
0FF000003FFC
07F800007FFC
07FE0001FEFC
03FF8007FEFC
01FFFCFFFCFC
00FFFFFFF8FC
003FFFFFE0FC
001FFFFFC0FC
0007FFFF00FC
0000FFF80078
ENDCHAR
STARTCHAR 0102
ENCODING 258
SWIDTH 708 0
DWIDTH 59 0
BBX 55 85 2 0
BITMAP
0000E0001E0000
0001F0003F0000
0003F0003F0000
0003F8003F0000
0003F8003F0000
0001FC007F0000
0001FE00FE0000
0000FFFFFE0000
0000FFFFFC0000
00007FFFF80000
00001FFFF00000
00000FFFC00000
000001FE000000
00000000000000
00000000000000
00000000000000
00000000000000
00000000000000
00000000000000
00000000000000
00000038000000
0000007C000000
000000FE000000
000000FE000000
000001FF000000
000001FF000000
000003FF000000
000003FF800000
000003FF800000
000007FFC00000
000007FFC00000
00000FEFE00000
00000FEFE00000
00000FC7E00000
00001FC7F00000
00001F83F00000
00003F83F80000
00003F83F80000
00007F01F80000
00007F01FC0000
00007E00FC0000
0000FE00FE0000
0000FE00FE0000
0001FC007F0000
0001FC007F0000
0003F8003F0000
0003F8003F8000
0003F0001F8000
0007F0001FC000
0007F0001FC000
000FE0000FE000
000FE0000FE000
000FC00007E000
001FC00007F000
001FC00007F000
003F800003F800
003F800003F800
007F000001F800
007F000001FC00
007E000001FC00
00FE000000FE00
00FE000000FE00
01FC0000007F00
01FC0000007F00
03FFFFFFFFFF00
03FFFFFFFFFF80
03FFFFFFFFFF80
07FFFFFFFFFFC0
07FFFFFFFFFFC0
0FFFFFFFFFFFE0
0FE00000000FE0
0FE00000000FE0
1FC000000007F0
1FC000000007F0
3F8000000003F8
3F8000000003F8
7F0000000003FC
7F0000000001FC
7F0000000001FC
FE0000000000FE
FE0000000000FE
FC00000000007E
FC00000000007E
FC00000000007E
7800000000003C
ENDCHAR
STARTCHAR 0103
ENCODING 259
SWIDTH 672 0
DWIDTH 56 0
BBX 46 66 5 0
BITMAP
000400004000
001F0001E000
003F0003F000
003F0003F000
003F8003F000
003F8007F000
001FC00FF000
001FF03FE000
000FFFFFC000
0007FFFFC000
0003FFFF8000
0001FFFE0000
00007FF80000
000000000000
000000000000
000000000000
000000000000
000000000000
000000000000
000000000000
00003FF00000
0001FFFF0000
000FFFFFC000
001FFFFFF000
007FFFFFF800
00FFFFFFFC00
01FFE00FFF00
03FF0001FF00
07FC0000FF80
0FF800003FC0
0FF000001FE0
1FE000000FE0
3FC0000007F0
3F80000007F0
3F00000003F8
7F00000003F8
7F00000001F8
7E00000001FC
7E00000001FC
FE00000000FC
FE00000000FC
FC00000000FC
FC00000000FC
FC00000000FC
FC00000000FC
FC00000000FC
FE00000000FC
FE00000000FC
7E00000001FC
7E00000001FC
7F00000001FC
7F00000003FC
3F80000003FC
3F80000007FC
1FC000000FFC
1FE000001FFC
0FF000003FFC
07F800007FFC
07FE0001FEFC
03FF8007FEFC
01FFFCFFFCFC
00FFFFFFF8FC
003FFFFFE0FC
001FFFFFC0FC
0007FFFF00FC
0000FFF80078
ENDCHAR
STARTCHAR 0104
ENCODING 260
SWIDTH 708 0
DWIDTH 59 0
BBX 62 85 2 -20
BITMAP
0000003800000000
0000007C00000000
000000FE00000000
000000FE00000000
000001FF00000000
000001FF00000000
000003FF00000000
000003FF80000000
000003FF80000000
000007FFC0000000
000007FFC0000000
00000FEFE0000000
00000FEFE0000000
00000FC7E0000000
00001FC7F0000000
00001F83F0000000
00003F83F8000000
00003F83F8000000
00007F01F8000000
00007F01FC000000
00007E00FC000000
0000FE00FE000000
0000FE00FE000000
0001FC007F000000
0001FC007F000000
0003F8003F000000
0003F8003F800000
0003F0001F800000
0007F0001FC00000
0007F0001FC00000
000FE0000FE00000
000FE0000FE00000
000FC00007E00000
001FC00007F00000
001FC00007F00000
003F800003F80000
003F800003F80000
007F000001F80000
007F000001FC0000
007E000001FC0000
00FE000000FE0000
00FE000000FE0000
01FC0000007F0000
01FC0000007F0000
03FFFFFFFFFF0000
03FFFFFFFFFF8000
03FFFFFFFFFF8000
07FFFFFFFFFFC000
07FFFFFFFFFFC000
0FFFFFFFFFFFE000
0FE00000000FE000
0FE00000000FE000
1FC000000007F000
1FC000000007F000
3F8000000003F800
3F8000000003F800
7F0000000003FC00
7F0000000001FC00
7F0000000001FC00
FE0000000000FE00
FE0000000000FE00
FC00000000007E00
FC00000000007E00
FC00000000007E00
7800000000007E00
000000000000FE00
000000000001FE00
000000000003FE00
000000000007FC00
00000000000FF800
00000000001FF000
00000000001FE000
00000000001FC000
00000000003F8000
00000000003F8000
00000000003F8070
00000000003F80F8
00000000001FC3FC
00000000001FFFFC
00000000001FFFFC
00000000000FFFF8
000000000007FFF0
000000000003FFC0
000000000001FF80
0000000000003E00
ENDCHAR
STARTCHAR 0105
ENCODING 261
SWIDTH 672 0
DWIDTH 56 0
BBX 56 68 5 -22
BITMAP
00003FF0000000
0001FFFF000000
000FFFFFC00000
001FFFFFF00000
007FFFFFF80000
00FFFFFFFC0000
01FFE00FFF0000
03FF0001FF0000
07FC0000FF8000
0FF800003FC000
0FF000001FE000
1FE000000FE000
3FC0000007F000
3F80000007F000
3F00000003F800
7F00000003F800
7F00000001F800
7E00000001FC00
7E00000001FC00
FE00000000FC00
FE00000000FC00
FC00000000FC00
FC00000000FC00
FC00000000FC00
FC00000000FC00
FC00000000FC00
FE00000000FC00
FE00000000FC00
7E00000001FC00
7E00000001FC00
7F00000001FC00
7F00000003FC00
3F80000003FC00
3F80000007FC00
1FC000000FFC00
1FE000001FFC00
0FF000003FFC00
07F800007FFC00
07FE0001FEFC00
03FF8007FEFC00
01FFFCFFFCFC00
00FFFFFFF8FC00
003FFFFFE0FC00
001FFFFFC0FC00
0007FFFF00FC00
0000FFF8007E00
00000000001F00
00000000001F80
00000000003F80
00000000007F80
0000000000FF80
0000000001FF00
0000000003FE00
0000000007FC00
0000000007F800
000000000FF000
000000000FE000
000000000FE000
000000000FE01C
000000000FE07E
000000000FF0FE
0000000007FFFF
0000000007FFFE
0000000003FFFE
0000000001FFFC
0000000000FFF0
00000000007FE0
00000000001F00
ENDCHAR
STARTCHAR 0106
ENCODING 262
SWIDTH 768 0
DWIDTH 64 0
BBX 54 89 5 -1
BITMAP
0000000000C000
0000000003E000
0000000007F000
000000000FF000
000000001FF000
000000003FE000
000000007FC000
00000000FF8000
00000001FF0000
00000003FE0000
00000007FC0000
00000007F80000
0000000FF00000
0000000FE00000
00000007C00000
00000003800000
00000000000000
00000000000000
00000000000000
00000000000000
00000000000000
00000000000000
0000001FFC0000
000001FFFFC000
00000FFFFFF800
00003FFFFFFE00
0000FFFFFFFF80
0001FFFFFFFFC0
0007FFF80FFFF0
000FFF80007FF8
001FFC00000FFC
003FF0000007FC
007FE0000001FC
00FF80000000F8
01FF0000000030
01FE0000000000
03FC0000000000
07F80000000000
07F00000000000
0FF00000000000
0FE00000000000
1FC00000000000
1FC00000000000
3F800000000000
3F800000000000
3F000000000000
7F000000000000
7F000000000000
7E000000000000
7E000000000000
FE000000000000
FE000000000000
FE000000000000
FE000000000000
FC000000000000
FC000000000000
FE000000000000
FE000000000000
FE000000000000
FE000000000000
7E000000000000
7E000000000000
7E000000000000
7F000000000000
7F000000000000
3F000000000000
3F800000000000
3F800000000000
1FC00000000000
1FC00000000000
0FE00000000000
0FE00000000000
07F00000000000
07F80000000000
03FC0000000000
01FE0000000000
01FF0000000030
00FF80000000F8
007FE0000001FC
003FF0000007FC
001FFC00001FFC
000FFF8000FFF8
0007FFFC1FFFF0
0001FFFFFFFFE0
0000FFFFFFFF80
00003FFFFFFF00
000007FFFFF800
000000FFFFE000
0000000FF80000
ENDCHAR
STARTCHAR 0107
ENCODING 263
SWIDTH 600 0
DWIDTH 50 0
BBX 40 68 5 0
BITMAP
0000000780
0000001F80
0000003FC0
0000007FC0
000000FF80
000001FF80
000003FF00
000007FE00
00000FFC00
00001FF800
00001FF000
00003FE000
00003FC000
00003F8000
00001F0000
0000040000
0000000000
0000000000
0000000000
0000000000
0000000000
0000000000
00007FE000
0003FFFC00
000FFFFF00
003FFFFFC0
00FFFFFFE0
01FFFFFFF8
03FF801FFC
07FE0007FC
07F80001FE
0FF00000FF
1FE000007E
1FC000003E
3F80000008
3F80000000
7F00000000
7F00000000
7E00000000
7E00000000
FE00000000
FE00000000
FC00000000
FC00000000
FC00000000
FC00000000
FC00000000
FC00000000
FE00000000
FE00000000
7E00000000
7E00000000
7F00000000
7F00000000
3F80000000
3F80000000
1FC0000000
1FE0000000
0FF0000038
07F800007C
07FE0001FE
03FF8007FE
01FFFCFFFC
00FFFFFFF8
003FFFFFF0
001FFFFFC0
0007FFFF80
0000FFFC00
ENDCHAR
STARTCHAR 0108
ENCODING 264
SWIDTH 768 0
DWIDTH 64 0
BBX 54 86 5 -1
BITMAP
00000003C00000
00000007E00000
0000001FF80000
0000003FFC0000
000000FFFF0000
000001FFFF8000
000007FFFFE000
00000FFE7FF000
00001FFC1FF800
00001FF00FF800
00001FE003F800
00000F8001F800
00000700006000
00000000000000
00000000000000
00000000000000
00000000000000
00000000000000
00000000000000
0000001FFC0000
000001FFFFC000
00000FFFFFF800
00003FFFFFFE00
0000FFFFFFFF80
0001FFFFFFFFC0
0007FFF80FFFF0
000FFF80007FF8
001FFC00000FFC
003FF0000007FC
007FE0000001FC
00FF80000000F8
01FF0000000030
01FE0000000000
03FC0000000000
07F80000000000
07F00000000000
0FF00000000000
0FE00000000000
1FC00000000000
1FC00000000000
3F800000000000
3F800000000000
3F000000000000
7F000000000000
7F000000000000
7E000000000000
7E000000000000
FE000000000000
FE000000000000
FE000000000000
FE000000000000
FC000000000000
FC000000000000
FE000000000000
FE000000000000
FE000000000000
FE000000000000
7E000000000000
7E000000000000
7E000000000000
7F000000000000
7F000000000000
3F000000000000
3F800000000000
3F800000000000
1FC00000000000
1FC00000000000
0FE00000000000
0FE00000000000
07F00000000000
07F80000000000
03FC0000000000
01FE0000000000
01FF0000000030
00FF80000000F8
007FE0000001FC
003FF0000007FC
001FFC00001FFC
000FFF8000FFF8
0007FFFC1FFFF0
0001FFFFFFFFE0
0000FFFFFFFF80
00003FFFFFFF00
000007FFFFF800
000000FFFFE000
0000000FF80000
ENDCHAR
STARTCHAR 0109
ENCODING 265
SWIDTH 600 0
DWIDTH 50 0
BBX 40 65 5 0
BITMAP
00000F8000
00003FC000
00007FF000
0001FFF800
0007FFFE00
000FFFFF00
003FFFFFC0
007FF0FFC0
007FE07FE0
007F801FE0
007F000FE0
003C0003C0
0000000000
0000000000
0000000000
0000000000
0000000000
0000000000
0000000000
00007FE000
0003FFFC00
000FFFFF00
003FFFFFC0
00FFFFFFE0
01FFFFFFF8
03FF801FFC
07FE0007FC
07F80001FE
0FF00000FF
1FE000007E
1FC000003E
3F80000008
3F80000000
7F00000000
7F00000000
7E00000000
7E00000000
FE00000000
FE00000000
FC00000000
FC00000000
FC00000000
FC00000000
FC00000000
FC00000000
FE00000000
FE00000000
7E00000000
7E00000000
7F00000000
7F00000000
3F80000000
3F80000000
1FC0000000
1FE0000000
0FF0000038
07F800007C
07FE0001FE
03FF8007FE
01FFFCFFFC
00FFFFFFF8
003FFFFFF0
001FFFFFC0
0007FFFF80
0000FFFC00
ENDCHAR
STARTCHAR 010A
ENCODING 266
SWIDTH 768 0
DWIDTH 64 0
BBX 54 84 5 -1
BITMAP
00000003C00000
00000007E00000
0000000FF00000
0000000FF80000
0000000FF80000
0000000FF80000
0000000FF00000
0000000FF00000
00000003E00000
00000000000000
00000000000000
00000000000000
00000000000000
00000000000000
00000000000000
00000000000000
00000000000000
0000001FFC0000
000001FFFFC000
00000FFFFFF800
00003FFFFFFE00
0000FFFFFFFF80
0001FFFFFFFFC0
0007FFF80FFFF0
000FFF80007FF8
001FFC00000FFC
003FF0000007FC
007FE0000001FC
00FF80000000F8
01FF0000000030
01FE0000000000
03FC0000000000
07F80000000000
07F00000000000
0FF00000000000
0FE00000000000
1FC00000000000
1FC00000000000
3F800000000000
3F800000000000
3F000000000000
7F000000000000
7F000000000000
7E000000000000
7E000000000000
FE000000000000
FE000000000000
FE000000000000
FE000000000000
FC000000000000
FC000000000000
FE000000000000
FE000000000000
FE000000000000
FE000000000000
7E000000000000
7E000000000000
7E000000000000
7F000000000000
7F000000000000
3F000000000000
3F800000000000
3F800000000000
1FC00000000000
1FC00000000000
0FE00000000000
0FE00000000000
07F00000000000
07F80000000000
03FC0000000000
01FE0000000000
01FF0000000030
00FF80000000F8
007FE0000001FC
003FF0000007FC
001FFC00001FFC
000FFF8000FFF8
0007FFFC1FFFF0
0001FFFFFFFFE0
0000FFFFFFFF80
00003FFFFFFF00
000007FFFFF800
000000FFFFE000
0000000FF80000
ENDCHAR
STARTCHAR 010B
ENCODING 267
SWIDTH 600 0
DWIDTH 50 0
BBX 40 63 5 0
BITMAP
00001F8000
00003FC000
00003FC000
00007FC000
00007FC000
00003FC000
00003FC000
00001F8000
0000070000
0000000000
0000000000
0000000000
0000000000
0000000000
0000000000
0000000000
0000000000
00007FE000
0003FFFC00
000FFFFF00
003FFFFFC0
00FFFFFFE0
01FFFFFFF8
03FF801FFC
07FE0007FC
07F80001FE
0FF00000FF
1FE000007E
1FC000003E
3F80000008
3F80000000
7F00000000
7F00000000
7E00000000
7E00000000
FE00000000
FE00000000
FC00000000
FC00000000
FC00000000
FC00000000
FC00000000
FC00000000
FE00000000
FE00000000
7E00000000
7E00000000
7F00000000
7F00000000
3F80000000
3F80000000
1FC0000000
1FE0000000
0FF0000038
07F800007C
07FE0001FE
03FF8007FE
01FFFCFFFC
00FFFFFFF8
003FFFFFF0
001FFFFFC0
0007FFFF80
0000FFFC00
ENDCHAR
STARTCHAR 010C
ENCODING 268
SWIDTH 768 0
DWIDTH 64 0
BBX 54 86 5 0
BITMAP
00000E00007000
00001F8001F800
00001FC003F800
00001FF00FF800
00000FF81FF000
000007FE7FE000
000003FFFFC000
000000FFFF0000
0000007FFE0000
0000001FF80000
00000007F00000
00000003C00000
00000000000000
00000000000000
00000000000000
00000000000000
00000000000000
00000000000000
00000000000000
0000001FFC0000
000001FFFFC000
00000FFFFFF800
00003FFFFFFE00
0000FFFFFFFF80
0001FFFFFFFFC0
0007FFF80FFFF0
000FFF80007FF8
001FFC00000FFC
003FF0000007FC
007FE0000001FC
00FF80000000F8
01FF0000000030
01FE0000000000
03FC0000000000
07F80000000000
07F00000000000
0FF00000000000
0FE00000000000
1FC00000000000
1FC00000000000
3F800000000000
3F800000000000
3F000000000000
7F000000000000
7F000000000000
7E000000000000
7E000000000000
FE000000000000
FE000000000000
FE000000000000
FE000000000000
FC000000000000
FC000000000000
FE000000000000
FE000000000000
FE000000000000
FE000000000000
7E000000000000
7E000000000000
7E000000000000
7F000000000000
7F000000000000
3F000000000000
3F800000000000
3F800000000000
1FC00000000000
1FC00000000000
0FE00000000000
0FE00000000000
07F00000000000
07F80000000000
03FC0000000000
01FE0000000000
01FF0000000030
00FF80000000F8
007FE0000001FC
003FF0000007FC
001FFC00001FFC
000FFF8000FFF8
0007FFFC1FFFF0
0001FFFFFFFFE0
0000FFFFFFFF80
00003FFFFFFF00
000007FFFFF800
000000FFFFE000
0000000FF80000
ENDCHAR
STARTCHAR 010D
ENCODING 269
SWIDTH 600 0
DWIDTH 50 0
BBX 40 65 5 1
BITMAP
003C0003C0
007F000FE0
007F801FE0
007FE03FE0
003FF0FFC0
000FF9FF00
0007FFFE00
0001FFF800
0000FFF000
00003FC000
00001F8000
0000060000
0000000000
0000000000
0000000000
0000000000
0000000000
0000000000
0000000000
00007FE000
0003FFFC00
000FFFFF00
003FFFFFC0
00FFFFFFE0
01FFFFFFF8
03FF801FFC
07FE0007FC
07F80001FE
0FF00000FF
1FE000007E
1FC000003E
3F80000008
3F80000000
7F00000000
7F00000000
7E00000000
7E00000000
FE00000000
FE00000000
FC00000000
FC00000000
FC00000000
FC00000000
FC00000000
FC00000000
FE00000000
FE00000000
7E00000000
7E00000000
7F00000000
7F00000000
3F80000000
3F80000000
1FC0000000
1FE0000000
0FF0000038
07F800007C
07FE0001FE
03FF8007FE
01FFFCFFFC
00FFFFFFF8
003FFFFFF0
001FFFFFC0
0007FFFF80
0000FFFC00
ENDCHAR
STARTCHAR 010E
ENCODING 270
SWIDTH 768 0
DWIDTH 64 0
BBX 51 85 8 1
BITMAP
000E0000700000
001F8001F80000
001FC003F80000
001FF00FF80000
000FF81FF00000
0007FE7FE00000
0003FFFFC00000
0000FFFF000000
00007FFE000000
00001FF8000000
000007F0000000
000003C0000000
00000000000000
00000000000000
00000000000000
00000000000000
00000000000000
00000000000000
00000000000000
00000000000000
3FFFFF80000000
7FFFFFF8000000
FFFFFFFF000000
FFFFFFFFC00000
FFFFFFFFF00000
FFFFFFFFFC0000
FE00007FFE0000
FE00000FFF0000
FE000001FF8000
FE0000007FC000
FE0000003FE000
FE0000001FF000
FE00000007F800
FE00000003FC00
FE00000003FC00
FE00000001FE00
FE00000000FE00
FE000000007F00
FE000000007F00
FE000000003F80
FE000000003F80
FE000000001F80
FE000000001FC0
FE000000001FC0
FE000000000FC0
FE000000000FC0
FE000000000FE0
FE000000000FE0
FE000000000FE0
FE000000000FE0
FE0000000007E0
FE0000000007E0
FE0000000007E0
FE0000000007E0
FE0000000007E0
FE000000000FE0
FE000000000FE0
FE000000000FE0
FE000000000FE0
FE000000000FC0
FE000000000FC0
FE000000001FC0
FE000000001FC0
FE000000001F80
FE000000003F80
FE000000003F80
FE000000007F00
FE000000007F00
FE00000000FE00
FE00000001FE00
FE00000003FC00
FE00000007FC00
FE0000000FF800
FE0000001FF000
FE0000003FE000
FE000000FFC000
FE000001FF8000
FE00000FFF0000
FE00007FFE0000
FFFFFFFFFC0000
FFFFFFFFF00000
FFFFFFFFC00000
FFFFFFFF000000
7FFFFFF8000000
3FFFFF80000000
ENDCHAR
STARTCHAR 010F
ENCODING 271
SWIDTH 792 0
DWIDTH 66 0
BBX 62 65 5 0
BITMAP
00000000007803F0
0000000000FC03F0
0000000000FC07F8
0000000000FC07F8
0000000000FC03FC
0000000000FC03FC
0000000000FC03FC
0000000000FC01FC
0000000000FC01F8
0000000000FC01F8
0000000000FC01F8
0000000000FC01F0
0000000000FC03F0
0000000000FC03F0
0000000000FC07E0
0000000000FC07E0
0000000000FC0FC0
0000000000FC0F80
0000000000FC1F80
00003FE000FC1F00
0003FFFE00FC1E00
000FFFFF80FC0000
003FFFFFE0FC0000
007FFFFFF0FC0000
00FFFFFFF8FC0000
01FFE00FFCFC0000
03FF0001FEFC0000
07FC0000FFFC0000
0FF800003FFC0000
1FF000001FFC0000
1FE000000FFC0000
3FC0000007FC0000
3F80000007FC0000
3F00000003FC0000
7F00000003FC0000
7F00000001FC0000
7E00000001FC0000
FE00000001FC0000
FE00000000FC0000
FC00000000FC0000
FC00000000FC0000
FC00000000FC0000
FC00000000FC0000
FC00000000FC0000
FC00000000FC0000
FE00000000FC0000
FE00000000FC0000
7E00000001FC0000
7E00000001FC0000
7F00000001F80000
7F00000003F80000
3F80000003F80000
3F80000007F00000
1FC000000FF00000
1FE000001FE00000
0FF000003FC00000
07F800007FC00000
07FE0001FF800000
03FF8007FF000000
01FFFCFFFE000000
007FFFFFFC000000
003FFFFFF0000000
000FFFFFE0000000
0003FFFF80000000
00007FFC00000000
ENDCHAR
STARTCHAR 0110
ENCODING 272
SWIDTH 768 0
DWIDTH 64 0
BBX 59 65 0 0
BITMAP
003FFFFF80000000
007FFFFFF8000000
00FFFFFFFF000000
00FFFFFFFFC00000
00FFFFFFFFF00000
00FFFFFFFFFC0000
00FE00007FFE0000
00FE00000FFF0000
00FE000001FF8000
00FE0000007FC000
00FE0000003FE000
00FE0000001FF000
00FE00000007F800
00FE00000003FC00
00FE00000003FC00
00FE00000001FE00
00FE00000000FE00
00FE000000007F00
00FE000000007F00
00FE000000003F80
00FE000000003F80
00FE000000001F80
00FE000000001FC0
00FE000000001FC0
00FE000000000FC0
00FE000000000FC0
00FE000000000FE0
00FE000000000FE0
00FE000000000FE0
00FE000000000FE0
7FFFFFFC000007E0
FFFFFFFC000007E0
FFFFFFFC000007E0
FFFFFFFC000007E0
7FFFFFFC000007E0
00FE000000000FE0
00FE000000000FE0
00FE000000000FE0
00FE000000000FE0
00FE000000000FC0
00FE000000000FC0
00FE000000001FC0
00FE000000001FC0
00FE000000001F80
00FE000000003F80
00FE000000003F80
00FE000000007F00
00FE000000007F00
00FE00000000FE00
00FE00000001FE00
00FE00000003FC00
00FE00000007FC00
00FE0000000FF800
00FE0000001FF000
00FE0000003FE000
00FE000000FFC000
00FE000001FF8000
00FE00000FFF0000
00FE00007FFE0000
00FFFFFFFFFC0000
00FFFFFFFFF00000
00FFFFFFFFC00000
00FFFFFFFF000000
007FFFFFF8000000
003FFFFF80000000
ENDCHAR
STARTCHAR 0111
ENCODING 273
SWIDTH 708 0
DWIDTH 59 0
BBX 54 65 5 0
BITMAP
00000000007800
0000000000FC00
0000000000FC00
0000000000FC00
0000000000FC00
0000000000FC00
0000000000FC00
0000000000FC00
000000FFFFFFF8
000000FFFFFFFC
000001FFFFFFFC
000000FFFFFFFC
000000FFFFFFF8
0000000000FC00
0000000000FC00
0000000000FC00
0000000000FC00
0000000000FC00
0000000000FC00
00003FE000FC00
0003FFFE00FC00
000FFFFF80FC00
003FFFFFE0FC00
007FFFFFF0FC00
00FFFFFFF8FC00
01FFE00FFCFC00
03FF0001FEFC00
07FC0000FFFC00
0FF800003FFC00
1FF000001FFC00
1FE000000FFC00
3FC0000007FC00
3F80000007FC00
3F00000003FC00
7F00000003FC00
7F00000001FC00
7E00000001FC00
FE00000001FC00
FE00000000FC00
FC00000000FC00
FC00000000FC00
FC00000000FC00
FC00000000FC00
FC00000000FC00
FC00000000FC00
FE00000000FC00
FE00000000FC00
7E00000001FC00
7E00000001FC00
7F00000001F800
7F00000003F800
3F80000003F800
3F80000007F000
1FC000000FF000
1FE000001FE000
0FF000003FC000
07F800007FC000
07FE0001FF8000
03FF8007FF0000
01FFFCFFFE0000
007FFFFFFC0000
003FFFFFF00000
000FFFFFE00000
0003FFFF800000
00007FFC000000
ENDCHAR
STARTCHAR 0112
ENCODING 274
SWIDTH 696 0
DWIDTH 58 0
BBX 46 80 8 0
BITMAP
001FFFFFF800
003FFFFFF800
003FFFFFFC00
003FFFFFFC00
003FFFFFF800
001FFFFFF000
000000000000
000000000000
000000000000
000000000000
000000000000
000000000000
000000000000
000000000000
000000000000
3FFFFFFFFFF8
7FFFFFFFFFF8
FFFFFFFFFFFC
FFFFFFFFFFFC
FFFFFFFFFFFC
FFFFFFFFFFF8
FE0000000000
FE0000000000
FE0000000000
FE0000000000
FE0000000000
FE0000000000
FE0000000000
FE0000000000
FE0000000000
FE0000000000
FE0000000000
FE0000000000
FE0000000000
FE0000000000
FE0000000000
FE0000000000
FE0000000000
FE0000000000
FE0000000000
FE0000000000
FE0000000000
FE0000000000
FE0000000000
FFFFFFFFC000
FFFFFFFFF000
FFFFFFFFF000
FFFFFFFFF000
FFFFFFFFF000
FFFFFFFFE000
FFFFFFFF8000
FE0000000000
FE0000000000
FE0000000000
FE0000000000
FE0000000000
FE0000000000
FE0000000000
FE0000000000
FE0000000000
FE0000000000
FE0000000000
FE0000000000
FE0000000000
FE0000000000
FE0000000000
FE0000000000
FE0000000000
FE0000000000
FE0000000000
FE0000000000
FE0000000000
FE0000000000
FE0000000000
FFFFFFFFFFF8
FFFFFFFFFFFC
FFFFFFFFFFFC
FFFFFFFFFFFC
7FFFFFFFFFF8
3FFFFFFFFFF0
ENDCHAR
STARTCHAR 0113
ENCODING 275
SWIDTH 612 0
DWIDTH 51 0
BBX 43 61 5 0
BITMAP
003FFFFF8000
00FFFFFFE000
01FFFFFFE000
01FFFFFFE000
00FFFFFFE000
00FFFFFFE000
000000000000
000000000000
000000000000
000000000000
000000000000
000000000000
000000000000
000000000000
000000000000
00007FE00000
0003FFFC0000
001FFFFF0000
003FFFFFC000
00FFFFFFE000
01FFFFFFF000
03FF801FF800
07FE0007FC00
07F80001FE00
0FF00000FE00
1FE000007F00
1FC000003F80
3F8000003F80
3F0000001F80
7F0000001FC0
7F0000000FC0
7E0000000FC0
7E0000000FC0
FE00000007E0
FC00000007E0
FFFFFFFFFFE0
FFFFFFFFFFE0
FFFFFFFFFFE0
FFFFFFFFFFE0
FFFFFFFFFFC0
FC0000000000
FC0000000000
FC0000000000
7E0000000000
7E0000000000
7E0000000000
7F0000000000
3F0000000000
3F8000000000
1FC000000000
1FE000000000
0FF000001800
0FF800007E00
07FC0000FE00
03FF8007FE00
01FFF87FFE00
00FFFFFFFC00
003FFFFFF000
001FFFFFE000
0007FFFF0000
0000FFFC0000
ENDCHAR
STARTCHAR 0114
ENCODING 276
SWIDTH 696 0
DWIDTH 58 0
BBX 46 85 8 0
BITMAP
000F0000E000
001F8001F000
001F8003F800
001F8003F800
001F8003F800
001FC007F000
001FE00FF000
000FFFFFE000
0007FFFFE000
0003FFFFC000
0001FFFF0000
00007FFE0000
00000FF00000
000000000000
000000000000
000000000000
000000000000
000000000000
000000000000
000000000000
3FFFFFFFFFF8
7FFFFFFFFFF8
FFFFFFFFFFFC
FFFFFFFFFFFC
FFFFFFFFFFFC
FFFFFFFFFFF8
FE0000000000
FE0000000000
FE0000000000
FE0000000000
FE0000000000
FE0000000000
FE0000000000
FE0000000000
FE0000000000
FE0000000000
FE0000000000
FE0000000000
FE0000000000
FE0000000000
FE0000000000
FE0000000000
FE0000000000
FE0000000000
FE0000000000
FE0000000000
FE0000000000
FE0000000000
FE0000000000
FFFFFFFFC000
FFFFFFFFF000
FFFFFFFFF000
FFFFFFFFF000
FFFFFFFFF000
FFFFFFFFE000
FFFFFFFF8000
FE0000000000
FE0000000000
FE0000000000
FE0000000000
FE0000000000
FE0000000000
FE0000000000
FE0000000000
FE0000000000
FE0000000000
FE0000000000
FE0000000000
FE0000000000
FE0000000000
FE0000000000
FE0000000000
FE0000000000
FE0000000000
FE0000000000
FE0000000000
FE0000000000
FE0000000000
FE0000000000
FFFFFFFFFFF8
FFFFFFFFFFFC
FFFFFFFFFFFC
FFFFFFFFFFFC
7FFFFFFFFFF8
3FFFFFFFFFF0
ENDCHAR
STARTCHAR 0115
ENCODING 277
SWIDTH 612 0
DWIDTH 51 0
BBX 43 66 5 0
BITMAP
001000010000
007C0007C000
007E000FC000
00FE000FC000
00FE000FC000
007E000FC000
007F001FC000
007FC07F8000
003FFFFF8000
001FFFFF0000
000FFFFE0000
0003FFF80000
0000FFE00000
000000000000
000000000000
000000000000
000000000000
000000000000
000000000000
000000000000
00007FE00000
0003FFFC0000
001FFFFF0000
003FFFFFC000
00FFFFFFE000
01FFFFFFF000
03FF801FF800
07FE0007FC00
07F80001FE00
0FF00000FE00
1FE000007F00
1FC000003F80
3F8000003F80
3F0000001F80
7F0000001FC0
7F0000000FC0
7E0000000FC0
7E0000000FC0
FE00000007E0
FC00000007E0
FFFFFFFFFFE0
FFFFFFFFFFE0
FFFFFFFFFFE0
FFFFFFFFFFE0
FFFFFFFFFFC0
FC0000000000
FC0000000000
FC0000000000
7E0000000000
7E0000000000
7E0000000000
7F0000000000
3F0000000000
3F8000000000
1FC000000000
1FE000000000
0FF000001800
0FF800007E00
07FC0000FE00
03FF8007FE00
01FFF87FFE00
00FFFFFFFC00
003FFFFFF000
001FFFFFE000
0007FFFF0000
0000FFFC0000
ENDCHAR
STARTCHAR 0116
ENCODING 278
SWIDTH 696 0
DWIDTH 58 0
BBX 46 83 8 0
BITMAP
000003800000
00000FE00000
00000FF00000
00001FF00000
00001FF00000
00001FF00000
00001FF00000
00000FE00000
000007C00000
000000000000
000000000000
000000000000
000000000000
000000000000
000000000000
000000000000
000000000000
000000000000
3FFFFFFFFFF8
7FFFFFFFFFF8
FFFFFFFFFFFC
FFFFFFFFFFFC
FFFFFFFFFFFC
FFFFFFFFFFF8
FE0000000000
FE0000000000
FE0000000000
FE0000000000
FE0000000000
FE0000000000
FE0000000000
FE0000000000
FE0000000000
FE0000000000
FE0000000000
FE0000000000
FE0000000000
FE0000000000
FE0000000000
FE0000000000
FE0000000000
FE0000000000
FE0000000000
FE0000000000
FE0000000000
FE0000000000
FE0000000000
FFFFFFFFC000
FFFFFFFFF000
FFFFFFFFF000
FFFFFFFFF000
FFFFFFFFF000
FFFFFFFFE000
FFFFFFFF8000
FE0000000000
FE0000000000
FE0000000000
FE0000000000
FE0000000000
FE0000000000
FE0000000000
FE0000000000
FE0000000000
FE0000000000
FE0000000000
FE0000000000
FE0000000000
FE0000000000
FE0000000000
FE0000000000
FE0000000000
FE0000000000
FE0000000000
FE0000000000
FE0000000000
FE0000000000
FE0000000000
FFFFFFFFFFF8
FFFFFFFFFFFC
FFFFFFFFFFFC
FFFFFFFFFFFC
7FFFFFFFFFF8
3FFFFFFFFFF0
ENDCHAR
STARTCHAR 0117
ENCODING 279
SWIDTH 612 0
DWIDTH 51 0
BBX 43 63 5 0
BITMAP
00001F000000
00003F800000
00007FC00000
00007FC00000
00007FC00000
00007FC00000
00007F800000
00003F800000
00000E000000
000000000000
000000000000
000000000000
000000000000
000000000000
000000000000
000000000000
000000000000
00007FE00000
0003FFFC0000
001FFFFF0000
003FFFFFC000
00FFFFFFE000
01FFFFFFF000
03FF801FF800
07FE0007FC00
07F80001FE00
0FF00000FE00
1FE000007F00
1FC000003F80
3F8000003F80
3F0000001F80
7F0000001FC0
7F0000000FC0
7E0000000FC0
7E0000000FC0
FE00000007E0
FC00000007E0
FFFFFFFFFFE0
FFFFFFFFFFE0
FFFFFFFFFFE0
FFFFFFFFFFE0
FFFFFFFFFFC0
FC0000000000
FC0000000000
FC0000000000
7E0000000000
7E0000000000
7E0000000000
7F0000000000
3F0000000000
3F8000000000
1FC000000000
1FE000000000
0FF000001800
0FF800007E00
07FC0000FE00
03FF8007FE00
01FFF87FFE00
00FFFFFFFC00
003FFFFFF000
001FFFFFE000
0007FFFF0000
0000FFFC0000
ENDCHAR
STARTCHAR 0118
ENCODING 280
SWIDTH 696 0
DWIDTH 58 0
BBX 54 87 8 -22
BITMAP
3FFFFFFFFFF800
7FFFFFFFFFF800
FFFFFFFFFFFC00
FFFFFFFFFFFC00
FFFFFFFFFFFC00
FFFFFFFFFFF800
FE000000000000
FE000000000000
FE000000000000
FE000000000000
FE000000000000
FE000000000000
FE000000000000
FE000000000000
FE000000000000
FE000000000000
FE000000000000
FE000000000000
FE000000000000
FE000000000000
FE000000000000
FE000000000000
FE000000000000
FE000000000000
FE000000000000
FE000000000000
FE000000000000
FE000000000000
FE000000000000
FFFFFFFFC00000
FFFFFFFFF00000
FFFFFFFFF00000
FFFFFFFFF00000
FFFFFFFFF00000
FFFFFFFFE00000
FFFFFFFF800000
FE000000000000
FE000000000000
FE000000000000
FE000000000000
FE000000000000
FE000000000000
FE000000000000
FE000000000000
FE000000000000
FE000000000000
FE000000000000
FE000000000000
FE000000000000
FE000000000000
FE000000000000
FE000000000000
FE000000000000
FE000000000000
FE000000000000
FE000000000000
FE000000000000
FE000000000000
FE000000000000
FFFFFFFFFFF800
FFFFFFFFFFFC00
FFFFFFFFFFFC00
FFFFFFFFFFFC00
7FFFFFFFFFF800
3FFFFFFFFFF800
00000000003E00
00000000007E00
0000000000FE00
0000000001FE00
0000000003FE00
0000000007FC00
000000000FFC00
000000000FF800
000000001FE000
000000001FC000
000000001F8000
000000003F8000
000000003F8070
000000003F80F8
000000001FC3FC
000000001FFFFC
000000001FFFFC
000000000FFFF8
0000000007FFF0
0000000003FFC0
0000000001FF80
00000000003C00
ENDCHAR
STARTCHAR 0119
ENCODING 281
SWIDTH 612 0
DWIDTH 51 0
BBX 43 63 5 -17
BITMAP
00007FE00000
0003FFFC0000
001FFFFF0000
003FFFFFC000
00FFFFFFE000
01FFFFFFF000
03FF801FF800
07FE0007FC00
07F80001FE00
0FF00000FE00
1FE000007F00
1FC000003F80
3F8000003F80
3F0000001F80
7F0000001FC0
7F0000000FC0
7E0000000FC0
7E0000000FC0
FE00000007E0
FC00000007E0
FFFFFFFFFFE0
FFFFFFFFFFE0
FFFFFFFFFFE0
FFFFFFFFFFE0
FFFFFFFFFFC0
FC0000000000
FC0000000000
FC0000000000
7E0000000000
7E0000000000
7E0000000000
7F0000000000
3F0000000000
3F8000000000
1FC000000000
1FE000000000
0FF000001800
0FF800007E00
07FC0000FE00
03FF8007FE00
01FFF87FFE00
00FFFFFFFC00
003FFFFFF000
001FFFFFE000
0007FFFF0000
0000FFFE0000
000007FE0000
000007FC0000
00000FF80000
00000FF00000
00001FE00000
00001FC00000
00001FC00000
00001FC07800
00001FC0FC00
00000FE1FE00
00000FFFFE00
00000FFFFC00
000007FFFC00
000003FFF000
000001FFE000
0000007F8000
0000000C0000
ENDCHAR
STARTCHAR 011A
ENCODING 282
SWIDTH 696 0
DWIDTH 58 0
BBX 46 85 8 1
BITMAP
000E00007000
001F8001F000
001FC003F800
001FF00FF800
001FF81FF000
0007FC7FE000
0003FFFF8000
0000FFFF0000
00007FFC0000
00001FF80000
00000FE00000
000003C00000
000000000000
000000000000
000000000000
000000000000
000000000000
000000000000
000000000000
000000000000
3FFFFFFFFFF8
7FFFFFFFFFF8
FFFFFFFFFFFC
FFFFFFFFFFFC
FFFFFFFFFFFC
FFFFFFFFFFF8
FE0000000000
FE0000000000
FE0000000000
FE0000000000
FE0000000000
FE0000000000
FE0000000000
FE0000000000
FE0000000000
FE0000000000
FE0000000000
FE0000000000
FE0000000000
FE0000000000
FE0000000000
FE0000000000
FE0000000000
FE0000000000
FE0000000000
FE0000000000
FE0000000000
FE0000000000
FE0000000000
FFFFFFFFC000
FFFFFFFFF000
FFFFFFFFF000
FFFFFFFFF000
FFFFFFFFF000
FFFFFFFFE000
FFFFFFFF8000
FE0000000000
FE0000000000
FE0000000000
FE0000000000
FE0000000000
FE0000000000
FE0000000000
FE0000000000
FE0000000000
FE0000000000
FE0000000000
FE0000000000
FE0000000000
FE0000000000
FE0000000000
FE0000000000
FE0000000000
FE0000000000
FE0000000000
FE0000000000
FE0000000000
FE0000000000
FE0000000000
FFFFFFFFFFF8
FFFFFFFFFFFC
FFFFFFFFFFFC
FFFFFFFFFFFC
7FFFFFFFFFF8
3FFFFFFFFFF0
ENDCHAR
STARTCHAR 011B
ENCODING 283
SWIDTH 612 0
DWIDTH 51 0
BBX 43 65 5 1
BITMAP
007C0007C000
007E000FC000
00FF801FC000
007FC07FC000
003FF0FF8000
001FFBFF0000
0007FFFC0000
0003FFF80000
0000FFE00000
00007FC00000
00001F000000
00000E000000
000000000000
000000000000
000000000000
000000000000
000000000000
000000000000
000000000000
00007FE00000
0003FFFC0000
001FFFFF0000
003FFFFFC000
00FFFFFFE000
01FFFFFFF000
03FF801FF800
07FE0007FC00
07F80001FE00
0FF00000FE00
1FE000007F00
1FC000003F80
3F8000003F80
3F0000001F80
7F0000001FC0
7F0000000FC0
7E0000000FC0
7E0000000FC0
FE00000007E0
FC00000007E0
FFFFFFFFFFE0
FFFFFFFFFFE0
FFFFFFFFFFE0
FFFFFFFFFFE0
FFFFFFFFFFC0
FC0000000000
FC0000000000
FC0000000000
7E0000000000
7E0000000000
7E0000000000
7F0000000000
3F0000000000
3F8000000000
1FC000000000
1FE000000000
0FF000001800
0FF800007E00
07FC0000FE00
03FF8007FE00
01FFF87FFE00
00FFFFFFFC00
003FFFFFF000
001FFFFFE000
0007FFFF0000
0000FFFC0000
ENDCHAR
STARTCHAR 011C
ENCODING 284
SWIDTH 768 0
DWIDTH 64 0
BBX 54 86 5 -1
BITMAP
00000003800000
0000000FE00000
0000001FF00000
0000007FFC0000
000000FFFE0000
000003FFFF8000
000007FFFFC000
00000FFC7FF000
00001FF83FF000
00001FF00FF800
00001FC007F800
00001F8001F000
0000060000C000
00000000000000
00000000000000
00000000000000
00000000000000
00000000000000
00000000000000
0000001FFC0000
000001FFFFC000
00000FFFFFF800
00003FFFFFFE00
0000FFFFFFFF80
0001FFFFFFFFC0
0007FFF80FFFF0
000FFF80007FF8
001FFC00000FFC
003FF0000007FC
007FE0000001FC
00FF80000000F8
01FF0000000020
01FE0000000000
03FC0000000000
07F80000000000
07F00000000000
0FF00000000000
0FE00000000000
1FC00000000000
1FC00000000000
3F800000000000
3F800000000000
3F000000000000
7F000000000000
7F000000000000
7E000000000000
7E000000000000
FE000000000000
FE000000000000
FE000000000000
FE000000000000
FC000000000000
FC000000000000
FE000000FFFFF8
FE000001FFFFFC
FE000001FFFFFC
FE000000FFFFFC
7E000000FFFFFC
7E0000000000FC
7E0000000000FC
7F0000000000FC
7F0000000000FC
3F0000000000FC
3F8000000000FC
3F8000000000FC
1FC000000000FC
1FC000000000FC
0FE000000000FC
0FE000000000FC
07F000000000FC
07F800000000FC
03FC00000000FC
01FE00000000FC
01FF00000000FC
00FF80000000FC
007FE0000001FC
003FF0000007FC
001FFC00001FFC
000FFF8000FFF8
0007FFFC1FFFF0
0001FFFFFFFFE0
0000FFFFFFFF80
00003FFFFFFF00
000007FFFFFC00
000000FFFFE000
0000000FFC0000
ENDCHAR
STARTCHAR 011D
ENCODING 285
SWIDTH 672 0
DWIDTH 56 0
BBX 46 83 5 -18
BITMAP
000007C00000
00001FE00000
00003FF80000
0000FFFC0000
0001FFFF0000
0007FFFF8000
000FFEFFE000
001FF87FF000
003FF01FF000
003FC00FF000
003F8007F000
001F0001E000
000000000000
000000000000
000000000000
000000000000
000000000000
000000000000
000000000000
00003FF00000
0001FFFF0000
000FFFFFC000
003FFFFFF000
007FFFFFF800
00FFFFFFFE00
01FFC00FFF00
03FF0001FF80
07FC00007FC0
0FF000003FC0
1FE000001FE0
1FC000000FF0
3FC0000007F0
3F80000007F8
3F00000003F8
7F00000003F8
7E00000001F8
7E00000001FC
FE00000001FC
FE00000000FC
FE00000000FC
FC00000000FC
FC00000000FC
FC00000000FC
FC00000000FC
FC00000000FC
FE00000000FC
FE00000000FC
7E00000001FC
7E00000001FC
7F00000001FC
7F00000003FC
3F80000003FC
3F80000007FC
1FC000000FFC
1FE000000FFC
0FF000001FFC
0FF800007EFC
07FE0000FEFC
03FF8007FCFC
01FFFCFFF8FC
00FFFFFFF0FC
007FFFFFE0FC
001FFFFF80FC
0007FFFF00FC
0000FFF801FC
0000000001FC
0000000001F8
0000000003F8
0000000003F8
0600000007F0
1F00000007F0
1F8000000FE0
1FC000001FE0
1FF000003FC0
0FF80000FF80
07FE0001FF80
03FFC00FFF00
01FFFFFFFE00
00FFFFFFF800
003FFFFFF000
000FFFFFC000
0003FFFF0000
00003FF80000
ENDCHAR
STARTCHAR 011E
ENCODING 286
SWIDTH 768 0
DWIDTH 64 0
BBX 54 86 5 -1
BITMAP
00000F0000E000
00001F0001F000
00001F8003F800
00001F8003F800
00001F8003F000
00001FC007F000
00001FE00FF000
00000FFEFFE000
000007FFFFE000
000003FFFFC000
000001FFFF0000
0000007FFE0000
0000000FE00000
00000000000000
00000000000000
00000000000000
00000000000000
00000000000000
00000000000000
0000001FFC0000
000001FFFFC000
00000FFFFFF800
00003FFFFFFE00
0000FFFFFFFF80
0001FFFFFFFFC0
0007FFF80FFFF0
000FFF80007FF8
001FFC00000FFC
003FF0000007FC
007FE0000001FC
00FF80000000F8
01FF0000000020
01FE0000000000
03FC0000000000
07F80000000000
07F00000000000
0FF00000000000
0FE00000000000
1FC00000000000
1FC00000000000
3F800000000000
3F800000000000
3F000000000000
7F000000000000
7F000000000000
7E000000000000
7E000000000000
FE000000000000
FE000000000000
FE000000000000
FE000000000000
FC000000000000
FC000000000000
FE000000FFFFF8
FE000001FFFFFC
FE000001FFFFFC
FE000000FFFFFC
7E000000FFFFFC
7E0000000000FC
7E0000000000FC
7F0000000000FC
7F0000000000FC
3F0000000000FC
3F8000000000FC
3F8000000000FC
1FC000000000FC
1FC000000000FC
0FE000000000FC
0FE000000000FC
07F000000000FC
07F800000000FC
03FC00000000FC
01FE00000000FC
01FF00000000FC
00FF80000000FC
007FE0000001FC
003FF0000007FC
001FFC00001FFC
000FFF8000FFF8
0007FFFC1FFFF0
0001FFFFFFFFE0
0000FFFFFFFF80
00003FFFFFFF00
000007FFFFFC00
000000FFFFE000
0000000FFC0000
ENDCHAR
STARTCHAR 011F
ENCODING 287
SWIDTH 672 0
DWIDTH 56 0
BBX 46 84 5 -18
BITMAP
000400004000
001F0001E000
003F0003F000
003F0003F000
003F8003F000
003F8007F000
001FC00FF000
001FF03FE000
000FFFFFC000
0007FFFFC000
0003FFFF8000
0001FFFE0000
00007FF80000
000000000000
000000000000
000000000000
000000000000
000000000000
000000000000
000000000000
00003FF00000
0001FFFF0000
000FFFFFC000
003FFFFFF000
007FFFFFF800
00FFFFFFFE00
01FFC00FFF00
03FF0001FF80
07FC00007FC0
0FF000003FC0
1FE000001FE0
1FC000000FF0
3FC0000007F0
3F80000007F8
3F00000003F8
7F00000003F8
7E00000001F8
7E00000001FC
FE00000001FC
FE00000000FC
FE00000000FC
FC00000000FC
FC00000000FC
FC00000000FC
FC00000000FC
FC00000000FC
FE00000000FC
FE00000000FC
7E00000001FC
7E00000001FC
7F00000001FC
7F00000003FC
3F80000003FC
3F80000007FC
1FC000000FFC
1FE000000FFC
0FF000001FFC
0FF800007EFC
07FE0000FEFC
03FF8007FCFC
01FFFCFFF8FC
00FFFFFFF0FC
007FFFFFE0FC
001FFFFF80FC
0007FFFF00FC
0000FFF801FC
0000000001FC
0000000001F8
0000000003F8
0000000003F8
0600000007F0
1F00000007F0
1F8000000FE0
1FC000001FE0
1FF000003FC0
0FF80000FF80
07FE0001FF80
03FFC00FFF00
01FFFFFFFE00
00FFFFFFF800
003FFFFFF000
000FFFFFC000
0003FFFF0000
00003FF80000
ENDCHAR
STARTCHAR 0120
ENCODING 288
SWIDTH 768 0
DWIDTH 64 0
BBX 54 84 5 -1
BITMAP
00000003800000
0000000FE00000
0000000FF00000
0000001FF00000
0000001FF00000
0000001FF00000
0000001FF00000
0000000FE00000
00000007C00000
00000000000000
00000000000000
00000000000000
00000000000000
00000000000000
00000000000000
00000000000000
00000000000000
0000001FFC0000
000001FFFFC000
00000FFFFFF800
00003FFFFFFE00
0000FFFFFFFF80
0001FFFFFFFFC0
0007FFF80FFFF0
000FFF80007FF8
001FFC00000FFC
003FF0000007FC
007FE0000001FC
00FF80000000F8
01FF0000000020
01FE0000000000
03FC0000000000
07F80000000000
07F00000000000
0FF00000000000
0FE00000000000
1FC00000000000
1FC00000000000
3F800000000000
3F800000000000
3F000000000000
7F000000000000
7F000000000000
7E000000000000
7E000000000000
FE000000000000
FE000000000000
FE000000000000
FE000000000000
FC000000000000
FC000000000000
FE000000FFFFF8
FE000001FFFFFC
FE000001FFFFFC
FE000000FFFFFC
7E000000FFFFFC
7E0000000000FC
7E0000000000FC
7F0000000000FC
7F0000000000FC
3F0000000000FC
3F8000000000FC
3F8000000000FC
1FC000000000FC
1FC000000000FC
0FE000000000FC
0FE000000000FC
07F000000000FC
07F800000000FC
03FC00000000FC
01FE00000000FC
01FF00000000FC
00FF80000000FC
007FE0000001FC
003FF0000007FC
001FFC00001FFC
000FFF8000FFF8
0007FFFC1FFFF0
0001FFFFFFFFE0
0000FFFFFFFF80
00003FFFFFFF00
000007FFFFFC00
000000FFFFE000
0000000FFC0000
ENDCHAR
STARTCHAR 0121
ENCODING 289
SWIDTH 672 0
DWIDTH 56 0
BBX 46 81 5 -18
BITMAP
00000FC00000
00001FE00000
00001FE00000
00001FF00000
00001FF00000
00001FF00000
00001FE00000
00000FC00000
000003800000
000000000000
000000000000
000000000000
000000000000
000000000000
000000000000
000000000000
000000000000
00003FF00000
0001FFFF0000
000FFFFFC000
003FFFFFF000
007FFFFFF800
00FFFFFFFE00
01FFC00FFF00
03FF0001FF80
07FC00007FC0
0FF000003FC0
1FE000001FE0
1FC000000FF0
3FC0000007F0
3F80000007F8
3F00000003F8
7F00000003F8
7E00000001F8
7E00000001FC
FE00000001FC
FE00000000FC
FE00000000FC
FC00000000FC
FC00000000FC
FC00000000FC
FC00000000FC
FC00000000FC
FE00000000FC
FE00000000FC
7E00000001FC
7E00000001FC
7F00000001FC
7F00000003FC
3F80000003FC
3F80000007FC
1FC000000FFC
1FE000000FFC
0FF000001FFC
0FF800007EFC
07FE0000FEFC
03FF8007FCFC
01FFFCFFF8FC
00FFFFFFF0FC
007FFFFFE0FC
001FFFFF80FC
0007FFFF00FC
0000FFF801FC
0000000001FC
0000000001F8
0000000003F8
0000000003F8
0600000007F0
1F00000007F0
1F8000000FE0
1FC000001FE0
1FF000003FC0
0FF80000FF80
07FE0001FF80
03FFC00FFF00
01FFFFFFFE00
00FFFFFFF800
003FFFFFF000
000FFFFFC000
0003FFFF0000
00003FF80000
ENDCHAR
ENDFONT
